<svg width="68" height="83" viewBox="0 0 68 83" fill="none" xmlns="http://www.w3.org/2000/svg">
<path d="M25.7237 70.7945C28.1502 70.7945 30.1172 68.8274 30.1172 66.4009C30.1172 63.9744 28.1502 62.0073 25.7237 62.0073C23.2972 62.0073 21.3301 63.9744 21.3301 66.4009C21.3301 68.8274 23.2972 70.7945 25.7237 70.7945Z" fill="#ED1C24"/>
<path d="M44.762 82.5108H6.68428C5.13109 82.5093 3.64196 81.8916 2.54369 80.7933C1.44541 79.695 0.827723 78.2059 0.826172 76.6527V6.35542C0.827723 4.80223 1.44541 3.3131 2.54369 2.21483C3.64196 1.11655 5.13109 0.498865 6.68428 0.497314H44.762V6.35542H6.68428V76.6527H44.762V53.2203H50.6201V76.6527C50.6185 78.2059 50.0008 79.695 48.9026 80.7933C47.8043 81.8916 46.3152 82.5093 44.762 82.5108Z" fill="black"/>
<path fill-rule="evenodd" clip-rule="evenodd" d="M49.9049 7.87769C49.5599 7.87769 49.2291 8.01473 48.9851 8.25867C48.7412 8.50262 48.6041 8.83347 48.6041 9.17846V28.2097L45.6904 24.8086C45.5792 24.6788 45.4436 24.5721 45.2912 24.4947C45.1389 24.4173 44.9728 24.3707 44.8024 24.3575C44.632 24.3442 44.4606 24.3647 44.2982 24.4177C44.1357 24.4707 43.9852 24.5552 43.8554 24.6664C43.7256 24.7775 43.6189 24.9132 43.5415 25.0655C43.4641 25.2179 43.4175 25.384 43.4043 25.5544C43.3911 25.7248 43.4116 25.8961 43.4646 26.0586C43.5176 26.2211 43.6021 26.3715 43.7132 26.5013L48.9163 32.5716C49.0384 32.7144 49.19 32.8291 49.3607 32.9077C49.5313 32.9863 49.717 33.027 49.9049 33.027C50.0928 33.027 50.2785 32.9863 50.4491 32.9077C50.6198 32.8291 50.7714 32.7144 50.8935 32.5716L56.0966 26.5013C56.2077 26.3715 56.2922 26.2211 56.3452 26.0586C56.3982 25.8961 56.4187 25.7248 56.4055 25.5544C56.3923 25.384 56.3457 25.2179 56.2683 25.0655C56.1909 24.9132 56.0842 24.7775 55.9544 24.6664C55.8246 24.5552 55.6741 24.4707 55.5116 24.4177C55.3492 24.3647 55.1778 24.3442 55.0074 24.3575C54.8371 24.3707 54.6709 24.4173 54.5186 24.4947C54.3662 24.5721 54.2306 24.6788 54.1194 24.8086L51.2057 28.208V9.17846C51.2057 8.83347 51.0686 8.50262 50.8247 8.25867C50.5807 8.01473 50.2499 7.87769 49.9049 7.87769Z" fill="black"/>
<path d="M53.8075 21.3186V21.9742C54.6181 21.6861 55.5012 21.674 56.3194 21.9399C57.1376 22.2057 57.8449 22.7346 58.3313 23.4442C58.8176 24.1538 59.0558 25.0043 59.0087 25.8633C58.9615 26.7222 58.6317 27.5415 58.0706 28.1936L52.8675 34.2639C52.5012 34.6911 52.0467 35.0341 51.5354 35.2692C51.0241 35.5043 50.468 35.626 49.9052 35.626C49.3424 35.626 48.7863 35.5043 48.275 35.2692C47.7637 35.0341 47.3093 34.6911 46.9429 34.2639L41.7398 28.1936C41.1803 27.5412 40.8518 26.7222 40.8054 25.8639C40.759 25.0056 40.9973 24.156 41.4833 23.447C41.9693 22.7381 42.6757 22.2094 43.493 21.943C44.3102 21.6767 45.1925 21.6877 46.0029 21.9742V21.3186H42.9677C38.0629 21.3186 35.6088 21.3186 34.086 22.8431C32.5615 24.3659 32.5615 26.82 32.5615 31.7248V33.4592C32.5615 38.364 32.5615 40.8181 34.086 42.3409C35.6088 43.8654 38.0629 43.8654 42.9677 43.8654H56.8427C61.7475 43.8654 64.2016 43.8654 65.7244 42.3409C67.2489 40.8181 67.2489 38.364 67.2489 33.4592V31.7248C67.2489 26.82 67.2489 24.3659 65.7244 22.8431C64.2016 21.3186 61.7475 21.3186 56.8427 21.3186H53.8075Z" fill="#ED1C24"/>
</svg>
