<svg width="117" height="113" viewBox="0 0 117 113" fill="none" xmlns="http://www.w3.org/2000/svg">
<path d="M74.3483 62.6832C75.412 64.0065 75.8728 65.5513 76.0434 67.1813C76.2141 68.8453 76.106 70.5037 75.7704 72.145C75.7078 72.446 75.6452 72.6505 75.2471 72.6448C73.1139 72.6164 70.9808 72.6221 68.8477 72.6164C68.7681 72.6164 68.6941 72.5937 68.5576 72.571V70.9069H44.5245V72.6221C43.7225 72.6221 42.9716 72.6221 42.2265 72.6221C41.2708 72.6221 40.3152 72.6391 39.3652 72.6051C39.1889 72.5994 38.8874 72.4176 38.859 72.27C38.3413 69.8165 38.2105 67.3687 39.0012 64.9379C39.5131 63.359 40.4517 62.0982 42.016 61.11H39.9796V59.2983C41.2196 59.0938 42.4711 58.8667 43.7282 58.6792C44.1946 58.6111 44.5302 58.4464 44.8374 58.0602C45.9864 56.6063 47.5109 55.6464 49.2117 54.9592C51.9762 53.8404 54.8716 53.3861 57.8465 53.4088C57.9887 53.4088 58.1253 53.4372 58.2902 53.4542C58.4381 54.1471 58.586 54.84 58.751 55.601C57.8181 55.601 56.8909 55.5442 55.9751 55.6124C53.8192 55.7714 51.7089 56.1746 49.7179 57.0549C48.4381 57.6229 47.272 58.3555 46.4244 59.4914C46.0945 59.9344 45.8613 60.4455 45.4972 61.0873C45.9182 61.0873 46.1343 61.0873 46.3448 61.0873C51.5268 61.0873 56.7032 61.0702 61.8852 61.0873C62.272 61.0873 62.7214 61.2293 63.04 61.4508C66.3619 63.7396 69.9228 64.1542 73.7112 62.8706C73.8819 62.8138 74.0525 62.7457 74.2232 62.6832C74.2402 62.6775 74.263 62.6832 74.3483 62.6718V62.6832ZM73.3415 63.9611C71.561 64.4665 69.9285 64.9322 68.2959 65.3979C67.346 65.6705 67.3005 65.7557 67.5678 66.7951C69.5758 66.7951 71.6008 66.8064 73.6202 66.7723C73.7453 66.7723 74.0013 66.3975 73.9672 66.2498C73.8022 65.4945 73.5633 64.7505 73.3358 63.9611H73.3415ZM47.09 66.8007C46.9591 66.3407 47.4028 65.7841 46.7885 65.591C44.9967 65.0288 43.1821 64.529 41.2082 63.9554C40.9921 64.7505 40.7702 65.4945 40.5996 66.2498C40.5086 66.6417 40.6963 66.8235 41.1343 66.8121C42.5336 66.7837 43.9329 66.8007 45.3323 66.8007C45.8954 66.8007 46.4585 66.8007 47.09 66.8007Z" fill="#ED1C24"/>
<path d="M50.4069 25.2901C50.3955 31.2421 45.5775 36.0299 39.6219 36.0185C33.6947 36.0071 28.8937 31.1967 28.8994 25.2845C28.9051 19.3211 33.7003 14.522 39.656 14.5164C45.5946 14.5107 50.424 19.3438 50.4126 25.2901H50.4069ZM37.0508 25.8013C37.6367 26.3692 38.2453 26.9599 38.8483 27.5562C39.3602 28.0617 39.7868 27.9083 40.0656 27.2325C40.1793 26.9599 40.5548 26.7952 40.7937 26.568C41.1975 26.1818 41.8346 25.824 41.9143 25.3697C41.9882 24.9551 42.1077 24.6881 42.3693 24.4212C42.9552 23.8305 43.5468 23.2456 44.1327 22.6606C44.5536 22.2346 45.0997 21.8712 44.8836 21.1328C44.8722 21.0874 44.912 21.0193 44.9404 20.9681C45.2078 20.5308 45.4808 20.0878 45.7823 19.6051C45.6629 19.4915 45.515 19.3495 45.3045 19.1507C45.1509 19.3382 45.0656 19.5313 44.9177 19.6108C44.5536 19.8095 44.1611 19.9629 43.7686 20.1219C43.433 20.2525 43.0121 20.2753 42.7618 20.4967C42.0337 21.1385 41.3739 21.8598 40.6799 22.5413C40.3784 22.8367 40.1395 23.2853 39.5764 23.0184C39.5195 22.99 39.3773 23.0695 39.3204 23.1377C38.9962 23.5466 38.4216 23.7681 38.3989 24.4269C38.3932 24.5973 38.1088 24.8812 37.9211 24.9039C37.4034 24.9721 37.21 25.3015 37.0451 25.8013H37.0508ZM36.8915 26.2272C35.9984 27.1189 35.0769 28.0446 34.1668 28.9477C34.2976 29.1692 34.5365 29.4191 34.5763 29.6917C34.6332 30.1176 34.9347 30.4357 35.3727 30.3789C35.4467 30.3675 35.5377 30.4641 35.6173 30.5152C35.6059 30.5776 35.5946 30.6458 35.5832 30.7083C35.2703 30.6856 34.9518 30.6515 34.6389 30.6401C34.4626 30.6344 34.2806 30.6685 34.0985 30.6799C34.2009 30.8446 34.2692 31.0774 34.4228 31.1683C34.9859 31.5091 35.6401 31.4012 36.2032 30.8787C36.5729 30.5379 36.9029 30.146 37.2669 29.7939C37.8301 29.2487 38.3989 28.7148 38.8995 28.2434C38.1486 27.4881 37.4944 26.8293 36.8915 26.2216V26.2272Z" fill="black"/>
<path d="M66.6523 90.5633C66.6751 84.5886 71.5158 79.8179 77.5227 79.852C83.4272 79.8861 88.1996 84.7306 88.1712 90.6598C88.1371 96.5778 83.3134 101.36 77.3975 101.348C71.4533 101.337 66.6296 96.4926 66.658 90.5576L66.6523 90.5633ZM79.0244 86.7922C78.7684 86.8149 78.7229 86.8035 78.6945 86.8206C76.8685 87.9962 75.0255 89.1434 73.2337 90.3702C71.7775 91.3754 71.4021 93.3576 72.2781 94.8739C73.1655 96.4131 75.0312 97.0491 76.6524 96.3676C78.2906 95.6804 79.178 93.8403 78.6376 92.1478C78.1484 90.6201 77.0278 89.8363 75.3611 89.6376C75.5887 89.4729 75.7423 89.3536 75.9015 89.2457C76.7662 88.6777 77.6421 88.1268 78.4897 87.5305C78.6888 87.3885 78.7912 87.1159 79.0187 86.7922H79.0244ZM79.3885 92.8464L79.5989 92.9259C80.6797 91.2675 81.8003 89.6262 82.8242 87.9337C83.3475 87.0705 82.8469 85.946 81.9084 85.5768C80.9641 85.2076 79.9232 85.7131 79.6103 86.6786C79.3031 87.6384 79.8777 88.6437 80.8731 88.8822C81.0779 88.9333 81.2884 88.956 81.55 89.0015C80.8959 90.001 80.2531 90.9381 79.6615 91.8979C79.4965 92.1706 79.4738 92.5227 79.3828 92.8407L79.3885 92.8464Z" fill="black"/>
<path d="M66.6631 25.2733C66.6631 19.3213 71.4925 14.5052 77.4367 14.5223C83.3867 14.5336 88.1762 19.3441 88.1762 25.3074C88.1762 31.2708 83.3583 36.0244 77.3742 36.0187C71.464 36.0187 66.6631 31.1969 66.6631 25.2733ZM73.0283 26.6875H73.6881C73.7052 26.8465 73.728 26.9828 73.7336 27.1191C73.7678 28.3288 74.3025 28.8513 75.4913 28.8684C75.7416 28.8684 76.1227 28.9422 76.2194 29.1126C76.6006 29.7487 77.1296 29.8793 77.8065 29.8225C78.3696 29.7771 78.9441 29.8225 79.5073 29.8055C79.6779 29.8055 79.8941 29.76 80.0022 29.6521C80.406 29.2432 80.7701 28.7945 81.2422 28.255H82.6643V23.7229C82.3514 23.7229 82.0898 23.7456 81.8281 23.7115C81.6973 23.6945 81.5721 23.5922 81.4527 23.5241C81.2877 23.4332 81.1228 23.2401 80.9692 23.2515C80.5198 23.2855 80.2411 23.1208 80.0534 22.729C79.8429 22.2917 79.5243 22.0418 78.9953 22.1156C78.8702 22.1326 78.7166 21.985 78.5801 21.9111C78.7052 21.8259 78.8531 21.7635 78.9612 21.6612C79.1262 21.4965 79.2684 21.3091 79.4163 21.1331C79.2399 21.0138 79.0636 20.7923 78.8816 20.7809C77.9089 20.7469 76.9362 20.7412 75.9635 20.7809C75.7757 20.7866 75.5937 21.0081 75.4117 21.1274C75.5482 21.3034 75.679 21.4795 75.8156 21.6556C75.9123 21.7805 76.026 21.8941 76.1398 22.0247C75.6847 22.1383 75.2467 22.1156 75.1102 22.3087C74.7689 22.7914 74.348 22.9789 73.7678 22.9107C73.745 23.3537 73.728 23.7342 73.7109 24.1318H73.034C73.034 23.8592 73.0966 23.5979 73.0169 23.3878C72.9373 23.189 72.7154 23.0413 72.5562 22.8709C72.4026 23.03 72.1295 23.189 72.1239 23.3537C72.0897 24.7735 72.084 26.1877 72.1239 27.6076C72.1239 27.7779 72.431 27.9426 72.596 28.1073C72.7439 27.9256 72.96 27.7609 73.0169 27.5564C73.0909 27.2952 73.034 26.9999 73.034 26.6818L73.0283 26.6875Z" fill="black"/>
<path d="M39.5878 101.343C33.5866 101.286 28.8369 96.4529 28.8881 90.4611C28.9393 84.5262 33.8028 79.7952 39.7869 79.8464C45.6914 79.8975 50.4525 84.7647 50.3956 90.6883C50.3387 96.6119 45.4809 101.4 39.5878 101.343ZM37.3807 92.199C37.4604 92.784 37.5343 93.3008 37.6026 93.8176C37.3864 93.9653 37.1703 94.113 36.9371 94.272C37.1987 94.6923 37.4319 95.0841 37.6822 95.4817C37.9553 95.3397 38.1657 95.2261 38.4729 95.0614C38.6606 95.7884 40.0941 95.6464 39.4911 96.8902C39.986 97.0208 40.4297 97.1401 40.8847 97.2593C40.9871 96.964 41.0725 96.7198 41.1805 96.4131C41.8518 96.68 42.7505 95.7316 43.2056 96.947C43.6379 96.6914 44.0304 96.4642 44.4342 96.2257C44.2863 95.9304 44.1669 95.7032 44.0702 95.5158C44.4229 95.0614 44.7414 94.6468 45.06 94.2266C45.3159 94.2663 45.5662 94.3117 45.8506 94.3572C45.9758 93.8858 46.0839 93.4655 46.2204 92.96C45.4809 92.96 45.4069 92.5284 45.333 91.9434C45.259 91.3641 45.2135 90.9268 45.9132 90.7224C45.6458 90.268 45.4126 89.8761 45.1737 89.4672C44.9007 89.6092 44.6675 89.7228 44.3774 89.8705C44.0986 89.1946 42.7733 89.2457 43.325 88.0531C42.8245 87.9338 42.3865 87.8259 42.1134 87.7577C41.8062 88.0758 41.647 88.3881 41.4081 88.4733C40.9985 88.6153 40.5378 88.6096 40.077 88.6664C39.9405 88.4677 39.7983 88.2575 39.6276 88.0076C39.2124 88.2518 38.8142 88.4847 38.399 88.7289C38.5412 89.0015 38.6663 89.2287 38.7687 89.4218C38.4217 89.8761 38.1088 90.2907 37.7732 90.7281C37.5343 90.6826 37.2784 90.6315 36.9883 90.569C36.8688 91.0347 36.755 91.4777 36.6356 91.9491C36.9257 92.04 37.1532 92.1138 37.3807 92.1877V92.199ZM36.5389 85.7416C36.6754 85.2418 36.408 85.0884 35.9416 85.0203C35.4638 84.9464 35.2761 85.1111 35.2192 85.5768C35.1509 86.1164 34.5025 86.3776 34.0702 86.0369C33.7004 85.7416 33.4558 85.7813 33.1657 86.1505C32.8642 86.5367 32.8585 86.7979 33.2681 87.1046C33.689 87.417 33.598 88.1099 33.1145 88.303C32.6424 88.4904 32.5684 88.7459 32.7505 89.1946C32.9268 89.6263 33.1543 89.7342 33.5923 89.5524C34.11 89.3366 34.6617 89.7626 34.5707 90.3078C34.4911 90.7905 34.6788 90.9779 35.1282 91.0347C35.5491 91.0858 35.8222 91.0234 35.8847 90.5179C35.9644 89.9159 36.573 89.6717 37.0679 90.0408C37.4718 90.3418 37.7107 90.1999 37.9723 89.8591C38.234 89.524 38.2454 89.2741 37.8927 88.9902C37.4149 88.604 37.4888 87.9736 38.0463 87.7293C38.49 87.5362 38.5412 87.2807 38.3648 86.8661C38.1885 86.4515 37.978 86.2981 37.523 86.4969C37.0053 86.7184 36.4763 86.3038 36.5275 85.7416H36.5389Z" fill="black"/>
<path d="M31.5269 57.9241C31.5383 63.8363 26.743 68.6467 20.8158 68.6638C14.8488 68.6865 10.0251 63.9101 10.0137 57.9581C9.99665 52.0005 14.7919 47.1957 20.7532 47.1843C26.7089 47.173 31.5212 51.9664 31.5326 57.9241H31.5269ZM25.5485 61.468V58.8441C26.7771 58.5317 27.9603 58.2364 29.1378 57.9411C30.0479 57.7139 30.2527 57.447 30.2584 56.4928C30.2584 56.1464 30.2584 55.8056 30.2584 55.4592C30.2584 54.4483 29.8716 54.1189 28.9444 54.4539C26.2936 55.4194 23.5689 55.7886 20.7532 55.5898C20.4518 55.5671 20.1389 55.6125 19.8374 55.5785C19.2686 55.5217 18.7965 55.6466 18.4665 56.1407C18.2504 56.4644 17.983 56.4701 17.6247 56.3509C16.396 55.9419 15.1559 55.5444 13.9102 55.1752C12.5678 54.7777 13.0171 54.6527 12.1923 55.8454C12.016 56.101 11.9932 56.3168 12.2834 56.5156C12.5678 56.703 12.7498 56.6235 12.9432 56.3622C13.3698 55.7829 13.4153 55.7943 13.7851 56.4474C14.6554 57.9808 15.52 59.52 16.4074 61.042C16.5098 61.2238 16.743 61.4509 16.9193 61.4509C19.7578 61.4737 22.6019 61.468 25.5485 61.468ZM12.3516 57.3164C12.0103 58.0092 11.6235 58.6169 11.4187 59.2757C11.305 59.6392 11.3732 60.1958 11.5951 60.4911C11.7771 60.7297 12.3232 60.8092 12.6758 60.7637C13.3357 60.6729 13.603 60.0027 13.3016 59.2814C13.0342 58.634 12.6929 58.0149 12.3516 57.322V57.3164ZM22.0388 55.232C22.6247 55.232 23.2163 55.232 23.8022 55.232C24.1264 55.232 24.3596 55.1014 24.2629 54.7777C24.206 54.5903 23.9614 54.329 23.7965 54.3233C22.6418 54.2836 21.487 54.3063 20.3323 54.3006C20.0024 54.3006 19.8545 54.4426 19.8488 54.772C19.8431 55.1184 20.0138 55.232 20.338 55.2263C20.9068 55.215 21.4756 55.2263 22.0388 55.2263V55.232Z" fill="black"/>
<path d="M105.901 58.0091C105.822 64.0066 100.958 68.7488 94.974 68.6636C89.0184 68.5785 84.3084 63.7283 84.3767 57.7479C84.445 51.8527 89.3426 47.099 95.2641 47.1842C101.208 47.2694 105.975 52.1196 105.901 58.0091ZM95.1617 54.7208C93.3528 54.7208 91.5497 54.7321 89.7408 54.7151C89.2118 54.7151 88.9558 54.8798 88.9558 55.4477C88.9729 57.373 88.9672 59.2983 88.9501 61.2237C88.9501 61.7746 89.1833 61.9733 89.7237 61.9677C93.3358 61.9563 96.9535 61.9563 100.566 61.9677C101.106 61.9677 101.334 61.7632 101.334 61.2123C101.316 59.304 101.311 57.4014 101.328 55.4932C101.328 54.9139 101.089 54.7037 100.52 54.7094C98.734 54.7264 96.9479 54.7151 95.1617 54.7151V54.7208ZM99.2573 53.8234C99.0355 53.8234 98.8022 53.7894 98.5918 53.8405C98.4496 53.8745 98.3358 54.0449 98.2107 54.1528C98.3244 54.2664 98.4382 54.4766 98.5633 54.4822C99.0241 54.522 99.4962 54.522 99.957 54.4822C100.093 54.4709 100.213 54.2835 100.338 54.1755C100.202 54.0563 100.082 53.8802 99.9228 53.8348C99.7181 53.778 99.4848 53.8177 99.2573 53.8177V53.8234ZM90.9922 54.4993C91.2368 54.4993 91.4871 54.539 91.7146 54.4822C91.8511 54.4482 91.9933 54.2778 92.0332 54.1358C92.0502 54.0733 91.8454 53.8575 91.7317 53.8461C91.2482 53.8121 90.7647 53.8064 90.2812 53.8461C90.1617 53.8575 90.0536 54.0676 89.9456 54.1869C90.0707 54.2891 90.1845 54.4482 90.3324 54.4879C90.5428 54.539 90.7704 54.4993 90.9922 54.4993Z" fill="black"/>
<path d="M78.6376 52.1822C78.6263 57.1176 74.6046 61.0931 69.6501 61.0704C64.7411 61.0477 60.7707 57.0437 60.7764 52.1197C60.7764 47.2241 64.8037 43.2201 69.7127 43.2315C74.6672 43.2428 78.6547 47.2354 78.6433 52.1765L78.6376 52.1822ZM76.8515 52.1311C76.8515 48.1952 73.6604 45.0091 69.7184 45.0148C65.765 45.0148 62.5682 48.1896 62.5568 52.114C62.5454 56.0839 65.7309 59.2871 69.7013 59.2928C73.6774 59.2928 76.8572 56.118 76.8572 52.1367L76.8515 52.1311Z" fill="black"/>
<path d="M24.6045 45.4919C23.683 45.3158 22.6762 45.1284 21.6182 44.9296C23.1824 40.2896 25.5374 36.1039 28.7058 32.3555C29.3998 33.179 30.071 33.9741 30.6796 34.6954C29.5363 36.4446 28.319 38.12 27.3122 39.909C26.3053 41.698 25.509 43.6063 24.6045 45.4862V45.4919Z" fill="#ED1C24"/>
<path d="M52.324 22.2341C51.9941 21.3312 51.6414 20.3659 51.2773 19.3666C56.0953 18.4921 60.9076 18.5432 65.7256 19.5142C65.3673 20.5306 65.026 21.5016 64.7131 22.376C62.6255 22.2113 60.5663 21.9501 58.5072 21.9218C56.4651 21.899 54.423 22.1148 52.3183 22.2284L52.324 22.2341Z" fill="#ED1C24"/>
<path d="M22.0674 70.8842C23.1254 70.6456 24.1265 70.4185 25.1732 70.1799C26.6806 73.9567 28.7682 77.4098 31.4417 80.471C30.6567 81.1809 29.9002 81.8738 29.1038 82.5894C26.1402 79.2329 23.7682 75.2914 22.0674 70.8785V70.8842Z" fill="#ED1C24"/>
<path d="M85.9131 35.1325C86.5729 34.4226 87.2726 33.6672 88.0007 32.8892C90.9359 36.4899 93.1657 40.4825 94.6731 44.9124C93.5866 45.0828 92.5798 45.2418 91.6355 45.3895C90.7823 43.6061 90.0144 41.7944 89.0644 40.0849C88.1202 38.3925 86.9882 36.8079 85.9131 35.1325Z" fill="#ED1C24"/>
<path d="M51.8291 95.2312C52.0851 94.1865 52.3297 93.2155 52.5856 92.1764C56.5276 92.8067 60.481 92.7669 64.4514 92.0571C64.696 93.0792 64.935 94.0729 65.1795 95.112C60.7484 95.9581 56.3172 95.9921 51.8291 95.2369V95.2312Z" fill="#ED1C24"/>
<path d="M87.4598 82.2999C86.6805 81.5673 85.9524 80.8744 85.2471 80.2156C86.3278 78.6367 87.4996 77.0862 88.4894 75.4335C89.4735 73.7922 90.2812 72.0429 91.1743 70.3164C92.1072 70.4981 93.1083 70.6969 94.1891 70.9127C92.6191 75.1041 90.3665 78.8866 87.4541 82.2999H87.4598Z" fill="#ED1C24"/>
<path d="M73.3359 63.9612C73.5635 64.7561 73.8024 65.4943 73.9673 66.2495C74.0015 66.3971 73.7455 66.7719 73.6203 66.7719C71.5953 66.806 69.576 66.7946 67.568 66.7946C67.3006 65.7555 67.3461 65.6703 68.2961 65.3978C69.9286 64.9322 71.5612 64.4665 73.3416 63.9612H73.3359Z" fill="white"/>
<path d="M47.0903 66.7945C46.4589 66.7945 45.8958 66.7945 45.3326 66.7945C43.9333 66.7945 42.534 66.7775 41.1347 66.8058C40.691 66.8115 40.5089 66.6355 40.6 66.2437C40.7706 65.4885 40.9924 64.7447 41.2086 63.9497C43.1768 64.5232 44.9913 65.0172 46.7888 65.585C47.4032 65.7781 46.9595 66.3402 47.0903 66.7945Z" fill="white"/>
<path d="M37.0508 25.807C37.2157 25.3073 37.4091 24.9779 37.9268 24.9097C38.1145 24.887 38.3989 24.603 38.4046 24.4326C38.4274 23.7738 39.0019 23.5523 39.3261 23.1434C39.383 23.0753 39.5252 22.9958 39.5821 23.0242C40.1395 23.2911 40.3841 22.8424 40.6856 22.5471C41.3796 21.8656 42.0394 21.1443 42.7675 20.5025C43.0178 20.281 43.4387 20.264 43.7744 20.1277C44.1612 19.9743 44.5537 19.8153 44.9234 19.6165C45.0713 19.537 45.1566 19.3439 45.3102 19.1565C45.5207 19.3553 45.6742 19.5029 45.788 19.6108C45.4865 20.0936 45.2135 20.5366 44.9461 20.9739C44.9177 21.025 44.8722 21.0932 44.8893 21.1386C45.1054 21.8826 44.5593 22.2461 44.1384 22.6664C43.5525 23.257 42.9609 23.8363 42.375 24.427C42.1134 24.6882 41.9939 24.9608 41.92 25.3754C41.8346 25.8298 41.2032 26.1819 40.7994 26.5738C40.5605 26.8009 40.185 26.9656 40.0713 27.2383C39.7925 27.9141 39.3659 28.0674 38.854 27.562C38.251 26.9656 37.6424 26.375 37.0565 25.807H37.0508ZM41.5616 24.4042C42.4433 23.5239 43.2965 22.6607 44.1612 21.8088C44.5138 21.4623 44.2124 21.2692 43.9962 21.0761C43.78 20.8773 43.6094 20.4741 43.2169 20.8603C42.3466 21.7236 41.4649 22.5812 40.6287 23.4104C40.9643 23.7682 41.2374 24.0635 41.5616 24.4099V24.4042Z" fill="white"/>
<path d="M36.8916 26.2332C37.4945 26.8408 38.1487 27.4997 38.8996 28.255C38.399 28.7264 37.8245 29.2603 37.267 29.8055C36.903 30.1576 36.573 30.5438 36.2033 30.8902C35.6402 31.4071 34.986 31.5207 34.4229 31.1799C34.2693 31.089 34.2067 30.8562 34.0986 30.6915C34.2807 30.6744 34.457 30.646 34.639 30.6517C34.9519 30.6631 35.2704 30.6971 35.5833 30.7199C35.5947 30.6574 35.606 30.5892 35.6174 30.5268C35.5378 30.4813 35.4468 30.3791 35.3728 30.3905C34.9348 30.4473 34.6333 30.1292 34.5764 29.7033C34.5423 29.4306 34.2977 29.1808 34.1669 28.9593C35.0713 28.0562 35.9985 27.1305 36.8916 26.2388V26.2332Z" fill="white"/>
<path d="M79.024 86.7922C78.8022 87.116 78.6941 87.3942 78.495 87.5305C77.6474 88.1212 76.7714 88.6721 75.9068 89.2457C75.7475 89.3536 75.594 89.4729 75.3664 89.6376C77.0331 89.8364 78.1537 90.6201 78.6429 92.1479C79.1833 93.8403 78.2959 95.6805 76.6577 96.3677C75.0365 97.0492 73.1707 96.4131 72.2834 94.874C71.4074 93.3576 71.7771 91.3698 73.239 90.3702C75.0251 89.1378 76.8738 87.9963 78.6998 86.8206C78.7282 86.8036 78.7794 86.815 79.0297 86.7922H79.024ZM78.0285 93.1418C78.0172 91.6197 76.7942 90.4157 75.264 90.4384C73.7737 90.4611 72.5678 91.6822 72.5791 93.1645C72.5905 94.6468 73.8078 95.8679 75.2925 95.8792C76.7999 95.8906 78.0399 94.6525 78.0342 93.1418H78.0285Z" fill="white"/>
<path d="M79.3887 92.8464C79.4797 92.5283 79.5024 92.1705 79.6674 91.9036C80.259 90.9381 80.8961 90.001 81.5559 89.0071C81.2943 88.9617 81.0838 88.9389 80.879 88.8878C79.8836 88.6493 79.309 87.6441 79.6162 86.6842C79.9234 85.7131 80.97 85.2133 81.9143 85.5824C82.8529 85.9516 83.3534 87.0761 82.8301 87.9394C81.8062 89.6318 80.6856 91.2675 79.6048 92.9316L79.3944 92.852L79.3887 92.8464ZM81.2487 88.4164C81.9313 88.4335 82.5002 87.8826 82.5059 87.2067C82.5115 86.5366 81.9427 85.963 81.2658 85.9686C80.6117 85.9686 80.0713 86.4968 80.0428 87.1556C80.0144 87.8372 80.5548 88.3994 81.2431 88.4164H81.2487Z" fill="white"/>
<path d="M73.0229 26.6874C73.0229 27.0111 73.0797 27.3065 73.0058 27.562C72.9489 27.7722 72.7328 27.9312 72.5849 28.1129C72.4199 27.9482 72.1127 27.7835 72.1127 27.6132C72.0729 26.199 72.0786 24.7791 72.1127 23.3593C72.1127 23.1946 72.3971 23.0356 72.545 22.8766C72.7043 23.0469 72.9262 23.1889 73.0058 23.3934C73.0854 23.6035 73.0229 23.8648 73.0229 24.1374H73.6998C73.7168 23.7341 73.7339 23.3593 73.7567 22.9163C74.3369 22.9845 74.7521 22.797 75.0991 22.3143C75.2356 22.1212 75.6736 22.1439 76.1287 22.0303C76.0149 21.8997 75.9011 21.7861 75.8044 21.6612C75.6679 21.4908 75.5371 21.309 75.4006 21.133C75.5826 21.0137 75.7646 20.7922 75.9523 20.7865C76.925 20.7525 77.8977 20.7525 78.8704 20.7865C79.0525 20.7922 79.2288 21.0137 79.4051 21.1387C79.2572 21.3147 79.115 21.5021 78.9501 21.6668C78.842 21.7691 78.6998 21.8372 78.569 21.9167C78.7112 21.9906 78.8591 22.1382 78.9842 22.1212C79.5132 22.0474 79.8318 22.2916 80.0422 22.7346C80.2299 23.1264 80.5144 23.2912 80.958 23.2571C81.1116 23.2457 81.2766 23.4388 81.4415 23.5297C81.5667 23.5978 81.6861 23.7001 81.817 23.7171C82.073 23.7455 82.3403 23.7285 82.6532 23.7285V28.2606H81.2311C80.759 28.8001 80.3949 29.2488 79.991 29.6577C79.883 29.7656 79.6668 29.8054 79.4961 29.8111C78.9273 29.8281 78.3585 29.7827 77.7953 29.8281C77.1184 29.8849 76.5894 29.7543 76.2083 29.1182C76.1059 28.9478 75.7305 28.8797 75.4802 28.874C74.2914 28.8569 73.7567 28.3344 73.7225 27.1247C73.7225 26.9884 73.6941 26.8521 73.677 26.6931H73.0172L73.0229 26.6874ZM74.6326 23.9443C74.6326 24.9211 74.6326 25.915 74.6326 26.9089C74.6326 27.8403 74.7805 27.9596 75.7305 27.9994C76.0604 28.0107 76.5439 28.0675 76.6861 28.2833C77.0729 28.8683 77.5564 28.9989 78.1822 28.9365C78.4666 28.9081 78.751 28.9365 79.0354 28.9365C79.5815 28.9308 80.0138 28.5275 80.065 27.9766C80.082 27.8006 80.0934 27.6245 80.1162 27.3803H81.7772V24.7053C81.3221 24.5236 80.6623 24.8927 80.4575 24.1771C79.7635 24.2794 79.6327 23.666 79.3027 23.2911C79.189 23.1662 78.9671 23.0753 78.7908 23.0697C78.0798 23.0469 77.3687 23.0753 76.6577 23.0526C76.0547 23.0356 75.4916 23.0185 75.1446 23.6603C75.0707 23.8023 74.8204 23.8534 74.627 23.9556L74.6326 23.9443Z" fill="white"/>
<path d="M37.3858 92.199C37.1583 92.1251 36.9307 92.0513 36.6406 91.9604C36.7601 91.489 36.8738 91.0461 36.9933 90.5803C37.2891 90.6371 37.5394 90.6883 37.7783 90.7394C38.1082 90.3021 38.4268 89.8875 38.7737 89.4331C38.6714 89.2343 38.5462 89.0128 38.404 88.7402C38.8192 88.496 39.2117 88.2632 39.6327 88.0189C39.8033 88.2688 39.9455 88.479 40.082 88.6777C40.5428 88.621 41.0036 88.621 41.4131 88.4847C41.652 88.4051 41.817 88.0928 42.1185 87.769C42.3915 87.8372 42.8295 87.9394 43.3301 88.0644C42.7783 89.257 44.1037 89.2059 44.3824 89.8818C44.6725 89.7341 44.9 89.6205 45.1788 89.4785C45.4177 89.8875 45.6509 90.2793 45.9183 90.7337C45.2186 90.9381 45.2698 91.3755 45.338 91.9548C45.412 92.5397 45.4803 92.9714 46.2254 92.9714C46.0946 93.4768 45.9808 93.8971 45.8557 94.3685C45.5713 94.3231 45.321 94.2833 45.065 94.2379C44.7465 94.6525 44.4279 95.067 44.0752 95.5271C44.1719 95.7202 44.2857 95.9474 44.4393 96.237C44.0411 96.4699 43.6486 96.7027 43.2106 96.9583C42.7556 95.7429 41.8568 96.6914 41.1856 96.4244C41.0775 96.7311 40.9922 96.9753 40.8898 97.2707C40.4347 97.1514 39.991 97.0321 39.4962 96.9015C40.0991 95.6634 38.6657 95.7997 38.4779 95.0727C38.1708 95.2374 37.9603 95.351 37.6873 95.493C37.4427 95.0898 37.2038 94.7036 36.9421 94.2833C37.1753 94.1243 37.3915 93.9766 37.6076 93.8289C37.5394 93.3121 37.4654 92.7953 37.3858 92.2103V92.199ZM43.1822 92.4602C43.1765 91.4777 42.3631 90.6826 41.3904 90.7053C40.412 90.728 39.627 91.5515 39.6554 92.5227C39.6782 93.4825 40.4575 94.2322 41.4245 94.2322C42.4199 94.2322 43.1936 93.4541 43.1822 92.4602Z" fill="white"/>
<path d="M36.5441 85.7414C36.4873 86.3036 37.022 86.7239 37.5396 86.4967C37.9947 86.3036 38.2051 86.457 38.3815 86.8659C38.5578 87.2805 38.5066 87.5361 38.0629 87.7292C37.5055 87.9677 37.4315 88.6038 37.9093 88.99C38.262 89.2739 38.2506 89.5238 37.989 89.8589C37.7216 90.1997 37.4884 90.3417 37.0845 90.0407C36.5897 89.6715 35.981 89.9157 35.9014 90.5177C35.8331 91.0232 35.5658 91.0913 35.1448 91.0345C34.6954 90.9778 34.5077 90.7903 34.5874 90.3076C34.6784 89.7624 34.1266 89.3364 33.609 89.5522C33.171 89.734 32.9435 89.6261 32.7671 89.1944C32.5794 88.7458 32.6534 88.4902 33.1312 88.3028C33.6147 88.1097 33.7057 87.4168 33.2848 87.1044C32.8752 86.7977 32.8809 86.5365 33.1824 86.1503C33.4725 85.7811 33.7171 85.7414 34.0868 86.0367C34.5191 86.3775 35.1676 86.1162 35.2358 85.5767C35.2927 85.111 35.4804 84.9463 35.9583 85.0201C36.4247 85.0882 36.692 85.2473 36.5555 85.7414H36.5441ZM36.2597 88.1551C36.2597 88.0642 36.2597 87.9734 36.2597 87.8825C36.0265 87.7235 35.7705 87.4168 35.5601 87.4452C35.3325 87.4736 35.1448 87.8143 34.94 88.0188C35.1448 88.2233 35.3325 88.5583 35.5601 88.5867C35.7705 88.6151 36.0265 88.3141 36.2597 88.1608V88.1551Z" fill="white"/>
<path d="M25.5542 61.4678C22.6077 61.4678 19.7692 61.4735 16.9251 61.4508C16.7487 61.4508 16.5212 61.2236 16.4131 61.0419C15.5257 59.5198 14.6611 57.9807 13.7908 56.4472C13.4211 55.7941 13.3756 55.7828 12.9489 56.3621C12.7555 56.6233 12.5735 56.7028 12.2891 56.5154C11.9933 56.3223 12.016 56.1008 12.1981 55.8452C13.0286 54.6526 12.5735 54.7775 13.9159 55.1751C15.1617 55.5442 16.396 55.9361 17.6304 56.3507C17.9831 56.47 18.2561 56.4586 18.4723 56.1406C18.8022 55.6465 19.28 55.5215 19.8432 55.5783C20.1446 55.6124 20.4518 55.5669 20.759 55.5897C23.569 55.7884 26.2937 55.4193 28.9501 54.4538C29.8773 54.1187 30.2641 54.4538 30.2641 55.459C30.2641 55.8055 30.2641 56.1462 30.2641 56.4927C30.2641 57.4468 30.0537 57.7137 29.1435 57.9409C27.966 58.2362 26.7829 58.5373 25.5542 58.8439V61.4678ZM24.5872 60.5705V56.4813C23.057 56.4813 21.5781 56.4984 20.0991 56.47C19.6156 56.4586 19.2174 56.5381 18.9387 56.9527C18.5803 57.4809 18.1424 57.4979 17.5735 57.2821C16.7146 56.9584 15.8215 56.7255 14.8261 56.4132C15.6111 57.7933 16.305 59.0484 17.0388 60.2808C17.1298 60.4398 17.4256 60.5478 17.6304 60.5534C18.6259 60.5818 19.6156 60.5648 20.6111 60.5648C21.9251 60.5648 23.2391 60.5648 24.5872 60.5648V60.5705ZM29.2914 55.2943C28.1196 55.6294 26.9763 55.9475 25.8386 56.2882C25.7192 56.3223 25.5656 56.487 25.5599 56.6063C25.5258 57.0152 25.5485 57.4298 25.5485 57.9012C26.4586 57.674 27.2607 57.4809 28.0628 57.2764C28.9767 57.0455 29.409 56.451 29.3597 55.4931C29.3597 55.4534 29.3369 55.4193 29.3028 55.2943H29.2914Z" fill="white"/>
<path d="M12.3518 57.3162C12.6931 58.009 13.0344 58.6279 13.3017 59.2752C13.6032 60.002 13.3359 60.6664 12.676 60.7572C12.3176 60.8083 11.7716 60.7231 11.5952 60.4847C11.3734 60.1951 11.3108 59.6386 11.4189 59.2695C11.6237 58.6109 12.0105 58.0033 12.3518 57.3105V57.3162Z" fill="white"/>
<path d="M22.0388 55.2317C21.4699 55.2317 20.9011 55.226 20.338 55.2317C20.0137 55.2317 19.8431 55.1238 19.8488 54.7774C19.8488 54.4481 20.0024 54.3004 20.3323 54.3061C21.487 54.3061 22.6417 54.2891 23.7965 54.3288C23.9614 54.3345 24.2117 54.5957 24.2629 54.7831C24.3596 55.1067 24.1207 55.243 23.8021 55.2373C23.2162 55.2317 22.6247 55.2373 22.0388 55.2373V55.2317Z" fill="white"/>
<path d="M95.1619 54.7206C96.948 54.7206 98.7342 54.732 100.52 54.715C101.089 54.7093 101.328 54.9194 101.328 55.4987C101.311 57.407 101.317 59.3096 101.334 61.2178C101.334 61.7687 101.112 61.9732 100.566 61.9732C96.9537 61.9618 93.336 61.9618 89.7239 61.9732C89.1835 61.9732 88.9446 61.7801 88.9503 61.2292C88.9674 59.3039 88.9731 57.3786 88.956 55.4533C88.956 54.8853 89.212 54.715 89.741 54.7206C91.5498 54.7377 93.353 54.7263 95.1619 54.7263V54.7206ZM94.4623 60.0479C94.4964 60.0706 94.5305 60.0933 94.5647 60.116C95.2302 59.3834 95.8957 58.6508 96.6523 57.8216H95.3496V56.22C95.3098 56.22 95.27 56.22 95.2302 56.2143C94.7012 57.0492 94.1778 57.8841 93.609 58.7814C93.9958 58.8098 94.303 58.8325 94.6386 58.8552C94.576 59.2982 94.5192 59.6787 94.468 60.0536L94.4623 60.0479Z" fill="white"/>
<path d="M99.2576 53.8236C99.4794 53.8236 99.7127 53.7781 99.9231 53.8406C100.082 53.886 100.202 54.0621 100.338 54.1813C100.213 54.2892 100.094 54.4766 99.9573 54.4879C99.4965 54.5277 99.0244 54.5277 98.5636 54.4879C98.4385 54.4766 98.3304 54.2721 98.2109 54.1586C98.3361 54.0507 98.4499 53.886 98.5921 53.8463C98.8025 53.7952 99.0357 53.8349 99.2576 53.8349V53.8236Z" fill="white"/>
<path d="M90.992 54.4991C90.7701 54.4991 90.5369 54.5388 90.3321 54.4877C90.1899 54.4537 90.0761 54.2947 89.9453 54.1868C90.0591 54.0675 90.1615 53.8574 90.2809 53.8461C90.7644 53.8063 91.2479 53.812 91.7314 53.8461C91.8452 53.8518 92.0557 54.0675 92.0329 54.1357C91.9874 54.2776 91.8452 54.448 91.7144 54.482C91.4868 54.5388 91.2366 54.4991 90.992 54.4991Z" fill="white"/>
<path d="M76.8512 52.131C76.8512 56.1122 73.6771 59.2927 69.6953 59.287C65.7306 59.287 62.5394 56.0781 62.5508 52.1083C62.5622 48.1838 65.7647 45.0147 69.7124 45.009C73.6544 45.009 76.8455 48.1895 76.8455 52.1253L76.8512 52.131ZM70.1276 56.5893C72.8239 56.5836 75.0878 54.5788 75.2414 52.1991C75.2528 52.0174 75.1561 51.83 75.1106 51.6482C74.9399 51.7277 74.7295 51.7732 74.5986 51.8981C74.0583 52.4206 73.5634 52.9886 73.0116 53.494C72.858 53.636 72.5508 53.7326 72.3461 53.6871C71.3734 53.4827 70.412 53.2385 69.4564 52.9658C69.2573 52.9091 69.0241 52.6762 68.9615 52.4774C68.6544 51.5346 68.387 50.5805 68.1481 49.615C68.1026 49.4276 68.1765 49.1379 68.3017 48.9903C68.7966 48.428 69.3483 47.9169 69.8489 47.3603C69.9911 47.2013 70.0366 46.9571 70.1276 46.7526C69.9001 46.7185 69.6612 46.6277 69.445 46.6617C67.073 47.0252 65.1731 49.1323 65.304 51.5403C65.3665 52.6478 65.0594 53.3634 64.2687 54.0165C64.1322 54.1301 64.0696 54.4993 64.1492 54.6697C64.7636 56.0611 65.7818 57.0607 67.1583 57.7138C67.4712 57.8615 67.6703 57.8274 67.8921 57.5718C68.5235 56.8449 69.1606 56.0895 70.1276 56.5893Z" fill="white"/>
<path d="M41.5608 24.4035C41.2366 24.0571 40.9635 23.7675 40.6279 23.4041C41.4641 22.5808 42.3401 21.7234 43.2161 20.8546C43.6029 20.4685 43.7793 20.8716 43.9954 21.0704C44.2116 21.2691 44.5074 21.4622 44.1604 21.8029C43.2957 22.6546 42.4425 23.5177 41.5608 24.3978V24.4035Z" fill="black"/>
<path d="M78.0294 93.1417C78.0408 94.6524 76.795 95.8905 75.2876 95.8792C73.803 95.8678 72.5857 94.6467 72.5743 93.1644C72.5629 91.6821 73.7688 90.4553 75.2592 90.4383C76.7893 90.4156 78.018 91.6139 78.0237 93.1417H78.0294ZM75.2364 94.8455C76.1864 94.8796 76.9714 94.1697 77.0225 93.2269C77.0681 92.3068 76.3172 91.4947 75.3843 91.4435C74.4514 91.3981 73.6437 92.1421 73.6153 93.0792C73.5811 94.0447 74.2865 94.8114 75.2364 94.8455Z" fill="black"/>
<path d="M81.2482 88.4161C80.5599 88.399 80.0195 87.8369 80.0479 87.1555C80.0764 86.4968 80.6168 85.9688 81.2709 85.9688C81.9421 85.9688 82.5167 86.5366 82.511 87.2066C82.5053 87.888 81.9365 88.4331 81.2539 88.4161H81.2482ZM81.1515 88.0129C81.2482 88.0129 81.3392 88.0129 81.4359 88.0072C81.6179 87.7404 81.908 87.4962 81.9535 87.2066C82.0275 86.7637 81.7032 86.4855 81.2539 86.4968C80.7988 86.5082 80.4973 86.8035 80.5883 87.2407C80.6509 87.5246 80.9524 87.7574 81.1458 88.0129H81.1515Z" fill="black"/>
<path d="M74.6328 23.9444C74.8262 23.8365 75.0708 23.791 75.1505 23.6491C75.4974 23.0073 76.0606 23.0243 76.6635 23.0414C77.3746 23.0641 78.0856 23.03 78.7967 23.0584C78.973 23.0641 79.1948 23.1493 79.3086 23.2799C79.6385 23.6547 79.7694 24.2681 80.4633 24.1659C80.6681 24.8815 81.328 24.5123 81.783 24.6941V27.3691H80.122C80.0993 27.6189 80.0879 27.795 80.0708 27.9654C80.0196 28.5106 79.5873 28.9195 79.0412 28.9252C78.7568 28.9252 78.4724 28.9025 78.188 28.9252C77.5623 28.9877 77.0731 28.8627 76.692 28.2721C76.5498 28.0563 76.0663 28.0051 75.7363 27.9881C74.7921 27.954 74.6385 27.8291 74.6385 26.8977C74.6385 25.9038 74.6385 24.9099 74.6385 23.933L74.6328 23.9444Z" fill="black"/>
<path d="M43.1825 92.4599C43.1882 93.4536 42.4203 94.2315 41.4248 94.2315C40.4578 94.2315 39.6785 93.482 39.6558 92.5223C39.633 91.5457 40.418 90.728 41.3907 90.7053C42.3634 90.6826 43.1768 91.4775 43.1825 92.4599Z" fill="black"/>
<path d="M36.2591 88.155C36.0259 88.3084 35.7699 88.6093 35.5595 88.5809C35.3319 88.5525 35.1442 88.2175 34.9395 88.0131C35.1442 87.8087 35.3319 87.468 35.5595 87.4396C35.7699 87.4112 36.0259 87.7178 36.2591 87.8768C36.2591 87.9677 36.2591 88.0585 36.2591 88.1494V88.155Z" fill="black"/>
<path d="M24.5873 60.5706C23.2392 60.5706 21.9252 60.5706 20.6112 60.5706C19.6157 60.5706 18.626 60.5876 17.6305 60.5592C17.4257 60.5535 17.1299 60.4456 17.0389 60.2866C16.3051 59.0542 15.6112 57.799 14.8262 56.4189C15.8273 56.7313 16.7147 56.9698 17.5736 57.2879C18.1425 57.5037 18.5805 57.481 18.9388 56.9585C19.2175 56.5496 19.6157 56.4644 20.0992 56.4757C21.5782 56.5041 23.0571 56.4871 24.5873 56.4871V60.5763V60.5706Z" fill="black"/>
<path d="M29.292 55.2944C29.3261 55.4194 29.3489 55.4534 29.3489 55.4932C29.3982 56.4471 28.9659 57.0414 28.0519 57.2761C27.2499 57.4805 26.4478 57.6736 25.5377 57.9007C25.5377 57.4294 25.5149 57.0149 25.5491 56.6061C25.5605 56.4925 25.7084 56.3222 25.8278 56.2881C26.9655 55.9474 28.1088 55.6294 29.2806 55.2944H29.292Z" fill="black"/>
<path d="M94.4683 60.048C94.5195 59.6732 94.5764 59.2983 94.639 58.8497C94.3033 58.8269 93.9962 58.8042 93.6094 58.7758C94.1782 57.8785 94.7015 57.0436 95.2305 56.2087C95.2704 56.2087 95.3102 56.2087 95.35 56.2144V57.816H96.6526C95.8961 58.6452 95.2305 59.3778 94.565 60.1105C94.5309 60.0878 94.4968 60.065 94.4626 60.0423L94.4683 60.048Z" fill="black"/>
<path d="M70.1277 56.5894C69.1607 56.0896 68.5293 56.8449 67.8922 57.5719C67.6703 57.8275 67.4713 57.8615 67.1584 57.7139C65.7818 57.0608 64.7636 56.0612 64.1493 54.6697C64.0697 54.4937 64.1379 54.1245 64.2687 54.0166C65.0594 53.3635 65.3666 52.6479 65.304 51.5404C65.1732 49.1323 67.0731 47.0253 69.4451 46.6618C69.6613 46.6277 69.9002 46.7186 70.1277 46.7527C70.0367 46.9571 69.9912 47.2014 69.849 47.3604C69.3484 47.917 68.7966 48.4281 68.3018 48.9904C68.1766 49.138 68.1027 49.4277 68.1482 49.6151C68.3871 50.5749 68.6544 51.5347 68.9616 52.4775C69.0242 52.6763 69.2574 52.9091 69.4565 52.9659C70.4121 53.2442 71.3734 53.4827 72.3461 53.6872C72.5509 53.7326 72.8581 53.6361 73.0117 53.4941C73.5634 52.9886 74.0583 52.4207 74.5987 51.8982C74.7295 51.7733 74.94 51.7335 75.1106 51.6483C75.1562 51.83 75.2529 52.0175 75.2415 52.1992C75.0879 54.5845 72.824 56.5837 70.1277 56.5894Z" fill="black"/>
<path d="M75.2356 94.8449C74.2857 94.8108 73.5803 94.0386 73.6145 93.0789C73.6486 92.1477 74.4563 91.3982 75.3835 91.4436C76.3164 91.489 77.0673 92.3067 77.0218 93.2266C76.9763 94.1692 76.1913 94.8789 75.2356 94.8449Z" fill="white"/>
<path d="M81.1518 88.013C80.9584 87.7575 80.6569 87.5247 80.5943 87.2408C80.5033 86.8035 80.8048 86.5083 81.2599 86.4969C81.7093 86.4856 82.0335 86.7638 81.9595 87.2067C81.914 87.4963 81.6239 87.7404 81.4419 88.0073C81.3452 88.0073 81.2542 88.0073 81.1575 88.013H81.1518Z" fill="white"/>
</svg>
