<svg width="101" height="108" viewBox="0 0 101 108" fill="none" xmlns="http://www.w3.org/2000/svg">
<g clip-path="url(#clip0_205_1551)">
<path d="M33.8957 11.6735C34.4184 9.73257 34.893 7.88802 35.4088 6.05724C35.5326 5.61675 35.7251 5.16937 35.9933 4.81148C40.8832 -1.63756 51.2681 -1.58938 56.1236 4.9216C56.5019 5.43092 56.6325 6.16736 56.7632 6.82121C57.0933 8.39734 57.3547 9.99411 57.6641 11.6804C58.1387 11.6804 58.5582 11.6804 58.9846 11.6804C67.5333 11.6804 76.0819 11.6804 84.6237 11.6804C89.1628 11.6804 91.6937 14.2201 91.6937 18.7626C91.6937 36.2789 91.6937 53.7953 91.6799 71.3116C91.6799 72.1031 91.8725 72.5849 92.5671 73.0598C99.2314 77.5817 102.237 85.4623 100.304 93.1571C98.4129 100.687 91.7969 106.365 83.9291 107.212C75.2291 108.148 66.8937 102.841 64.0946 94.513C63.7988 93.6252 63.3999 93.398 62.5196 93.398C44.5901 93.4256 26.6607 93.4187 8.73119 93.4118C4.6116 93.4118 1.37921 91.0098 0.450754 87.2174C0.251309 86.3915 0.203166 85.5105 0.203166 84.6502C0.196289 62.6326 0.196289 40.6219 0.196289 18.6112C0.196289 14.2201 2.76845 11.6804 7.18376 11.6735C11.5303 11.6735 15.8768 11.6735 20.2303 11.6735C24.7487 11.6735 29.2672 11.6735 33.8889 11.6735H33.8957ZM20.5948 15.0597C15.9938 15.0597 11.5784 15.0597 7.15625 15.0597C4.41903 15.0597 3.5456 15.9338 3.5456 18.6594C3.5456 40.6632 3.5456 62.6739 3.5456 84.6777C3.5456 88.1259 5.43002 90.0186 8.86186 90.0186C26.5369 90.0186 44.2119 90.0186 61.8869 90.0186H63.0904C62.8772 83.2117 65.2362 77.6781 70.5731 73.6379C75.9031 69.6047 81.8796 68.8752 88.2619 70.7885C88.2894 70.4444 88.3238 70.2035 88.3238 69.9557C88.3238 52.6941 88.3238 35.4324 88.3238 18.1776C88.3238 16.0577 87.3265 15.0735 85.2152 15.0666C80.8686 15.0529 76.5221 15.0666 72.1755 15.0666C71.9004 15.0666 71.6253 15.1148 71.2746 15.1492C71.2746 17.7233 71.2746 20.2355 71.2746 22.7477C71.2746 24.6748 70.8757 25.074 68.9363 25.074C53.634 25.074 38.3317 25.074 23.0225 25.074C20.9868 25.074 20.5948 24.6748 20.5948 22.5962C20.5948 20.1254 20.5948 17.6545 20.5948 15.0666V15.0597ZM66.4535 88.5045C66.4398 97.0114 73.3997 103.949 81.9759 103.963C90.4833 103.977 97.5051 97.0527 97.5395 88.6284C97.5739 80.1145 90.6139 73.1562 82.0447 73.1424C73.4272 73.1286 66.4673 79.9837 66.4535 88.5045ZM67.9528 15.1354H58.2969C58.4413 15.8857 58.5788 16.5533 58.6889 17.2209C58.8883 18.3909 58.3037 19.3958 57.3409 19.5679C56.4056 19.7331 55.5253 18.9622 55.3052 17.7853C55.1401 16.8836 54.9819 15.982 54.8238 15.1079H36.571C36.2684 16.216 36.0209 17.2966 35.6839 18.3565C35.3469 19.4233 34.2671 19.9739 33.3043 19.6505C32.4377 19.3614 32.1145 18.5699 32.3964 17.448C32.5821 16.6909 32.7678 15.9338 32.9604 15.1217H24.0541V21.6877H67.8909C67.9115 21.3505 67.9528 21.0683 67.9528 20.793C67.9528 18.9347 67.9528 17.0695 67.9528 15.1423V15.1354ZM54.2186 11.6253C53.9847 10.2625 53.8334 9.00989 53.5239 7.79855C53.3657 7.17911 53.0494 6.51149 52.5955 6.071C50.8555 4.3641 48.6753 3.4143 46.2751 3.52442C40.3124 3.79285 37.9397 6.56655 37.6577 11.6253H54.2117H54.2186Z" fill="black"/>
<path d="M20.5882 15.0594C20.5882 17.6472 20.5882 20.1181 20.5882 22.589C20.5882 24.6607 20.9802 25.0667 23.016 25.0667C38.3183 25.0667 53.6206 25.0667 68.9297 25.0667C70.8692 25.0667 71.2612 24.6675 71.2681 22.7404C71.2681 20.2282 71.2681 17.723 71.2681 15.142C71.6257 15.1076 71.9008 15.0594 72.169 15.0594C76.5155 15.0594 80.8621 15.0456 85.2086 15.0594C87.3131 15.0594 88.3172 16.0505 88.3172 18.1703C88.3241 35.432 88.3172 52.6937 88.3172 69.9485C88.3172 70.1963 88.2828 70.444 88.2553 70.7813C81.8662 68.8679 75.8966 69.6044 70.5666 73.6307C65.2297 77.6708 62.8638 83.2045 63.0839 90.0114H61.8804C44.2053 90.0114 26.5303 90.0114 8.85532 90.0114C5.42348 90.0114 3.53906 88.1187 3.53906 84.6705C3.53906 62.6666 3.53906 40.6559 3.53906 18.6521C3.53906 15.9197 4.4125 15.0525 7.14972 15.0525C11.565 15.0525 15.9872 15.0525 20.5882 15.0525V15.0594ZM66.275 37.2353C66.2475 42.2665 70.2227 46.3135 75.2226 46.3548C80.2019 46.3961 84.2733 42.3904 84.3352 37.3798C84.3971 32.4105 80.3532 28.3016 75.367 28.2672C70.3602 28.2328 66.3026 32.2385 66.275 37.2353ZM25.595 37.3179C25.6019 32.2798 21.5923 28.2534 16.5718 28.2603C11.5994 28.2672 7.61051 32.2522 7.583 37.2421C7.54861 42.2734 11.5444 46.3341 16.5512 46.3548C21.5579 46.3754 25.5881 42.3491 25.595 37.3179ZM45.1682 57.6079C45.1819 52.556 41.1999 48.5366 36.1725 48.5297C31.152 48.5297 27.1149 52.5629 27.1218 57.5735C27.1218 62.529 31.1245 66.5622 36.09 66.6104C41.083 66.6655 45.1544 62.6254 45.1682 57.601V57.6079ZM16.5718 85.0146C18.3324 85.0146 20.0931 85.0146 21.8537 85.0146C23.4149 85.0077 23.9513 84.5053 23.9582 82.9636C23.9788 79.4741 23.9788 75.9846 23.9582 72.5019C23.9513 71.0015 23.4286 70.4922 21.9362 70.4853C18.3806 70.4716 14.8249 70.4716 11.2693 70.4853C9.75627 70.4853 9.23358 70.9878 9.21983 72.4744C9.19919 75.9983 9.19919 79.5223 9.21983 83.0462C9.2267 84.5191 9.7769 85.0146 11.2899 85.0215C13.0506 85.0284 14.8112 85.0215 16.5718 85.0215V85.0146ZM16.6062 50.2228C14.8112 50.2228 13.0162 50.2159 11.2143 50.2228C9.77002 50.2297 9.2267 50.7253 9.21983 52.1431C9.19919 55.7014 9.19919 59.2597 9.21983 62.8249C9.2267 64.2015 9.7769 64.7314 11.118 64.7383C14.7493 64.7521 18.3737 64.7521 22.005 64.7383C23.3736 64.7383 23.9375 64.2152 23.9513 62.8662C23.9788 59.2735 23.9788 55.6739 23.9513 52.0811C23.9375 50.739 23.3736 50.2366 21.9912 50.2297C20.1962 50.2159 18.4012 50.2297 16.5993 50.2297L16.6062 50.2228ZM36.1863 85.0146C37.9813 85.0146 39.7763 85.0284 41.5713 85.0146C42.933 85.0008 43.4832 84.4846 43.4901 83.1288C43.5107 79.536 43.5107 75.9364 43.4901 72.3437C43.4832 71.0084 42.9743 70.4991 41.6676 70.4922C38.0019 70.4716 34.3362 70.4716 30.6774 70.4922C29.3432 70.4922 28.7999 71.0566 28.793 72.4194C28.7793 75.9777 28.7793 79.536 28.793 83.1012C28.793 84.4502 29.3638 85.0077 30.6912 85.0215C32.5206 85.0421 34.3569 85.0215 36.1863 85.0215V85.0146ZM75.2295 64.7452C77.0245 64.7452 78.8195 64.7521 80.6145 64.7452C82.1069 64.7383 82.6502 64.2152 82.6502 62.7561C82.664 59.2322 82.664 55.7083 82.6502 52.1844C82.6502 50.7665 82.1138 50.2366 80.6902 50.2297C77.1001 50.2159 73.5032 50.2159 69.9132 50.2297C68.4621 50.2297 67.96 50.7184 67.9531 52.1568C67.9394 55.7152 67.9394 59.2735 67.9531 62.8387C67.9531 64.2152 68.4758 64.7314 69.8376 64.7452C71.6326 64.7659 73.4276 64.7452 75.2226 64.7452H75.2295ZM36.145 29.9603C34.3156 29.9603 32.4793 29.9465 30.6499 29.9603C29.3776 29.9741 28.7999 30.5247 28.793 31.8049C28.7724 35.3976 28.7724 38.9972 28.793 42.59C28.793 43.8908 29.3501 44.462 30.6155 44.4689C34.3156 44.4896 38.0157 44.4896 41.7157 44.4689C42.9537 44.462 43.4832 43.9321 43.4901 42.6726C43.5176 39.0385 43.5107 35.4114 43.4901 31.7773C43.4832 30.4765 42.9399 29.9603 41.6401 29.9534C39.8107 29.9397 37.9744 29.9534 36.145 29.9534V29.9603ZM55.7801 50.2228C53.875 50.2228 51.97 50.2022 50.0718 50.2297C48.9714 50.2435 48.4006 50.801 48.3937 51.8953C48.3731 55.5982 48.3731 59.301 48.3937 63.0039C48.3937 64.1602 48.9714 64.7246 50.1337 64.7314C53.8681 64.7521 57.6026 64.7521 61.3439 64.7314C62.5062 64.7314 63.0702 64.1602 63.077 63.0039C63.0977 59.3354 63.0977 55.667 63.077 51.9985C63.077 50.7666 62.5268 50.2366 61.2889 50.2228C59.4595 50.2022 57.6232 50.2228 55.7938 50.2228H55.7801ZM55.7732 44.4827C57.5338 44.4827 59.2944 44.4965 61.0551 44.4827C62.5681 44.4689 63.0702 43.9803 63.0702 42.4867C63.077 38.9628 63.0839 35.4389 63.0702 31.915C63.0702 30.4834 62.5475 29.9603 61.1238 29.9603C57.5338 29.9534 53.9369 29.9534 50.3469 29.9603C48.9164 29.9603 48.3868 30.4834 48.38 31.9012C48.3662 35.4595 48.3662 39.0179 48.38 42.5831C48.38 43.939 48.9095 44.4689 50.2712 44.4896C52.1006 44.5102 53.9369 44.4896 55.7663 44.4896L55.7732 44.4827ZM55.7182 85.0077C57.5132 85.0077 59.3082 85.0146 61.1101 85.0077C62.5337 85.0008 63.0702 84.4709 63.077 83.0599C63.0908 79.536 63.0908 76.0121 63.077 72.4882C63.077 70.974 62.5887 70.4853 61.0826 70.4785C57.5269 70.4647 53.9713 70.4647 50.4157 70.4785C48.9026 70.4785 48.3937 70.9878 48.3937 72.4675C48.3868 75.9915 48.3868 79.5154 48.3937 83.0393C48.3937 84.4571 48.937 85.0008 50.34 85.0077C52.135 85.0215 53.93 85.0077 55.7319 85.0077H55.7182Z" fill="white"/>
<path d="M66.4531 88.4971C66.4669 79.9764 73.4337 73.1213 82.0443 73.135C90.6067 73.1488 97.5735 80.114 97.5392 88.621C97.5048 97.0454 90.4829 103.962 81.9755 103.956C73.3994 103.942 66.4394 97.0109 66.4531 88.4971ZM84.4652 90.0182C85.2217 90.0182 85.9713 90.0388 86.7278 90.0182C87.8557 89.9769 88.5228 89.2611 88.4953 88.1599C88.4747 87.1619 87.8557 86.5768 86.7485 86.5287C86.1364 86.508 85.5174 86.453 84.9191 86.5356C83.5092 86.742 82.6082 86.2602 81.9618 84.9388C81.3015 83.5967 80.3937 82.3715 79.5891 81.0983C78.7982 79.8525 77.9178 79.5565 76.9412 80.2035C76.0403 80.7954 75.9715 81.6833 76.7487 82.9359C77.6359 84.3675 78.6468 85.7372 79.3965 87.2376C80.4762 89.4056 81.893 90.7133 84.472 90.0113L84.4652 90.0182ZM80.2562 76.2047H80.3112C80.3112 76.4249 80.3043 76.6383 80.3112 76.8517C80.3662 78.0011 80.9783 78.648 82.003 78.6412C82.9796 78.6343 83.5986 78.0286 83.6605 76.9274C83.6949 76.2942 83.7912 75.5646 83.5367 75.0346C83.2891 74.5184 82.677 74.0091 82.1268 73.8508C81.4047 73.6375 80.717 74.0435 80.4625 74.8419C80.3249 75.2755 80.3249 75.7504 80.263 76.2047H80.2562ZM83.6742 100.521C83.6742 98.9381 83.3441 98.2154 82.3744 98.181C81.8036 98.1603 80.7857 98.4357 80.717 98.7454C80.4694 99.8122 80.435 100.975 80.5863 102.07C80.6344 102.414 81.501 102.834 82.0305 102.882C83.1928 102.985 83.6743 102.214 83.6811 100.528L83.6742 100.521ZM70.5383 89.9975C70.8616 89.9975 71.1848 90.0319 71.5081 89.9975C72.6016 89.8667 73.2274 88.8344 72.856 87.7813C72.5122 86.8246 71.735 86.6801 70.8547 86.7007C69.8987 86.7283 68.8534 86.5356 68.3995 87.74C67.8905 89.0959 68.7571 90.0113 70.5452 89.9975H70.5383ZM93.5915 86.7007C91.9616 86.7007 91.3632 87.0518 91.2326 88.1117C91.1019 89.1578 91.6452 89.8736 92.6631 89.9975C94.6713 90.2453 95.6616 89.8255 95.8267 88.6623C96.0124 87.3546 95.2765 86.7007 93.5915 86.6939V86.7007Z" fill="white"/>
<path d="M54.219 11.6249H37.665C37.9539 6.56613 40.3197 3.79243 46.2825 3.524C48.6827 3.41388 50.8628 4.36369 52.6028 6.07058C53.0499 6.51107 53.3731 7.17869 53.5313 7.79813C53.8408 9.00947 53.9852 10.2621 54.2259 11.6249H54.219Z" fill="white"/>
<path d="M66.2746 37.2352C66.3021 32.2315 70.3598 28.2327 75.3665 28.2671C80.3527 28.3015 84.3966 32.4173 84.3347 37.3797C84.2728 42.3903 80.2014 46.396 75.2221 46.3547C70.2222 46.3134 66.247 42.2595 66.2746 37.2352ZM75.2427 42.9753C78.4476 42.9959 80.9373 40.5526 80.9579 37.359C80.9716 34.1448 78.537 31.6671 75.339 31.6396C72.141 31.612 69.6445 34.0623 69.6032 37.2558C69.5688 40.4218 72.0516 42.9478 75.2359 42.9753H75.2427Z" fill="#ED1C24"/>
<path d="M25.5943 37.3178C25.5874 42.349 21.5572 46.3754 16.5504 46.3547C11.5437 46.3341 7.54786 42.2733 7.58225 37.2421C7.61664 32.2522 11.6056 28.274 16.5711 28.2603C21.5847 28.2534 25.6011 32.2797 25.5943 37.3178ZM16.5917 42.9754C19.7759 42.9754 22.2793 40.4701 22.2793 37.3041C22.2793 34.138 19.7622 31.6328 16.5848 31.6328C13.4074 31.6328 10.8903 34.1449 10.8903 37.3041C10.8903 40.4701 13.4074 42.9685 16.5848 42.9685L16.5917 42.9754Z" fill="#ED1C24"/>
<path d="M45.1675 57.608C45.1537 62.6323 41.0823 66.6724 36.0893 66.6173C31.1238 66.5623 27.128 62.5359 27.1211 57.5804C27.1211 52.5699 31.1513 48.5366 36.1718 48.5366C41.1992 48.5366 45.1812 52.563 45.1675 57.6148V57.608ZM36.0961 63.2311C39.2942 63.2517 41.8044 60.8084 41.8526 57.6217C41.9007 54.4764 39.3973 51.9229 36.2199 51.8678C33.0632 51.8196 30.5048 54.3249 30.4842 57.491C30.4635 60.6914 32.9188 63.2036 36.0961 63.2242V63.2311Z" fill="#ED1C24"/>
<path d="M16.5716 85.0145C14.8109 85.0145 13.0503 85.0214 11.2897 85.0145C9.78353 85.0076 9.23333 84.5121 9.21958 83.0392C9.19894 79.5153 9.19894 75.9913 9.21958 72.4674C9.22645 70.9808 9.75602 70.4852 11.2691 70.4783C14.8247 70.4646 18.3803 70.4646 21.936 70.4783C23.4284 70.4783 23.9511 70.9945 23.9579 72.495C23.9786 75.9845 23.9786 79.474 23.9579 82.9566C23.9511 84.4983 23.4146 85.0007 21.8534 85.0076C20.0928 85.0145 18.3322 85.0076 16.5716 85.0076V85.0145ZM12.6308 73.8371V81.5801H20.5261V73.8371H12.6308Z" fill="#ED1C24"/>
<path d="M16.6062 50.2227C18.4012 50.2227 20.1962 50.2158 21.9981 50.2227C23.3805 50.2296 23.9444 50.732 23.9582 52.0742C23.9857 55.6669 23.9857 59.2665 23.9582 62.8593C23.9513 64.2083 23.3805 64.7313 22.0118 64.7313C18.3806 64.7451 14.7561 64.7451 11.1249 64.7313C9.77688 64.7313 9.23356 64.1945 9.22669 62.818C9.19918 59.2596 9.19918 55.7013 9.22669 52.1361C9.23356 50.7183 9.77688 50.2227 11.2211 50.2158C13.0162 50.2021 14.8112 50.2158 16.6131 50.2158L16.6062 50.2227ZM20.5401 53.5814H12.6517V61.352H20.5401V53.5814Z" fill="#ED1C24"/>
<path d="M36.1858 85.0145C34.3564 85.0145 32.5201 85.0282 30.6907 85.0145C29.3565 85.0007 28.7994 84.4432 28.7925 83.0942C28.7788 79.5359 28.7788 75.9776 28.7925 72.4123C28.7925 71.0496 29.3427 70.4921 30.677 70.4852C34.3426 70.4714 38.0083 70.4646 41.6671 70.4852C42.9807 70.4921 43.4827 71.0014 43.4896 72.3366C43.5103 75.9294 43.5103 79.529 43.4896 83.1217C43.4827 84.4776 42.9325 84.9938 41.5708 85.0076C39.7758 85.0214 37.9808 85.0076 36.1858 85.0076V85.0145ZM32.2106 81.5869H40.1128V73.8577H32.2106V81.5869Z" fill="#ED1C24"/>
<path d="M75.229 64.7451C73.434 64.7451 71.639 64.7589 69.844 64.7451C68.4891 64.7314 67.9664 64.2152 67.9595 62.8386C67.9458 59.2803 67.9458 55.722 67.9595 52.1568C67.9595 50.7183 68.4685 50.2296 69.9196 50.2296C73.5096 50.2227 77.1065 50.2159 80.6966 50.2296C82.1133 50.2296 82.6497 50.7665 82.6566 52.1843C82.6704 55.7082 82.6704 59.2321 82.6566 62.756C82.6566 64.2221 82.1133 64.7383 80.6209 64.7451C78.8259 64.7589 77.0309 64.7451 75.2359 64.7451H75.229ZM71.3364 53.5815V61.3451H79.1904V53.5815H71.3364Z" fill="#ED1C24"/>
<path d="M36.1448 29.9602C37.9742 29.9602 39.8105 29.9465 41.6399 29.9602C42.9397 29.974 43.483 30.4833 43.4899 31.7841C43.5105 35.4182 43.5105 39.0453 43.4899 42.6794C43.483 43.9389 42.9535 44.4688 41.7155 44.4757C38.0155 44.4964 34.3154 44.4964 30.6153 44.4757C29.3499 44.4688 28.7997 43.8976 28.7928 42.5968C28.7722 39.004 28.7722 35.4044 28.7928 31.8117C28.7997 30.5246 29.3705 29.974 30.6497 29.9671C32.4791 29.9533 34.3154 29.9671 36.1448 29.9671V29.9602ZM32.2247 33.319V41.1032H40.0993V33.319H32.2247Z" fill="#ED1C24"/>
<path d="M55.773 50.2228C57.6024 50.2228 59.4387 50.209 61.2681 50.2228C62.506 50.2365 63.0493 50.7665 63.0562 51.9985C63.0769 55.6669 63.0769 59.3354 63.0562 63.0038C63.0562 64.167 62.4854 64.7314 61.3231 64.7314C57.5887 64.752 53.8542 64.752 50.1129 64.7314C48.9506 64.7314 48.3798 64.1601 48.3729 63.0038C48.3523 59.301 48.3523 55.5981 48.3729 51.8952C48.3798 50.794 48.9506 50.2434 50.051 50.2296C51.956 50.2021 53.8611 50.2228 55.7593 50.2228H55.773ZM59.6932 61.3795V53.5884H51.7841V61.3795H59.6932Z" fill="#ED1C24"/>
<path d="M55.7658 44.4895C53.9364 44.4895 52.1002 44.5033 50.2708 44.4895C48.909 44.4757 48.3863 43.9458 48.3795 42.583C48.3657 39.0247 48.3657 35.4664 48.3795 31.9011C48.3795 30.4902 48.9159 29.9671 50.3464 29.9602C53.9364 29.9534 57.5333 29.9534 61.1233 29.9602C62.5401 29.9602 63.0628 30.4833 63.0697 31.9149C63.0834 35.4388 63.0834 38.9627 63.0697 42.4867C63.0697 43.9802 62.5676 44.4689 61.0546 44.4826C59.2939 44.4964 57.5333 44.4826 55.7727 44.4826L55.7658 44.4895ZM51.77 41.1033H59.6653V33.3603H51.77V41.1033Z" fill="#ED1C24"/>
<path d="M55.7106 85.0144C53.9156 85.0144 52.1205 85.0282 50.3187 85.0144C48.9157 85.0007 48.3792 84.4638 48.3723 83.046C48.3655 79.5221 48.3655 75.9982 48.3723 72.4743C48.3723 70.9876 48.8813 70.4921 50.3943 70.4852C53.9499 70.4714 57.5056 70.4714 61.0612 70.4852C62.5674 70.4852 63.0557 70.9876 63.0557 72.4949C63.0626 76.0188 63.0694 79.5427 63.0557 83.0667C63.0557 84.4776 62.5124 85.0076 61.0887 85.0144C59.2937 85.0282 57.4987 85.0144 55.6968 85.0144H55.7106ZM51.7767 73.8508V81.5938H59.6926V73.8508H51.7767Z" fill="#ED1C24"/>
<path d="M84.4653 90.0181C81.8793 90.7201 80.4695 89.4124 79.3897 87.2444C78.6401 85.744 77.6291 84.3743 76.7419 82.9428C75.9647 81.6901 76.0335 80.8022 76.9345 80.2103C77.9179 79.5634 78.7914 79.8593 79.5823 81.1051C80.3869 82.3784 81.2948 83.6035 81.955 84.9456C82.6083 86.2671 83.5024 86.7489 84.9123 86.5424C85.5106 86.4529 86.1296 86.508 86.7417 86.5355C87.8421 86.5768 88.4611 87.1687 88.4886 88.1667C88.5161 89.261 87.849 89.9837 86.7211 90.025C85.9714 90.0525 85.2149 90.025 84.4584 90.025L84.4653 90.0181Z" fill="black"/>
<path d="M80.25 76.2048C80.3119 75.7506 80.3119 75.2757 80.4495 74.842C80.704 74.0505 81.3917 73.6445 82.1138 73.8509C82.664 74.0093 83.2761 74.5186 83.5237 75.0348C83.7782 75.5647 83.6819 76.2943 83.6475 76.9275C83.5925 78.0287 82.9735 78.6344 81.99 78.6413C80.9653 78.6482 80.3532 78.0012 80.2982 76.8518C80.2913 76.6384 80.2982 76.4251 80.2982 76.2117H80.2432L80.25 76.2048Z" fill="black"/>
<path d="M83.6748 100.528C83.6748 102.207 83.1934 102.985 82.0242 102.882C81.5015 102.834 80.6281 102.414 80.58 102.07C80.4287 100.982 80.4699 99.8191 80.7106 98.7454C80.7794 98.4357 81.7973 98.1604 82.3681 98.181C83.3378 98.2154 83.6679 98.9381 83.6679 100.521L83.6748 100.528Z" fill="black"/>
<path d="M70.539 90.0044C68.7509 90.0182 67.8843 89.1028 68.3933 87.7469C68.8472 86.5424 69.8925 86.7352 70.8485 86.7076C71.7288 86.6801 72.506 86.8246 72.8498 87.7882C73.2281 88.8344 72.6023 89.8736 71.5019 90.0044C71.1855 90.0388 70.8554 90.0044 70.5321 90.0044H70.539Z" fill="black"/>
<path d="M93.5852 86.7078C95.2701 86.7078 96.006 87.3616 95.8203 88.6762C95.6553 89.8325 94.6581 90.2523 92.6567 90.0114C91.6389 89.8875 91.0955 89.1717 91.2262 88.1256C91.3569 87.0657 91.9552 86.7078 93.5852 86.7146V86.7078Z" fill="black"/>
<path d="M75.2425 42.9754C72.0582 42.9547 69.5686 40.4288 69.6099 37.2559C69.6443 34.0623 72.1477 31.6121 75.3457 31.6396C78.5437 31.6672 80.9783 34.1449 80.9645 37.3591C80.9508 40.5527 78.4543 43.0029 75.2494 42.9754H75.2425ZM77.0375 35.5146C76.8656 33.4222 76.5079 32.8028 75.38 32.8097C73.475 32.8166 73.6332 34.317 73.585 35.5559C71.5768 35.721 71.0129 36.0996 70.9785 37.2421C70.9441 38.4053 71.4255 38.7563 73.53 39.1211C73.7914 41.2547 74.1352 41.7984 75.2494 41.8328C76.3704 41.8604 76.728 41.3373 77.0925 39.1142C79.2933 38.7632 79.8435 38.3915 79.816 37.2696C79.7885 36.1615 79.2314 35.8036 77.0444 35.5146H77.0375Z" fill="white"/>
<path d="M16.592 42.9754C13.4146 42.9754 10.8975 40.4701 10.8975 37.3109C10.8975 34.1518 13.4146 31.6396 16.592 31.6396C19.7694 31.6396 22.2865 34.138 22.2865 37.3109C22.2865 40.477 19.7762 42.9823 16.5989 42.9823L16.592 42.9754ZM18.3664 35.5146C17.9606 33.2433 17.6442 32.7684 16.5438 32.7959C15.4641 32.8235 15.1821 33.264 14.8176 35.5559C13.6828 35.7004 12.1904 35.432 12.1216 37.2215C12.046 39.1693 13.6416 38.9215 14.8382 39.0798C15.1202 41.296 15.4022 41.7984 16.4751 41.8191C18.4076 41.8466 18.2013 40.3118 18.3113 39.0936C20.3471 38.8458 20.9523 38.4191 20.9385 37.2903C20.9248 36.2028 20.3883 35.8312 18.3664 35.5146Z" fill="white"/>
<path d="M36.0965 63.2308C32.926 63.2102 30.4639 60.698 30.4845 57.4976C30.5051 54.3316 33.0567 51.8263 36.2203 51.8745C39.3908 51.9226 41.901 54.483 41.8529 57.6284C41.8048 60.8081 39.2945 63.2515 36.0965 63.2377V63.2308ZM37.9121 59.3215C40.051 59.1081 40.5599 58.8466 40.6356 57.8073C40.7869 55.715 39.1294 55.9559 37.8709 55.8045C37.7746 53.7465 37.4376 53.134 36.351 53.0789C34.3221 52.9688 34.5835 54.5931 34.4184 55.8113C32.2795 56.004 31.6674 56.3413 31.6674 57.4563C31.6605 59.349 33.1461 59.2389 34.384 59.3008C34.7072 61.4207 35.0855 61.9438 36.2203 61.9094C37.3276 61.8818 37.7127 61.3037 37.919 59.3215H37.9121Z" fill="white"/>
<path d="M12.6309 73.8372H20.5262V81.5801H12.6309V73.8372Z" fill="white"/>
<path d="M20.5398 53.5815V61.3521H12.6514V53.5815H20.5398Z" fill="white"/>
<path d="M32.2109 81.58V73.8508H40.1131V81.58H32.2109Z" fill="white"/>
<path d="M71.3369 53.5815H79.1909V61.3452H71.3369V53.5815Z" fill="white"/>
<path d="M32.2246 33.3188H40.0993V41.1031H32.2246V33.3188Z" fill="white"/>
<path d="M59.6932 61.3795H51.7842V53.5884H59.6932V61.3795Z" fill="white"/>
<path d="M51.7705 41.1033V33.3604H59.6658V41.1033H51.7705Z" fill="white"/>
<path d="M51.7842 73.8508H59.7001V81.5938H51.7842V73.8508Z" fill="white"/>
<path d="M77.0383 35.5076C79.2253 35.7967 79.7824 36.1546 79.8099 37.2627C79.8374 38.3846 79.2872 38.7631 77.0864 39.1072C76.7219 41.3303 76.3643 41.8534 75.2433 41.8259C74.1291 41.7984 73.7853 41.2546 73.5239 39.1141C71.4194 38.7493 70.938 38.3983 70.9724 37.2352C71.0068 36.0926 71.5707 35.7141 73.5789 35.5489C73.6339 34.31 73.4689 32.8096 75.3739 32.8027C76.5018 32.8027 76.8595 33.4153 77.0314 35.5076H77.0383Z" fill="#ED1C24"/>
<path d="M18.3596 35.5076C20.3816 35.8242 20.918 36.1959 20.9318 37.2833C20.9455 38.4121 20.3403 38.8388 18.3046 39.0866C18.1945 40.3048 18.4009 41.8396 16.4683 41.8121C15.3954 41.7983 15.1135 41.289 14.8315 39.0728C13.6417 38.9076 12.0392 39.1623 12.1149 37.2145C12.1837 35.425 13.6761 35.6934 14.8108 35.5489C15.1753 33.257 15.4573 32.8165 16.5371 32.7889C17.6375 32.7614 17.9538 33.2363 18.3596 35.5076Z" fill="#ED1C24"/>
<path d="M37.9049 59.3216C37.7055 61.3038 37.3135 61.8751 36.2062 61.9095C35.0714 61.9439 34.6932 61.4139 34.3699 59.301C33.132 59.2321 31.6465 59.3491 31.6533 57.4564C31.6533 56.3414 32.2723 56.0042 34.4043 55.8115C34.5694 54.5932 34.3012 52.9689 36.3369 53.079C37.4235 53.141 37.7536 53.7535 37.8568 55.8046C39.1154 55.956 40.7728 55.7151 40.6215 57.8074C40.5459 58.8536 40.0438 59.1151 37.8981 59.3216H37.9049Z" fill="#ED1C24"/>
</g>
<defs>
<clipPath id="clip0_205_1551">
<rect width="100.693" height="107.307" fill="white" transform="translate(0.196289)"/>
</clipPath>
</defs>
</svg>
