<svg width="98" height="85" viewBox="0 0 98 85" fill="none" xmlns="http://www.w3.org/2000/svg">
<g clip-path="url(#clip0_205_1862)">
<path d="M0.560547 22.94C1.09645 21.0635 1.96797 19.3925 3.84634 18.5813C4.77199 18.1811 5.83297 17.8783 6.83441 17.8729C17.7636 17.8242 28.6928 17.8404 39.622 17.8458C41.549 17.8458 42.9023 19.1275 42.8915 20.8796C42.8807 22.6317 41.5328 23.8809 39.5895 23.8809C29.0067 23.8863 18.424 23.8809 7.84126 23.8809C7.46775 23.8809 7.09965 23.8809 6.67201 23.8809V35.9674H7.8196C18.2778 35.9674 28.7307 35.9674 39.1889 35.9674C39.5949 35.9674 40.0171 35.9511 40.4123 36.0214C41.8738 36.2864 42.9186 37.5735 42.8969 39.039C42.8699 40.537 41.7385 41.7916 40.2174 41.9808C39.8439 42.0241 39.465 42.0079 39.0861 42.0079C28.6928 42.0079 18.2995 42.0079 7.90621 42.0079H6.69367V78.1968H91.2798V77.191C91.2798 70.707 91.2798 64.2231 91.2798 57.7446C91.2798 57.339 91.269 56.9172 91.3502 56.5224C91.6533 55.0244 93.012 54.0024 94.5115 54.1105C96.0109 54.2133 97.1964 55.403 97.3155 56.9334C97.3372 57.247 97.3317 57.5607 97.3317 57.8798C97.3317 64.4232 97.3317 70.972 97.3317 77.5155C97.3317 81.8633 94.8904 84.3131 90.5544 84.3131C63.061 84.3131 35.5621 84.3131 8.06861 84.3131C3.60816 84.3131 2.14119 83.318 0.571373 79.2135V22.94H0.560547Z" fill="black"/>
<path d="M97.3209 19.4033C97.3479 23.8701 97.3642 28.3316 96.6009 32.7605C95.2043 40.8668 91.1607 47.394 84.9301 52.6612C81.8176 55.2894 78.4343 57.5174 74.9266 59.5724C73.7628 60.2538 72.6206 60.3187 71.4459 59.6319C66.3738 56.6684 61.5561 53.3696 57.5612 49.0056C53.0953 44.1277 50.4861 38.3738 49.5172 31.8574C48.532 25.1896 49.0517 18.4786 48.9596 11.7891C48.938 10.2479 49.9286 9.36642 51.2873 8.78778C57.4745 6.15959 63.6997 3.5963 69.8166 0.805877C72.1388 -0.254051 74.0876 -0.270275 76.4152 0.800469C82.4996 3.58548 88.6869 6.14878 94.8579 8.74452C96.6009 9.47457 97.3858 10.6427 97.3317 12.5246C97.2667 14.8175 97.3155 17.1158 97.3155 19.4141L97.3209 19.4033ZM91.2744 21.3176C91.2744 18.4677 91.296 16.456 91.2473 14.4443C91.2419 14.1361 90.955 13.6818 90.6843 13.5629C85.033 11.1077 79.3708 8.68503 73.6978 6.28938C73.373 6.14878 72.8804 6.15419 72.5556 6.28938C66.8826 8.68503 61.2205 11.1131 55.5691 13.5629C55.3093 13.6764 55.0116 14.0928 55.017 14.3578C55.109 19.6034 55.0494 24.8652 55.4338 30.0945C55.7911 34.9777 57.6207 39.4229 60.6683 43.3166C63.9649 47.5292 68.2197 50.5846 72.7289 53.321C72.9616 53.4616 73.4705 53.3859 73.714 53.2182C76.3124 51.3958 78.9973 49.6761 81.4332 47.6536C86.1535 43.7384 89.2282 38.747 90.4624 32.6902C91.2852 28.656 91.3231 24.5677 91.269 21.3122L91.2744 21.3176Z" fill="#ED1C24"/>
<path d="M21.7149 54.0995C23.6366 54.0995 25.5528 54.0887 27.4745 54.0995C29.4178 54.1103 30.7711 55.3325 30.7928 57.0792C30.8144 58.8638 29.4503 60.1292 27.4529 60.1346C23.6474 60.1454 19.8365 60.1454 16.0311 60.1346C14.0228 60.1346 12.6587 58.8908 12.6641 57.1063C12.6695 55.3271 14.0336 54.1049 16.0527 54.0995C17.9419 54.0941 19.8311 54.0995 21.7149 54.0995Z" fill="black"/>
<path d="M91.2744 21.3175C91.3232 24.573 91.2907 28.6613 90.4679 32.6955C89.2283 38.7523 86.1536 43.7437 81.4387 47.6589C79.0028 49.6814 76.3179 51.4011 73.7195 53.2235C73.4759 53.3966 72.9617 53.4669 72.7343 53.3263C68.2252 50.5845 63.9704 47.5345 60.6738 43.3218C57.6208 39.4228 55.7911 34.9776 55.4393 30.0998C55.0604 24.8704 55.1199 19.6087 55.0225 14.3631C55.0225 14.0927 55.3148 13.6763 55.5746 13.5681C61.2259 11.1184 66.8881 8.69572 72.5611 6.29466C72.8913 6.15406 73.3785 6.15406 73.7033 6.29466C79.3763 8.69031 85.0385 11.113 90.6898 13.5681C90.9605 13.6871 91.2474 14.1414 91.2528 14.4496C91.3015 16.4613 91.2798 18.473 91.2798 21.3229L91.2744 21.3175ZM70.3634 30.8136C70.109 30.4675 69.9195 30.2242 69.7463 29.97C68.7124 28.4288 67.7001 26.8767 66.6499 25.3463C65.8109 24.1296 64.5496 23.6429 63.3046 23.9944C61.2043 24.5838 60.4031 26.8172 61.6644 28.7424C63.5211 31.5869 65.4212 34.399 67.3103 37.2164C68.8477 39.5093 71.0671 39.5905 72.7993 37.4273C74.7643 34.9722 76.7347 32.5171 78.6997 30.0619C80.6267 27.6555 82.5701 25.2652 84.4647 22.8371C85.9533 20.9228 85.0655 18.3649 82.7703 17.9052C81.3738 17.6294 80.3615 18.2892 79.517 19.3491C76.5073 23.1399 73.4705 26.9146 70.358 30.8082L70.3634 30.8136Z" fill="white"/>
<path d="M70.3633 30.819C73.4813 26.9254 76.5127 23.1508 79.5224 19.3599C80.3669 18.2946 81.3737 17.6348 82.7757 17.916C85.0709 18.3703 85.9587 20.9336 84.4701 22.8479C82.5754 25.276 80.6267 27.6663 78.705 30.0727C76.7401 32.5279 74.7751 34.983 72.8047 37.4382C71.0725 39.6013 68.8531 39.5202 67.3157 37.2272C65.4211 34.4098 63.5265 31.5923 61.6698 28.7532C60.4085 26.8281 61.2097 24.5892 63.31 24.0052C64.5604 23.6537 65.8163 24.1404 66.6553 25.3571C67.7055 26.8821 68.7177 28.4396 69.7517 29.9808C69.9249 30.235 70.1143 30.4783 70.3688 30.8244L70.3633 30.819Z" fill="#ED1C24"/>
</g>
<defs>
<clipPath id="clip0_205_1862">
<rect width="96.7766" height="84.313" fill="white" transform="translate(0.560547)"/>
</clipPath>
</defs>
</svg>
