<svg width="278" height="71" viewBox="0 0 278 71" fill="none" xmlns="http://www.w3.org/2000/svg">
<path d="M36.532 29.6678C34.142 29.6678 31.872 29.6479 29.602 29.6879C29.332 29.6879 29.012 29.9179 28.792 30.1279C24.842 33.8079 18.032 33.5078 14.532 29.4878C13.382 28.1678 12.532 26.2179 12.372 24.4379H13.182C21.152 24.4379 29.122 24.4378 37.092 24.4578C37.732 24.4578 37.932 24.2878 37.962 23.6578C38.092 21.0878 37.822 18.5879 36.992 16.1379C36.472 14.6079 37.322 12.9778 38.822 12.4578C40.302 11.9378 41.932 12.6478 42.482 14.1778C46.562 25.6078 41.792 38.7678 29.672 43.1478C16.682 47.8378 3.752 40.4379 0.771999 28.0079C-1.218 19.6979 0.591979 12.1778 6.75198 6.01781C10.422 2.35781 14.982 0.447866 20.152 0.0778656C20.912 0.0178656 21.702 -0.0521539 22.452 0.0578461C23.942 0.277846 24.962 1.61783 24.842 3.03783C24.722 4.56783 23.582 5.69783 22.042 5.72783C19.122 5.78783 16.342 6.35783 13.802 7.85783C9.182 10.5878 6.62197 14.6878 5.96197 19.9678C5.42197 24.2578 6.14199 28.3178 8.70199 31.8978C12.232 36.8378 17.082 39.0979 23.142 38.6879C28.972 38.2878 33.302 35.4579 36.182 30.3879C36.292 30.1879 36.382 29.9778 36.532 29.6778V29.6678Z" fill="black"/>
<path d="M31.4523 19.1381H12.6323C12.4923 15.7881 16.7123 11.948 20.9623 11.598C27.1323 11.098 30.6623 15.1081 31.4523 19.1381Z" fill="black"/>
<path d="M32.912 10.208C30.652 10.218 28.842 8.42803 28.832 6.18803C28.832 3.93803 30.632 2.13799 32.882 2.14799C35.102 2.14799 36.912 3.92803 36.942 6.12803C36.972 8.33803 35.142 10.188 32.912 10.208Z" fill="white"/>
<path d="M84.6322 3.43774C85.7422 3.43774 86.6922 3.82774 87.4822 4.61774C88.2722 5.40774 88.6622 6.35771 88.6622 7.46771C88.6622 8.57771 88.2722 9.52775 87.4822 10.3177C86.6922 11.1077 85.7422 11.4977 84.6322 11.4977H69.8322C66.8522 11.4977 64.3122 12.5477 62.2122 14.6477C60.1122 16.7477 59.0622 19.2877 59.0622 22.2677C59.0622 25.2477 60.1122 27.7878 62.2122 29.8878C64.3122 31.9878 66.8522 33.0377 69.8322 33.0377H80.6022V26.3077H69.8322C68.7222 26.3077 67.7722 25.9177 66.9822 25.1277C66.1922 24.3377 65.8022 23.3877 65.8022 22.2777C65.8022 21.1677 66.1922 20.2177 66.9822 19.4277C67.7722 18.6377 68.7222 18.2477 69.8322 18.2477H84.6322C85.7422 18.2477 86.6922 18.6377 87.4822 19.4277C88.2722 20.2177 88.6622 21.1677 88.6622 22.2777V37.0778C88.6622 38.1878 88.2722 39.1377 87.4822 39.9277C86.6922 40.7177 85.7422 41.1077 84.6322 41.1077H69.8322C64.6322 41.1077 60.1822 39.2677 56.5122 35.5877C52.8322 31.9077 50.9922 27.4677 50.9922 22.2677C50.9922 17.0677 52.8322 12.6278 56.5122 8.94775C60.1922 5.26775 64.6322 3.42773 69.8322 3.42773H84.6322V3.43774Z" fill="white"/>
<path d="M94.6719 22.2775C94.6719 17.0775 96.5119 12.6375 100.192 8.95746C103.872 5.27746 108.312 3.4375 113.512 3.4375C118.712 3.4375 123.152 5.27746 126.832 8.95746C130.512 12.6375 132.352 17.0775 132.352 22.2775V37.0775C132.352 38.1875 131.962 39.1375 131.172 39.9275C130.382 40.7175 129.432 41.1075 128.322 41.1075C127.212 41.1075 126.262 40.7175 125.472 39.9275C124.682 39.1375 124.292 38.1875 124.292 37.0775V30.3475H102.762V37.0775C102.762 38.1875 102.362 39.1375 101.582 39.9275C100.792 40.7175 99.8419 41.1075 98.7319 41.1075C97.6219 41.1075 96.6719 40.7175 95.8819 39.9275C95.0919 39.1375 94.7019 38.1875 94.7019 37.0775V22.2775H94.6719ZM124.282 22.2775C124.282 19.2975 123.232 16.7575 121.132 14.6575C119.032 12.5575 116.492 11.5075 113.512 11.5075C110.532 11.5075 107.992 12.5575 105.892 14.6575C103.792 16.7575 102.742 19.2975 102.742 22.2775H124.272H124.282Z" fill="white"/>
<path d="M146.422 37.0775C146.422 38.1875 146.022 39.1375 145.242 39.9275C144.452 40.7175 143.502 41.1075 142.392 41.1075C141.282 41.1075 140.332 40.7175 139.542 39.9275C138.752 39.1375 138.362 38.1875 138.362 37.0775V7.46747C138.362 6.35747 138.752 5.40749 139.542 4.61749C140.332 3.82749 141.282 3.4375 142.392 3.4375H164.602C167.762 3.4375 170.452 4.55748 172.692 6.78748C174.922 9.01748 176.042 11.7175 176.042 14.8775C176.042 18.0375 174.932 20.7275 172.702 22.9475C170.982 24.6675 168.992 25.7275 166.752 26.1275L174.852 34.2275C175.642 35.0175 176.032 35.9675 176.032 37.0775C176.032 38.1875 175.632 39.1375 174.852 39.9275C174.062 40.7175 173.112 41.1075 172.002 41.1075C170.892 41.1075 169.942 40.7175 169.152 39.9275L154.352 25.1275C153.562 24.3375 153.172 23.3875 153.172 22.2775C153.172 21.1675 153.562 20.2175 154.352 19.4275C155.142 18.6375 156.092 18.2475 157.202 18.2475H164.602C165.532 18.2475 166.332 17.9175 166.982 17.2675C167.632 16.6175 167.962 15.8175 167.962 14.8875C167.962 13.9575 167.632 13.1575 166.982 12.5075C166.322 11.8575 165.532 11.5275 164.602 11.5275H146.432V37.0975L146.422 37.0775Z" fill="white"/>
<path d="M182.032 22.2775C182.032 17.0775 183.872 12.6375 187.552 8.95746C191.232 5.27746 195.672 3.4375 200.872 3.4375C206.072 3.4375 210.512 5.27746 214.192 8.95746C217.872 12.6375 219.712 17.0775 219.712 22.2775V37.0775C219.712 38.1875 219.312 39.1375 218.532 39.9275C217.742 40.7175 216.792 41.1075 215.682 41.1075C214.572 41.1075 213.622 40.7175 212.832 39.9275C212.042 39.1375 211.652 38.1875 211.652 37.0775V30.3475H190.122V37.0775C190.122 38.1875 189.722 39.1375 188.942 39.9275C188.152 40.7175 187.202 41.1075 186.092 41.1075C184.982 41.1075 184.032 40.7175 183.242 39.9275C182.452 39.1375 182.062 38.1875 182.062 37.0775V22.2775H182.032ZM211.642 22.2775C211.642 19.2975 210.592 16.7575 208.492 14.6575C206.392 12.5575 203.852 11.5075 200.872 11.5075C197.892 11.5075 195.352 12.5575 193.252 14.6575C191.152 16.7575 190.102 19.2975 190.102 22.2775H211.632H211.642Z" fill="white"/>
<path d="M259.363 3.43774C260.473 3.43774 261.423 3.82774 262.213 4.61774C263.003 5.40774 263.393 6.35771 263.393 7.46771C263.393 8.57771 262.993 9.52775 262.213 10.3177C261.423 11.1077 260.473 11.4977 259.363 11.4977H244.563C241.583 11.4977 239.043 12.5477 236.943 14.6477C234.843 16.7477 233.793 19.2877 233.793 22.2677C233.793 25.2477 234.843 27.7878 236.943 29.8878C239.043 31.9878 241.583 33.0377 244.563 33.0377H255.333V26.3077H244.563C243.453 26.3077 242.503 25.9177 241.713 25.1277C240.923 24.3377 240.533 23.3877 240.533 22.2777C240.533 21.1677 240.923 20.2177 241.713 19.4277C242.503 18.6377 243.453 18.2477 244.563 18.2477H259.363C260.473 18.2477 261.423 18.6377 262.213 19.4277C263.003 20.2177 263.393 21.1677 263.393 22.2777V37.0778C263.393 38.1878 262.993 39.1377 262.213 39.9277C261.423 40.7177 260.473 41.1077 259.363 41.1077H244.563C239.363 41.1077 234.923 39.2677 231.243 35.5877C227.563 31.9077 225.723 27.4677 225.723 22.2677C225.723 17.0677 227.563 12.6278 231.243 8.94775C234.923 5.26775 239.363 3.42773 244.563 3.42773H259.363V3.43774Z" fill="white"/>
<path d="M269.393 7.47772C269.393 6.36772 269.783 5.41775 270.573 4.62775C271.363 3.83775 272.313 3.44775 273.423 3.44775C274.533 3.44775 275.483 3.83775 276.273 4.62775C277.063 5.41775 277.453 6.36772 277.453 7.47772V37.0877C277.453 38.1977 277.053 39.1477 276.273 39.9377C275.483 40.7277 274.533 41.1177 273.423 41.1177C272.313 41.1177 271.363 40.7277 270.573 39.9377C269.783 39.1477 269.393 38.1977 269.393 37.0877V7.47772Z" fill="white"/>
<path d="M51.2021 59.7179C51.2021 59.3479 51.3321 59.0279 51.5921 58.7679C51.8521 58.5079 52.1721 58.3779 52.5421 58.3779C52.9121 58.3779 53.2322 58.5079 53.4922 58.7679C53.7522 59.0279 53.8821 59.3479 53.8821 59.7179V64.6279C53.8821 65.6179 54.2321 66.4579 54.9221 67.1579C55.6221 67.8579 56.4621 68.1979 57.4521 68.1979C58.4421 68.1979 59.2821 67.8479 59.9821 67.1579C60.6821 66.4679 61.0222 65.6179 61.0222 64.6279V59.7179C61.0222 59.3479 61.1521 59.0279 61.4121 58.7679C61.6721 58.5079 61.9922 58.3779 62.3622 58.3779C62.7322 58.3779 63.0521 58.5079 63.3121 58.7679C63.5721 59.0279 63.7021 59.3479 63.7021 59.7179V64.6279C63.7021 66.3579 63.0921 67.8279 61.8721 69.0479C60.6521 70.2679 59.1721 70.8779 57.4521 70.8779C55.7321 70.8779 54.2521 70.2679 53.0321 69.0479C51.8121 67.8279 51.2021 66.3479 51.2021 64.6279V59.7179ZM58.7921 64.6279C58.7921 64.9979 58.6621 65.3179 58.4021 65.5779C58.1421 65.8379 57.8221 65.9679 57.4521 65.9679C57.0821 65.9679 56.7621 65.8379 56.5021 65.5779C56.2421 65.3179 56.1122 64.9979 56.1122 64.6279V59.7179C56.1122 59.3479 56.2421 59.0279 56.5021 58.7679C56.7621 58.5079 57.0821 58.3779 57.4521 58.3779C57.8221 58.3779 58.1321 58.5079 58.4021 58.7679C58.6621 59.0279 58.7921 59.3479 58.7921 59.7179V64.6279Z" fill="#231F20"/>
<path d="M76.8622 58.3779C77.2322 58.3779 77.5521 58.5079 77.8121 58.7679C78.0721 59.0279 78.2021 59.3479 78.2021 59.7179C78.2021 60.0879 78.0721 60.3979 77.8121 60.6679C77.5521 60.9279 77.2322 61.0579 76.8622 61.0579H71.9521C70.9621 61.0579 70.1221 61.4079 69.4221 62.0979C68.7221 62.7879 68.3821 63.6379 68.3821 64.6279C68.3821 65.6179 68.7321 66.4579 69.4221 67.1579C70.1221 67.8579 70.9621 68.1979 71.9521 68.1979H76.8622C77.2322 68.1979 77.5521 68.3279 77.8121 68.5879C78.0721 68.8479 78.2021 69.1679 78.2021 69.5379C78.2021 69.9079 78.0721 70.2179 77.8121 70.4879C77.5521 70.7479 77.2322 70.8779 76.8622 70.8779H71.9521C70.2221 70.8779 68.7521 70.2679 67.5321 69.0479C66.3121 67.8279 65.7021 66.3479 65.7021 64.6279C65.7021 62.9079 66.3121 61.4279 67.5321 60.2079C68.7521 58.9879 70.2321 58.3779 71.9521 58.3779H76.8622ZM71.9521 65.9679C71.5821 65.9679 71.2621 65.8379 71.0021 65.5779C70.7421 65.3179 70.6122 64.9979 70.6122 64.6279C70.6122 64.2579 70.7421 63.9479 71.0021 63.6779C71.2621 63.4179 71.5821 63.2879 71.9521 63.2879H76.8622C77.2322 63.2879 77.5521 63.4179 77.8121 63.6779C78.0721 63.9379 78.2021 64.2579 78.2021 64.6279C78.2021 64.9979 78.0721 65.3179 77.8121 65.5779C77.5521 65.8379 77.2322 65.9679 76.8622 65.9679H71.9521Z" fill="#231F20"/>
<path d="M96.5118 60.2079C96.7718 60.4679 96.9018 60.788 96.9018 61.158C96.9018 61.528 96.7718 61.848 96.5118 62.108C96.2518 62.368 95.9318 62.498 95.5618 62.498C95.1918 62.498 94.8718 62.368 94.6118 62.108C93.9118 61.408 93.0618 61.068 92.0818 61.068C91.1018 61.068 90.2518 61.418 89.5518 62.108C88.8518 62.798 88.5118 63.648 88.5118 64.638C88.5118 65.628 88.8618 66.458 89.5518 67.158C90.2518 67.858 91.0918 68.2079 92.0818 68.2079C93.0718 68.2079 93.9118 67.858 94.6118 67.168C94.8718 66.908 95.1918 66.778 95.5618 66.778C95.9318 66.778 96.2418 66.908 96.5118 67.168C96.7818 67.428 96.9018 67.748 96.9018 68.118C96.9018 68.488 96.7718 68.798 96.5118 69.068C95.2918 70.288 93.8118 70.8979 92.0918 70.8979C90.3718 70.8979 88.8918 70.288 87.6718 69.068C86.4518 67.848 85.8418 66.3679 85.8418 64.6479C85.8418 62.9279 86.4518 61.448 87.6718 60.228C88.8918 59.008 90.3718 58.3979 92.0918 58.3979C93.8118 58.3979 95.2918 59.008 96.5118 60.228V60.2079Z" fill="#231F20"/>
<path d="M109.672 60.2079C110.892 61.4279 111.502 62.9079 111.502 64.6279C111.502 66.3479 110.892 67.8279 109.672 69.0479C108.452 70.2679 106.972 70.8779 105.252 70.8779C103.532 70.8779 102.052 70.2679 100.832 69.0479C99.612 67.8279 99.002 66.3479 99.002 64.6279C99.002 62.9079 99.612 61.4279 100.832 60.2079C102.052 58.9879 103.532 58.3779 105.252 58.3779C106.972 58.3779 108.452 58.9879 109.672 60.2079ZM105.252 61.0579C104.262 61.0579 103.422 61.4079 102.722 62.0979C102.022 62.7879 101.682 63.6379 101.682 64.6279C101.682 65.6179 102.032 66.4579 102.722 67.1579C103.422 67.8579 104.262 68.1979 105.252 68.1979C106.242 68.1979 107.082 67.8479 107.782 67.1579C108.482 66.4679 108.822 65.6179 108.822 64.6279C108.822 63.6379 108.472 62.7979 107.782 62.0979C107.082 61.3979 106.242 61.0579 105.252 61.0579Z" fill="#231F20"/>
<path d="M126.002 69.5477C126.002 69.9177 125.872 70.2277 125.612 70.4977C125.352 70.7577 125.032 70.8877 124.662 70.8877C124.292 70.8877 123.982 70.7577 123.712 70.4977C123.452 70.2377 123.322 69.9177 123.322 69.5477V64.6377C123.322 63.6477 122.972 62.8077 122.282 62.1077C121.582 61.4077 120.742 61.0677 119.752 61.0677C118.762 61.0677 117.922 61.4177 117.222 62.1077C116.522 62.7977 116.182 63.6477 116.182 64.6377V69.5477C116.182 69.9177 116.052 70.2277 115.792 70.4977C115.532 70.7577 115.212 70.8877 114.842 70.8877C114.472 70.8877 114.162 70.7577 113.892 70.4977C113.632 70.2377 113.502 69.9177 113.502 69.5477V64.6377C113.502 62.9077 114.112 61.4377 115.332 60.2177C116.552 58.9977 118.032 58.3877 119.752 58.3877C121.472 58.3877 122.952 58.9977 124.172 60.2177C125.392 61.4377 126.002 62.9177 126.002 64.6377V69.5477ZM118.412 64.6377C118.412 64.2677 118.542 63.9577 118.802 63.6877C119.062 63.4277 119.382 63.2977 119.752 63.2977C120.122 63.2977 120.432 63.4277 120.702 63.6877C120.962 63.9477 121.092 64.2677 121.092 64.6377V69.5477C121.092 69.9177 120.962 70.2277 120.702 70.4977C120.442 70.7677 120.122 70.8877 119.752 70.8877C119.382 70.8877 119.062 70.7577 118.802 70.4977C118.542 70.2377 118.412 69.9177 118.412 69.5477V64.6377Z" fill="#231F20"/>
<path d="M139.162 58.3779C139.532 58.3779 139.852 58.5079 140.112 58.7679C140.372 59.0279 140.502 59.3479 140.502 59.7179C140.502 60.0879 140.372 60.3979 140.112 60.6679C139.852 60.9279 139.532 61.0579 139.162 61.0579H134.252C133.262 61.0579 132.422 61.4079 131.722 62.0979C131.022 62.7879 130.682 63.6379 130.682 64.6279C130.682 65.6179 131.032 66.4579 131.722 67.1579C132.422 67.8579 133.262 68.1979 134.252 68.1979H139.162C139.532 68.1979 139.852 68.3279 140.112 68.5879C140.372 68.8479 140.502 69.1679 140.502 69.5379C140.502 69.9079 140.372 70.2179 140.112 70.4879C139.852 70.7479 139.532 70.8779 139.162 70.8779H134.252C132.522 70.8779 131.052 70.2679 129.832 69.0479C128.612 67.8279 128.002 66.3479 128.002 64.6279C128.002 62.9079 128.612 61.4279 129.832 60.2079C131.052 58.9879 132.532 58.3779 134.252 58.3779H139.162ZM134.252 65.9679C133.882 65.9679 133.562 65.8379 133.302 65.5779C133.042 65.3179 132.912 64.9979 132.912 64.6279C132.912 64.2579 133.042 63.9479 133.302 63.6779C133.562 63.4179 133.882 63.2879 134.252 63.2879H139.162C139.532 63.2879 139.852 63.4179 140.112 63.6779C140.372 63.9379 140.502 64.2579 140.502 64.6279C140.502 64.9979 140.372 65.3179 140.112 65.5779C139.852 65.8379 139.532 65.9679 139.162 65.9679H134.252Z" fill="#231F20"/>
<path d="M149.462 61.0579C149.092 61.0579 148.782 60.9279 148.512 60.6679C148.252 60.4079 148.122 60.0879 148.122 59.7179C148.122 59.3479 148.252 59.0279 148.512 58.7679C148.772 58.5079 149.092 58.3779 149.462 58.3779H159.292C159.662 58.3779 159.982 58.5079 160.242 58.7679C160.502 59.0279 160.632 59.3479 160.632 59.7179C160.632 60.0879 160.502 60.3979 160.242 60.6679C159.982 60.9279 159.662 61.0579 159.292 61.0579H155.722V69.5479C155.722 69.9179 155.592 70.2279 155.332 70.4979C155.072 70.7679 154.752 70.8879 154.382 70.8879C154.012 70.8879 153.692 70.7579 153.432 70.4979C153.172 70.2379 153.042 69.9179 153.042 69.5479V61.0579H149.472H149.462Z" fill="#231F20"/>
<path d="M173.302 60.2079C174.522 61.4279 175.132 62.9079 175.132 64.6279C175.132 66.3479 174.522 67.8279 173.302 69.0479C172.082 70.2679 170.602 70.8779 168.882 70.8779C167.162 70.8779 165.682 70.2679 164.462 69.0479C163.242 67.8279 162.632 66.3479 162.632 64.6279C162.632 62.9079 163.242 61.4279 164.462 60.2079C165.682 58.9879 167.162 58.3779 168.882 58.3779C170.602 58.3779 172.082 58.9879 173.302 60.2079ZM168.882 61.0579C167.892 61.0579 167.052 61.4079 166.352 62.0979C165.652 62.7879 165.312 63.6379 165.312 64.6279C165.312 65.6179 165.662 66.4579 166.352 67.1579C167.052 67.8579 167.892 68.1979 168.882 68.1979C169.872 68.1979 170.712 67.8479 171.412 67.1579C172.112 66.4679 172.452 65.6179 172.452 64.6279C172.452 63.6379 172.102 62.7979 171.412 62.0979C170.712 61.3979 169.872 61.0579 168.882 61.0579Z" fill="#231F20"/>
<path d="M192.982 58.7679C193.242 58.5079 193.562 58.3779 193.932 58.3779C194.302 58.3779 194.623 58.5079 194.883 58.7679C195.143 59.0279 195.272 59.3479 195.272 59.7179C195.272 60.0879 195.143 60.3979 194.883 60.6679L190.362 65.1879V69.5479C190.362 69.9179 190.232 70.2279 189.972 70.4979C189.712 70.7679 189.392 70.8879 189.022 70.8879C188.652 70.8879 188.332 70.7579 188.072 70.4979C187.812 70.2379 187.682 69.9179 187.682 69.5479V65.1879L183.162 60.6679C182.902 60.4079 182.772 60.0879 182.772 59.7179C182.772 59.3479 182.902 59.0279 183.162 58.7679C183.422 58.5079 183.742 58.3779 184.112 58.3779C184.482 58.3779 184.803 58.5079 185.062 58.7679L189.032 62.7379L193.003 58.7679H192.982Z" fill="#231F20"/>
<path d="M207.932 60.2079C209.152 61.4279 209.762 62.9079 209.762 64.6279C209.762 66.3479 209.152 67.8279 207.932 69.0479C206.712 70.2679 205.232 70.8779 203.512 70.8779C201.792 70.8779 200.312 70.2679 199.092 69.0479C197.872 67.8279 197.262 66.3479 197.262 64.6279C197.262 62.9079 197.872 61.4279 199.092 60.2079C200.312 58.9879 201.792 58.3779 203.512 58.3779C205.232 58.3779 206.712 58.9879 207.932 60.2079ZM203.512 61.0579C202.522 61.0579 201.682 61.4079 200.982 62.0979C200.282 62.7879 199.942 63.6379 199.942 64.6279C199.942 65.6179 200.292 66.4579 200.982 67.1579C201.682 67.8579 202.522 68.1979 203.512 68.1979C204.502 68.1979 205.342 67.8479 206.042 67.1579C206.742 66.4679 207.082 65.6179 207.082 64.6279C207.082 63.6379 206.732 62.7979 206.042 62.0979C205.342 61.3979 204.502 61.0579 203.512 61.0579Z" fill="#231F20"/>
<path d="M211.752 59.7179C211.752 59.3479 211.882 59.0279 212.142 58.7679C212.402 58.5079 212.722 58.3779 213.092 58.3779C213.462 58.3779 213.782 58.5079 214.042 58.7679C214.302 59.0279 214.432 59.3479 214.432 59.7179V64.6279C214.432 65.6179 214.782 66.4579 215.472 67.1579C216.172 67.8579 217.012 68.1979 218.002 68.1979C218.992 68.1979 219.832 67.8479 220.532 67.1579C221.232 66.4679 221.572 65.6179 221.572 64.6279V59.7179C221.572 59.3479 221.702 59.0279 221.962 58.7679C222.222 58.5079 222.542 58.3779 222.912 58.3779C223.282 58.3779 223.602 58.5079 223.862 58.7679C224.122 59.0279 224.252 59.3479 224.252 59.7179V64.6279C224.252 66.3579 223.642 67.8279 222.422 69.0479C221.202 70.2679 219.722 70.8779 218.002 70.8779C216.282 70.8779 214.802 70.2679 213.582 69.0479C212.362 67.8279 211.752 66.3479 211.752 64.6279V59.7179Z" fill="#231F20"/>
</svg>
