<svg width="214" height="58" viewBox="0 0 214 58" fill="none" xmlns="http://www.w3.org/2000/svg">
<path d="M28.1832 22.8853C26.3357 22.8853 24.588 22.8711 22.8403 22.8996C22.6263 22.8996 22.3838 23.0779 22.2197 23.242C19.1738 26.0811 13.9165 25.8528 11.2273 22.7498C10.3427 21.7297 9.68646 20.2317 9.55806 18.855H10.1787C16.3276 18.855 22.4694 18.855 28.6183 18.8693C29.1105 18.8693 29.2603 18.7409 29.2889 18.2487C29.3887 16.2656 29.1819 14.3396 28.5399 12.4493C28.1404 11.2723 28.7967 10.0168 29.9451 9.61019C31.0936 9.21073 32.3419 9.75999 32.7628 10.937C35.9086 19.7538 32.2278 29.9045 22.8831 33.2786C12.8679 36.8952 2.8884 31.1885 0.598595 21.6013C-0.942205 15.1885 0.455928 9.38906 5.20673 4.64539C8.03866 1.82059 11.5483 0.351126 15.5429 0.058659C16.135 0.015859 16.7413 -0.0412077 17.3191 0.0443923C18.4676 0.215592 19.2523 1.24993 19.1667 2.34133C19.0739 3.51833 18.1965 4.38859 17.0124 4.41713C14.7583 4.46706 12.6183 4.90219 10.6566 6.05779C7.08993 8.16213 5.12113 11.3293 4.61466 15.4025C4.20093 18.7123 4.7502 21.8439 6.72613 24.6045C9.45106 28.4137 13.1961 30.1542 17.8613 29.8403C22.3624 29.5336 25.7008 27.3508 27.9193 23.4417C28.0049 23.2919 28.0691 23.1279 28.1832 22.8925V22.8853Z" fill="#231F20"/>
<path d="M24.2669 14.7671H9.75062C9.64362 12.1848 12.8964 9.22449 16.1706 8.95342C20.9286 8.56822 23.6535 11.6641 24.2669 14.7671Z" fill="#231F20"/>
<path d="M25.387 7.87665C23.6465 7.88378 22.2483 6.50705 22.2412 4.78078C22.2412 3.04738 23.6251 1.66351 25.3656 1.66351C27.0776 1.66351 28.4686 3.03311 28.4971 4.73798C28.5185 6.44285 27.1133 7.86951 25.387 7.88378V7.87665Z" fill="#ED1C24"/>
<path d="M65.2769 2.65563C66.1329 2.65563 66.8677 2.96237 67.474 3.5687C68.0803 4.17503 68.3871 4.90977 68.3871 5.76576C68.3871 6.62176 68.0803 7.3565 67.474 7.96283C66.8677 8.56916 66.1329 8.8759 65.2769 8.8759H53.8636C51.5667 8.8759 49.605 9.68196 47.9857 11.3012C46.3665 12.9205 45.5604 14.875 45.5604 17.1791C45.5604 19.4832 46.3665 21.4377 47.9857 23.057C49.605 24.6762 51.5595 25.4823 53.8636 25.4823H62.1668V20.2892H53.8636C53.0076 20.2892 52.2729 19.9825 51.6665 19.3762C51.0602 18.7698 50.7535 18.0351 50.7535 17.1791C50.7535 16.3231 51.0602 15.5884 51.6665 14.982C52.2729 14.3757 53.0076 14.069 53.8636 14.069H65.2769C66.1329 14.069 66.8677 14.3757 67.474 14.982C68.0803 15.5884 68.3871 16.3231 68.3871 17.1791V28.5996C68.3871 29.4556 68.0803 30.1903 67.474 30.7966C66.8677 31.403 66.1329 31.7097 65.2769 31.7097H53.8636C49.8475 31.7097 46.4235 30.2902 43.5916 27.4511C40.7525 24.612 39.333 21.188 39.333 17.1791C39.333 13.1702 40.7525 9.73903 43.5916 6.9071C46.4307 4.06803 49.8547 2.6485 53.8636 2.6485H65.2769V2.65563Z" fill="#ED1C24"/>
<path d="M73.0234 17.1862C73.0234 13.1701 74.443 9.74611 77.282 6.91418C80.1211 4.07511 83.5451 2.65558 87.554 2.65558C91.563 2.65558 94.9941 4.07511 97.826 6.91418C100.665 9.75325 102.085 13.1772 102.085 17.1862V28.6066C102.085 29.4626 101.778 30.1974 101.172 30.8037C100.565 31.41 99.8305 31.7168 98.9745 31.7168C98.1185 31.7168 97.3838 31.41 96.7774 30.8037C96.1711 30.1974 95.8644 29.4626 95.8644 28.6066V23.4136H79.258V28.6066C79.258 29.4626 78.9512 30.1974 78.3449 30.8037C77.7386 31.41 77.0038 31.7168 76.1478 31.7168C75.2918 31.7168 74.5571 31.41 73.9508 30.8037C73.3444 30.1974 73.0377 29.4626 73.0377 28.6066V17.1862H73.0234ZM95.8572 17.1862C95.8572 14.8892 95.0512 12.9276 93.4319 11.3083C91.8126 9.68905 89.8581 8.88298 87.554 8.88298C85.25 8.88298 83.2954 9.68905 81.6762 11.3083C80.0569 12.9276 79.2508 14.8821 79.2508 17.1862H95.8572Z" fill="#ED1C24"/>
<path d="M112.935 28.6065C112.935 29.4625 112.628 30.1972 112.022 30.8035C111.416 31.4099 110.681 31.7166 109.825 31.7166C108.969 31.7166 108.234 31.4099 107.628 30.8035C107.022 30.1972 106.715 29.4625 106.715 28.6065V5.77267C106.715 4.91667 107.022 4.18194 107.628 3.5756C108.234 2.96927 108.969 2.66254 109.825 2.66254H126.952C129.385 2.66254 131.468 3.52567 133.187 5.2448C134.913 6.97107 135.769 9.04687 135.769 11.4793C135.769 13.9118 134.913 15.9876 133.194 17.7067C131.867 19.0335 130.333 19.8539 128.607 20.1535L134.856 26.4023C135.462 27.0086 135.769 27.7433 135.769 28.5993C135.769 29.4553 135.462 30.1901 134.856 30.7964C134.25 31.4027 133.515 31.7095 132.659 31.7095C131.803 31.7095 131.068 31.4027 130.462 30.7964L119.041 19.3831C118.435 18.7767 118.128 18.042 118.128 17.186C118.128 16.33 118.435 15.5953 119.041 14.9889C119.648 14.3826 120.382 14.0759 121.238 14.0759H126.945C127.665 14.0759 128.279 13.8262 128.785 13.3197C129.292 12.8133 129.542 12.1998 129.542 11.4793C129.542 10.7589 129.292 10.1454 128.785 9.63894C128.279 9.13247 127.665 8.8828 126.945 8.8828H112.935V28.6065Z" fill="#ED1C24"/>
<path d="M140.398 17.1862C140.398 13.1701 141.818 9.74611 144.657 6.91418C147.496 4.07511 150.92 2.65558 154.929 2.65558C158.938 2.65558 162.369 4.07511 165.201 6.91418C168.04 9.75325 169.46 13.1772 169.46 17.1862V28.6066C169.46 29.4626 169.153 30.1974 168.547 30.8037C167.94 31.41 167.205 31.7168 166.349 31.7168C165.493 31.7168 164.759 31.41 164.152 30.8037C163.546 30.1974 163.239 29.4626 163.239 28.6066V23.4136H146.633V28.6066C146.633 29.4626 146.326 30.1974 145.72 30.8037C145.114 31.41 144.379 31.7168 143.516 31.7168C142.653 31.7168 141.925 31.41 141.319 30.8037C140.712 30.1974 140.406 29.4626 140.406 28.6066V17.1862H140.398ZM163.232 17.1862C163.232 14.8892 162.426 12.9276 160.807 11.3083C159.188 9.68905 157.226 8.88298 154.929 8.88298C152.632 8.88298 150.67 9.68905 149.051 11.3083C147.432 12.9276 146.626 14.8821 146.626 17.1862H163.232Z" fill="#ED1C24"/>
<path d="M200.033 2.65569C200.889 2.65569 201.624 2.96243 202.23 3.56876C202.837 4.17509 203.143 4.90983 203.143 5.76583C203.143 6.62183 202.837 7.35656 202.23 7.96289C201.624 8.56923 200.889 8.87596 200.033 8.87596H188.613C186.316 8.87596 184.354 9.68203 182.735 11.3013C181.116 12.9206 180.309 14.8751 180.309 17.1792C180.309 19.4832 181.116 21.4378 182.735 23.057C184.354 24.6763 186.309 25.4824 188.613 25.4824H196.916V20.2893H188.613C187.757 20.2893 187.022 19.9826 186.416 19.3762C185.809 18.7699 185.502 18.0352 185.502 17.1792C185.502 16.3232 185.809 15.5884 186.416 14.9821C187.022 14.3758 187.757 14.069 188.613 14.069H200.033C200.889 14.069 201.624 14.3758 202.23 14.9821C202.837 15.5884 203.143 16.3232 203.143 17.1792V28.5996C203.143 29.4556 202.837 30.1904 202.23 30.7967C201.624 31.403 200.889 31.7098 200.033 31.7098H188.613C184.597 31.7098 181.173 30.2902 178.341 27.4512C175.502 24.6121 174.082 21.1881 174.082 17.1792C174.082 13.1702 175.502 9.73909 178.341 6.90716C181.18 4.06809 184.604 2.64856 188.613 2.64856H200.033V2.65569Z" fill="#ED1C24"/>
<path d="M207.772 5.77267C207.772 4.91667 208.079 4.18194 208.686 3.5756C209.292 2.96927 210.027 2.66254 210.883 2.66254C211.739 2.66254 212.473 2.96927 213.087 3.5756C213.693 4.18194 214 4.91667 214 5.77267V28.6065C214 29.4625 213.693 30.1972 213.087 30.8035C212.48 31.4099 211.746 31.7166 210.883 31.7166C210.019 31.7166 209.292 31.4099 208.686 30.8035C208.079 30.1972 207.772 29.4625 207.772 28.6065V5.77267Z" fill="#ED1C24"/>
<path d="M59.6152 53.2651C59.6152 53.5073 59.5293 53.7143 59.3574 53.8862C59.1855 54.058 58.9785 54.144 58.7363 54.144C58.4941 54.144 58.2871 54.058 58.1152 53.8862C57.9434 53.7143 57.8574 53.5073 57.8574 53.2651V50.0424C57.8574 49.8002 57.9434 49.5932 58.1152 49.4213C58.2871 49.2495 58.4941 49.1635 58.7363 49.1635C58.9785 49.1635 59.1855 49.2495 59.3574 49.4213C59.5293 49.5932 59.6152 49.8002 59.6152 50.0424V53.2651ZM54.6348 50.0424C54.6348 49.8002 54.7207 49.5932 54.8926 49.4213C55.0645 49.2495 55.2715 49.1635 55.5137 49.1635C55.7559 49.1635 55.9629 49.2495 56.1348 49.4213C56.3066 49.5932 56.3926 49.8002 56.3926 50.0424V53.2651C56.3926 53.9135 56.6211 54.4662 57.0781 54.9233C57.5352 55.3803 58.0879 55.6088 58.7363 55.6088C59.3848 55.6088 59.9375 55.3803 60.3945 54.9233C60.8516 54.4662 61.0801 53.9135 61.0801 53.2651V50.0424C61.0801 49.8002 61.166 49.5932 61.3379 49.4213C61.5098 49.2495 61.7168 49.1635 61.959 49.1635C62.2012 49.1635 62.4082 49.2495 62.5801 49.4213C62.752 49.5932 62.8379 49.8002 62.8379 50.0424V53.2651C62.8379 54.3979 62.4375 55.3647 61.6367 56.1655C60.8359 56.9662 59.8691 57.3666 58.7363 57.3666C57.6035 57.3666 56.6367 56.9662 55.8359 56.1655C55.0352 55.3647 54.6348 54.3979 54.6348 53.2651V50.0424ZM67.5254 54.144C67.2832 54.144 67.0762 54.058 66.9043 53.8862C66.7324 53.7143 66.6465 53.5073 66.6465 53.2651C66.6465 53.0229 66.7324 52.8159 66.9043 52.644C67.0762 52.4721 67.2832 52.3862 67.5254 52.3862H70.748C70.9902 52.3862 71.1973 52.4721 71.3691 52.644C71.541 52.8159 71.627 53.0229 71.627 53.2651C71.627 53.5073 71.541 53.7143 71.3691 53.8862C71.1973 54.058 70.9902 54.144 70.748 54.144H67.5254ZM70.748 49.1635C70.9902 49.1635 71.1973 49.2495 71.3691 49.4213C71.541 49.5932 71.627 49.8002 71.627 50.0424C71.627 50.2846 71.541 50.4916 71.3691 50.6635C71.1973 50.8354 70.9902 50.9213 70.748 50.9213H67.5254C66.877 50.9213 66.3242 51.1498 65.8672 51.6069C65.4102 52.0639 65.1816 52.6166 65.1816 53.2651C65.1816 53.9135 65.4102 54.4662 65.8672 54.9233C66.3242 55.3803 66.877 55.6088 67.5254 55.6088H70.748C70.9902 55.6088 71.1973 55.6948 71.3691 55.8666C71.541 56.0385 71.627 56.2455 71.627 56.4877C71.627 56.7299 71.541 56.937 71.3691 57.1088C71.1973 57.2807 70.9902 57.3666 70.748 57.3666H67.5254C66.3926 57.3666 65.4258 56.9662 64.625 56.1655C63.8242 55.3647 63.4238 54.3979 63.4238 53.2651C63.4238 52.1323 63.8242 51.1655 64.625 50.3647C65.4258 49.5639 66.3926 49.1635 67.5254 49.1635H70.748ZM82.1914 50.3647C82.3633 50.5366 82.4492 50.7436 82.4492 50.9858C82.4492 51.228 82.3633 51.435 82.1914 51.6069C82.0195 51.7787 81.8125 51.8647 81.5703 51.8647C81.3281 51.8647 81.1211 51.7787 80.9492 51.6069C80.4883 51.1498 79.9355 50.9213 79.291 50.9213C78.6426 50.9213 78.0898 51.1498 77.6328 51.6069C77.1758 52.0639 76.9473 52.6166 76.9473 53.2651C76.9473 53.9096 77.1758 54.4604 77.6328 54.9174C78.0898 55.3745 78.6426 55.6049 79.291 55.6088C79.9395 55.6049 80.4922 55.3764 80.9492 54.9233C81.1211 54.7514 81.3281 54.6655 81.5703 54.6655C81.8125 54.6655 82.0195 54.7514 82.1914 54.9233C82.3633 55.0952 82.4492 55.3022 82.4492 55.5444C82.4492 55.7866 82.3633 55.9936 82.1914 56.1655C81.3906 56.9662 80.4238 57.3666 79.291 57.3666C78.1582 57.3666 77.1914 56.9662 76.3906 56.1655C75.5898 55.3647 75.1895 54.3979 75.1895 53.2651C75.1895 52.1323 75.5898 51.1655 76.3906 50.3647C77.1914 49.5639 78.1582 49.1635 79.291 49.1635C80.4238 49.1635 81.3906 49.5639 82.1914 50.3647ZM87.2012 49.1635C88.334 49.1635 89.3008 49.5639 90.1016 50.3647C90.9023 51.1655 91.3027 52.1323 91.3027 53.2651C91.3027 54.3979 90.9023 55.3647 90.1016 56.1655C89.3008 56.9662 88.334 57.3666 87.2012 57.3666C86.0684 57.3666 85.1016 56.9662 84.3008 56.1655C83.5 55.3647 83.0996 54.3979 83.0996 53.2651C83.0996 52.1323 83.5 51.1655 84.3008 50.3647C85.1016 49.5639 86.0684 49.1635 87.2012 49.1635ZM87.2012 50.9213C86.5527 50.9213 86 51.1498 85.543 51.6069C85.0859 52.0639 84.8574 52.6166 84.8574 53.2651C84.8574 53.9135 85.0859 54.4662 85.543 54.9233C86 55.3803 86.5527 55.6088 87.2012 55.6088C87.8496 55.6088 88.4023 55.3803 88.8594 54.9233C89.3164 54.4662 89.5449 53.9135 89.5449 53.2651C89.5449 52.6166 89.3164 52.0639 88.8594 51.6069C88.4023 51.1498 87.8496 50.9213 87.2012 50.9213ZM95.1113 53.2651C95.1113 53.0229 95.1973 52.8159 95.3691 52.644C95.541 52.4721 95.748 52.3862 95.9902 52.3862C96.2324 52.3862 96.4395 52.4721 96.6113 52.644C96.7832 52.8159 96.8691 53.0229 96.8691 53.2651V56.4877C96.8691 56.7299 96.7832 56.937 96.6113 57.1088C96.4395 57.2807 96.2324 57.3666 95.9902 57.3666C95.748 57.3666 95.541 57.2807 95.3691 57.1088C95.1973 56.937 95.1113 56.7299 95.1113 56.4877V53.2651ZM100.092 56.4877C100.092 56.7299 100.006 56.937 99.834 57.1088C99.6621 57.2807 99.4551 57.3666 99.2129 57.3666C98.9707 57.3666 98.7637 57.2807 98.5918 57.1088C98.4199 56.937 98.334 56.7299 98.334 56.4877V53.2651C98.334 52.6166 98.1055 52.0639 97.6484 51.6069C97.1914 51.1498 96.6387 50.9213 95.9902 50.9213C95.3418 50.9213 94.7891 51.1498 94.332 51.6069C93.875 52.0639 93.6465 52.6166 93.6465 53.2651V56.4877C93.6465 56.7299 93.5605 56.937 93.3887 57.1088C93.2168 57.2807 93.0098 57.3666 92.7676 57.3666C92.5254 57.3666 92.3184 57.2807 92.1465 57.1088C91.9746 56.937 91.8887 56.7299 91.8887 56.4877V53.2651C91.8887 52.1323 92.2891 51.1655 93.0898 50.3647C93.8906 49.5639 94.8574 49.1635 95.9902 49.1635C97.123 49.1635 98.0898 49.5639 98.8906 50.3647C99.6914 51.1655 100.092 52.1323 100.092 53.2651V56.4877ZM104.779 54.144C104.537 54.144 104.33 54.058 104.158 53.8862C103.986 53.7143 103.9 53.5073 103.9 53.2651C103.9 53.0229 103.986 52.8159 104.158 52.644C104.33 52.4721 104.537 52.3862 104.779 52.3862H108.002C108.244 52.3862 108.451 52.4721 108.623 52.644C108.795 52.8159 108.881 53.0229 108.881 53.2651C108.881 53.5073 108.795 53.7143 108.623 53.8862C108.451 54.058 108.244 54.144 108.002 54.144H104.779ZM108.002 49.1635C108.244 49.1635 108.451 49.2495 108.623 49.4213C108.795 49.5932 108.881 49.8002 108.881 50.0424C108.881 50.2846 108.795 50.4916 108.623 50.6635C108.451 50.8354 108.244 50.9213 108.002 50.9213H104.779C104.131 50.9213 103.578 51.1498 103.121 51.6069C102.664 52.0639 102.436 52.6166 102.436 53.2651C102.436 53.9135 102.664 54.4662 103.121 54.9233C103.578 55.3803 104.131 55.6088 104.779 55.6088H108.002C108.244 55.6088 108.451 55.6948 108.623 55.8666C108.795 56.0385 108.881 56.2455 108.881 56.4877C108.881 56.7299 108.795 56.937 108.623 57.1088C108.451 57.2807 108.244 57.3666 108.002 57.3666H104.779C103.646 57.3666 102.68 56.9662 101.879 56.1655C101.078 55.3647 100.678 54.3979 100.678 53.2651C100.678 52.1323 101.078 51.1655 101.879 50.3647C102.68 49.5639 103.646 49.1635 104.779 49.1635H108.002ZM113.322 50.9213C113.08 50.9213 112.873 50.8354 112.701 50.6635C112.529 50.4916 112.443 50.2846 112.443 50.0424C112.443 49.8002 112.529 49.5932 112.701 49.4213C112.873 49.2495 113.08 49.1635 113.322 49.1635H119.768C120.01 49.1635 120.217 49.2495 120.389 49.4213C120.561 49.5932 120.646 49.8002 120.646 50.0424C120.646 50.2846 120.561 50.4916 120.389 50.6635C120.217 50.8354 120.01 50.9213 119.768 50.9213H117.424V56.4877C117.424 56.7299 117.338 56.937 117.166 57.1088C116.994 57.2807 116.787 57.3666 116.545 57.3666C116.303 57.3666 116.096 57.2807 115.924 57.1088C115.752 56.937 115.666 56.7299 115.666 56.4877V50.9213H113.322ZM125.334 49.1635C126.467 49.1635 127.434 49.5639 128.234 50.3647C129.035 51.1655 129.436 52.1323 129.436 53.2651C129.436 54.3979 129.035 55.3647 128.234 56.1655C127.434 56.9662 126.467 57.3666 125.334 57.3666C124.201 57.3666 123.234 56.9662 122.434 56.1655C121.633 55.3647 121.232 54.3979 121.232 53.2651C121.232 52.1323 121.633 51.1655 122.434 50.3647C123.234 49.5639 124.201 49.1635 125.334 49.1635ZM125.334 50.9213C124.686 50.9213 124.133 51.1498 123.676 51.6069C123.219 52.0639 122.99 52.6166 122.99 53.2651C122.99 53.9135 123.219 54.4662 123.676 54.9233C124.133 55.3803 124.686 55.6088 125.334 55.6088C125.982 55.6088 126.535 55.3803 126.992 54.9233C127.449 54.4662 127.678 53.9135 127.678 53.2651C127.678 52.6166 127.449 52.0639 126.992 51.6069C126.535 51.1498 125.982 50.9213 125.334 50.9213ZM139.701 49.4213C139.873 49.2495 140.08 49.1635 140.322 49.1635C140.564 49.1635 140.771 49.2495 140.943 49.4213C141.115 49.5932 141.201 49.8002 141.201 50.0424C141.201 50.2846 141.115 50.4916 140.943 50.6635L137.979 53.6284V56.4877C137.979 56.7299 137.893 56.937 137.721 57.1088C137.549 57.2807 137.342 57.3666 137.1 57.3666C136.857 57.3666 136.65 57.2807 136.479 57.1088C136.307 56.937 136.221 56.7299 136.221 56.4877V53.6284L133.256 50.6635C133.084 50.4916 132.998 50.2846 132.998 50.0424C132.998 49.8002 133.084 49.5932 133.256 49.4213C133.428 49.2495 133.635 49.1635 133.877 49.1635C134.119 49.1635 134.326 49.2495 134.498 49.4213L137.1 52.0229L139.701 49.4213ZM145.889 49.1635C147.021 49.1635 147.988 49.5639 148.789 50.3647C149.59 51.1655 149.99 52.1323 149.99 53.2651C149.99 54.3979 149.59 55.3647 148.789 56.1655C147.988 56.9662 147.021 57.3666 145.889 57.3666C144.756 57.3666 143.789 56.9662 142.988 56.1655C142.188 55.3647 141.787 54.3979 141.787 53.2651C141.787 52.1323 142.188 51.1655 142.988 50.3647C143.789 49.5639 144.756 49.1635 145.889 49.1635ZM145.889 50.9213C145.24 50.9213 144.688 51.1498 144.23 51.6069C143.773 52.0639 143.545 52.6166 143.545 53.2651C143.545 53.9135 143.773 54.4662 144.23 54.9233C144.688 55.3803 145.24 55.6088 145.889 55.6088C146.537 55.6088 147.09 55.3803 147.547 54.9233C148.004 54.4662 148.232 53.9135 148.232 53.2651C148.232 52.6166 148.004 52.0639 147.547 51.6069C147.09 51.1498 146.537 50.9213 145.889 50.9213ZM150.576 50.0424C150.576 49.8002 150.662 49.5932 150.834 49.4213C151.006 49.2495 151.213 49.1635 151.455 49.1635C151.697 49.1635 151.904 49.2495 152.076 49.4213C152.248 49.5932 152.334 49.8002 152.334 50.0424V53.2651C152.334 53.9135 152.562 54.4662 153.02 54.9233C153.477 55.3803 154.029 55.6088 154.678 55.6088C155.326 55.6088 155.879 55.3803 156.336 54.9233C156.793 54.4662 157.021 53.9135 157.021 53.2651V50.0424C157.021 49.8002 157.107 49.5932 157.279 49.4213C157.451 49.2495 157.658 49.1635 157.9 49.1635C158.143 49.1635 158.35 49.2495 158.521 49.4213C158.693 49.5932 158.779 49.8002 158.779 50.0424V53.2651C158.779 54.3979 158.379 55.3647 157.578 56.1655C156.777 56.9662 155.811 57.3666 154.678 57.3666C153.545 57.3666 152.578 56.9662 151.777 56.1655C150.977 55.3647 150.576 54.3979 150.576 53.2651V50.0424Z" fill="#231F20"/>
</svg>
