<svg width="80" height="80" viewBox="0 0 80 80" fill="none" xmlns="http://www.w3.org/2000/svg">
<g filter="url(#filter0_d_205_1409)">
<circle cx="32" cy="32" r="32" transform="matrix(1 0 0 -1 8 72)" fill="#ED1C24"/>
</g>
<path d="M34.2837 56.5138C34.6456 56.5138 35.0075 56.3805 35.2932 56.0947L47.7123 43.6757C49.7313 41.6567 49.7313 38.3424 47.7123 36.3233L35.2932 23.9043C34.7409 23.3519 33.8266 23.3519 33.2742 23.9043C32.7218 24.4567 32.7218 25.3709 33.2742 25.9233L45.6932 38.3424C46.6075 39.2567 46.6075 40.7424 45.6932 41.6567L33.2742 54.0757C32.7218 54.6281 32.7218 55.5424 33.2742 56.0947C33.5599 56.3614 33.9218 56.5138 34.2837 56.5138Z" fill="white"/>
<defs>
<filter id="filter0_d_205_1409" x="0" y="0" width="80" height="80" filterUnits="userSpaceOnUse" color-interpolation-filters="sRGB">
<feFlood flood-opacity="0" result="BackgroundImageFix"/>
<feColorMatrix in="SourceAlpha" type="matrix" values="0 0 0 0 0 0 0 0 0 0 0 0 0 0 0 0 0 0 127 0" result="hardAlpha"/>
<feMorphology radius="2" operator="dilate" in="SourceAlpha" result="effect1_dropShadow_205_1409"/>
<feOffset/>
<feGaussianBlur stdDeviation="3"/>
<feComposite in2="hardAlpha" operator="out"/>
<feColorMatrix type="matrix" values="0 0 0 0 0.219608 0 0 0 0 0.705882 0 0 0 0 0.305882 0 0 0 0.24 0"/>
<feBlend mode="normal" in2="BackgroundImageFix" result="effect1_dropShadow_205_1409"/>
<feBlend mode="normal" in="SourceGraphic" in2="effect1_dropShadow_205_1409" result="shape"/>
</filter>
</defs>
</svg>
