<svg width="198" height="69" viewBox="0 0 198 69" fill="none" xmlns="http://www.w3.org/2000/svg">
<path d="M8.82971 1H189.34C193.74 1 197.32 4.58 197.32 8.98V59.53C197.32 63.93 193.74 67.51 189.34 67.51H8.82971C4.42971 67.51 0.849609 63.93 0.849609 59.53V8.98C0.849609 4.58 4.42971 1 8.82971 1Z" stroke="white" stroke-miterlimit="10"/>
<path d="M33.2697 21.8699C32.9997 19.7299 34.0697 17.4499 35.2497 16.0599C36.5897 14.4799 38.9297 13.2699 40.7997 13.1899C41.0397 15.4199 40.1597 17.6199 38.8697 19.2299C37.5297 20.8099 35.3697 22.0399 33.2697 21.8799V21.8699Z" fill="white"/>
<path d="M48.6494 40.8298C48.6194 40.9598 47.8794 43.5598 46.0294 46.1798C44.4694 48.4998 42.8594 50.7598 40.2794 50.7998C37.7794 50.8498 36.9394 49.3198 34.0694 49.3198C31.1994 49.3198 30.2794 50.7598 27.8794 50.8498C25.4194 50.9398 23.5595 48.3797 21.9495 46.0897C18.7395 41.4097 16.2594 32.8898 19.5994 27.1098C21.2094 24.2598 24.1795 22.4398 27.3295 22.3898C29.7795 22.3498 32.0594 24.0498 33.5694 24.0498C35.0794 24.0498 37.8694 21.9998 40.7694 22.3098C41.9794 22.3498 45.4394 22.7998 47.6694 26.0498C47.4994 26.1598 43.5594 28.4698 43.5994 33.2298C43.6494 38.9198 48.5894 40.8097 48.6494 40.8397V40.8298Z" fill="white"/>
<path d="M70.2096 30.8599H66.2996L59.9795 50.5099H63.2395L64.9795 44.7399H71.3695L73.2096 50.5099H76.5596L70.2096 30.8599ZM65.5396 42.3099L67.1796 37.1899C67.6096 35.5699 67.9095 34.3299 68.1095 33.4899H68.1796C68.6596 35.4299 68.9895 36.6499 69.1595 37.1899L70.8196 42.3099H65.5396Z" fill="white"/>
<path d="M91.0897 38.0401C89.9697 36.7201 88.5897 36.0601 86.9097 36.0601C84.7797 36.0601 83.1796 36.9101 82.1296 38.6001H82.0797L81.9097 36.3501H79.1396C79.2196 37.9501 79.2596 39.4901 79.2596 41.0101V56.2701H82.4097V48.8301C83.2297 50.1701 84.5797 50.8401 86.4497 50.8401C88.1797 50.8401 89.6397 50.2301 90.8097 48.9801C92.1297 47.5801 92.7797 45.6801 92.7797 43.2701C92.7797 41.1001 92.2197 39.3701 91.0797 38.0401H91.0897ZM88.5897 46.9901C87.9197 47.8901 87.0097 48.3601 85.8197 48.3601C84.8097 48.3601 83.9896 48.0001 83.3596 47.3001C82.7396 46.5901 82.4197 45.7201 82.4197 44.6901V42.3201C82.4197 42.0701 82.4697 41.7501 82.5697 41.3601C82.7597 40.5201 83.1797 39.8601 83.8097 39.3401C84.4497 38.8401 85.1497 38.5701 85.9197 38.5701C87.0597 38.5701 87.9797 39.0401 88.6597 39.9701C89.2797 40.8601 89.5897 41.9901 89.5897 43.3701C89.5897 44.8701 89.2597 46.0701 88.5897 46.9901Z" fill="white"/>
<path d="M107.38 38.0401C106.26 36.7201 104.88 36.0601 103.2 36.0601C101.07 36.0601 99.4797 36.9101 98.4197 38.6001H98.3696L98.1997 36.3501H95.4297C95.5097 37.9501 95.5497 39.4901 95.5497 41.0101V56.2701H98.6997V48.8301C99.5297 50.1701 100.87 50.8401 102.74 50.8401C104.47 50.8401 105.93 50.2301 107.1 48.9801C108.42 47.5801 109.07 45.6801 109.07 43.2701C109.07 41.1001 108.51 39.3701 107.37 38.0401H107.38ZM104.88 46.9901C104.23 47.8901 103.3 48.3601 102.11 48.3601C101.1 48.3601 100.27 48.0001 99.6497 47.3001C99.0197 46.5901 98.6997 45.7201 98.6997 44.6901V42.3201C98.6997 42.0701 98.7496 41.7501 98.8496 41.3601C99.0496 40.5201 99.4597 39.8601 100.09 39.3401C100.73 38.8401 101.43 38.5701 102.2 38.5701C103.34 38.5701 104.26 39.0401 104.94 39.9701C105.57 40.8601 105.87 41.9901 105.87 43.3701C105.87 44.8701 105.55 46.0701 104.87 46.9901H104.88Z" fill="white"/>
<path d="M126.09 41.5898C126.9 42.5098 127.3 43.6498 127.3 45.0098C127.3 46.6898 126.71 48.0398 125.56 49.0898C124.28 50.2298 122.5 50.8098 120.21 50.8098C118.09 50.8098 116.41 50.3998 115.13 49.5898L115.86 46.9698C117.24 47.7798 118.76 48.1898 120.41 48.1898C121.59 48.1898 122.52 47.9198 123.18 47.3898C123.85 46.8598 124.18 46.1398 124.18 45.2498C124.18 44.4498 123.9 43.7898 123.37 43.2398C122.82 42.6898 121.92 42.1898 120.66 41.7198C117.19 40.4298 115.47 38.5498 115.47 36.0898C115.47 34.4798 116.08 33.1598 117.29 32.1298C118.5 31.1098 120.11 30.5898 122.12 30.5898C123.9 30.5898 125.39 30.8998 126.58 31.5198L125.78 34.0698C124.66 33.4698 123.41 33.1698 122 33.1698C120.9 33.1698 120.02 33.4499 119.39 33.9799C118.87 34.4699 118.61 35.0598 118.61 35.7598C118.61 36.5298 118.92 37.1798 119.51 37.6798C120.03 38.1498 120.99 38.6498 122.37 39.1998C124.06 39.8798 125.3 40.6798 126.1 41.5998L126.09 41.5898Z" fill="white"/>
<path d="M134.259 36.3496H137.729V38.7196H134.259V45.5996C134.259 47.3396 134.869 48.2196 136.099 48.2196C136.659 48.2196 137.119 48.1696 137.499 48.0696L137.589 50.4696C136.969 50.6996 136.149 50.8196 135.139 50.8196C133.889 50.8196 132.929 50.4296 132.229 49.6796C131.529 48.9196 131.179 47.6396 131.179 45.8596V38.7196H129.119V36.3696H131.179V33.7796L134.269 32.8496V36.3696L134.259 36.3496Z" fill="white"/>
<path d="M151.54 38.1401C150.28 36.7601 148.6 36.0601 146.53 36.0601C144.46 36.0601 142.66 36.7701 141.38 38.1601C140.12 39.5601 139.479 41.3501 139.479 43.5501C139.479 45.7501 140.09 47.3901 141.33 48.7601C142.57 50.1301 144.23 50.8201 146.31 50.8201C148.39 50.8201 150.19 50.1001 151.5 48.6601C152.74 47.2601 153.359 45.4801 153.359 43.3001C153.359 41.1201 152.76 39.4601 151.55 38.1301L151.54 38.1401ZM149.229 46.7601C148.539 47.9001 147.59 48.4801 146.4 48.4801C145.21 48.4801 144.22 47.9201 143.54 46.7901C142.98 45.8701 142.7 44.7601 142.7 43.4501C142.7 42.1401 142.97 40.9801 143.54 40.0501C144.19 38.9201 145.16 38.3601 146.43 38.3601C147.7 38.3601 148.6 38.9201 149.26 40.0501C149.82 40.9801 150.099 42.0901 150.099 43.3901C150.099 44.6901 149.81 45.8101 149.24 46.7701L149.229 46.7601Z" fill="white"/>
<path d="M163.58 36.1098V39.1198C163.29 39.0698 162.95 39.0398 162.6 39.0398C161.5 39.0398 160.63 39.4498 160.03 40.2898C159.51 41.0198 159.25 41.9698 159.25 43.0798V50.5198H156.1V40.8098C156.1 39.1698 156.07 37.6798 156.01 36.3498H158.75L158.87 39.0598H158.96C159.29 38.1298 159.81 37.3698 160.53 36.8098C161.24 36.3098 161.99 36.0498 162.81 36.0498C163.1 36.0498 163.37 36.0798 163.59 36.0998L163.58 36.1098Z" fill="white"/>
<path d="M177.669 42.76C177.669 40.99 177.239 39.51 176.409 38.29C175.369 36.77 173.819 36.02 171.779 36.02C169.739 36.02 168.059 36.78 166.829 38.29C165.659 39.71 165.069 41.5 165.069 43.63C165.069 45.76 165.689 47.54 166.949 48.83C168.199 50.12 169.929 50.77 172.119 50.77C173.939 50.77 175.529 50.48 176.869 49.89L176.379 47.71C175.239 48.15 173.959 48.38 172.559 48.38C171.299 48.38 170.269 48.05 169.469 47.4C168.589 46.67 168.139 45.59 168.099 44.19H177.539C177.619 43.81 177.659 43.33 177.659 42.77L177.669 42.76ZM168.119 41.94C168.209 40.99 168.529 40.17 169.049 39.49C169.689 38.64 170.529 38.21 171.549 38.21C172.669 38.21 173.509 38.65 174.049 39.53C174.479 40.21 174.689 41.02 174.659 41.95H168.109L168.119 41.94Z" fill="white"/>
<path d="M66.8398 14.2798C70.0998 14.2798 72.0298 16.2898 72.0298 19.7498C72.0298 23.2098 70.1098 25.2598 66.8398 25.2598H62.9697V14.2898H66.8398V14.2798ZM64.6698 23.7798H66.6798C69.0098 23.7798 70.2898 22.3598 70.2898 19.7598C70.2898 17.1598 68.9998 15.7398 66.6798 15.7398H64.6698V23.7698V23.7798Z" fill="white"/>
<path d="M73.0996 21.2499C73.0996 18.6799 74.6096 17.1099 76.8896 17.1099C79.1696 17.1099 80.6797 18.6799 80.6797 21.2499C80.6797 23.8199 79.1696 25.3999 76.8896 25.3999C74.6096 25.3999 73.0996 23.8299 73.0996 21.2499ZM79.0197 21.2499C79.0197 19.4799 78.1797 18.4599 76.8997 18.4599C75.6197 18.4599 74.7797 19.4799 74.7797 21.2499C74.7797 23.0199 75.6197 24.0499 76.8997 24.0499C78.1797 24.0499 79.0197 23.0299 79.0197 21.2499Z" fill="white"/>
<path d="M90.29 25.25H88.5801L86.9 19.26H86.86L85.1901 25.25H83.49L81.29 17.25H82.9301L84.39 23.55H84.42L86.0901 17.25H87.67L89.3401 23.55H89.38L90.8401 17.25H92.47L90.28 25.25H90.29Z" fill="white"/>
<path d="M93.4902 17.2499H95.0603V18.5899H95.1002C95.5302 17.6799 96.3902 17.1099 97.6202 17.1099C99.3802 17.1099 100.4 18.2399 100.4 20.0699V25.2499H98.7502V20.3899C98.7502 19.1899 98.1903 18.5299 97.0503 18.5299C95.9103 18.5299 95.1503 19.3499 95.1503 20.5899V25.2499H93.5103V17.2499H93.4902Z" fill="white"/>
<path d="M102.029 14.2798H103.669V25.2498H102.029V14.2798Z" fill="white"/>
<path d="M105 21.2499C105 18.6799 106.51 17.1099 108.79 17.1099C111.07 17.1099 112.58 18.6799 112.58 21.2499C112.58 23.8199 111.07 25.3999 108.79 25.3999C106.51 25.3999 105 23.8299 105 21.2499ZM110.92 21.2499C110.92 19.4799 110.08 18.4599 108.8 18.4599C107.52 18.4599 106.68 19.4799 106.68 21.2499C106.68 23.0199 107.52 24.0499 108.8 24.0499C110.08 24.0499 110.92 23.0299 110.92 21.2499Z" fill="white"/>
<path d="M113.54 22.9801C113.54 21.5801 114.61 20.7201 116.51 20.6101L118.7 20.4801V19.8601C118.7 18.9701 118.1 18.4401 117.1 18.4401C116.15 18.4401 115.56 18.9001 115.41 19.6101H113.86C113.95 18.1701 115.18 17.1001 117.16 17.1001C119.14 17.1001 120.34 18.1301 120.34 19.7301V25.2401H118.77V23.9201H118.73C118.27 24.8101 117.25 25.3701 116.21 25.3701C114.64 25.3701 113.55 24.4001 113.55 22.9601L113.54 22.9801ZM118.7 22.2601V21.6301L116.73 21.7501C115.75 21.8201 115.19 22.2501 115.19 22.9401C115.19 23.6301 115.77 24.1001 116.65 24.1001C117.8 24.1001 118.7 23.3101 118.7 22.2701V22.2601Z" fill="white"/>
<path d="M121.57 21.2498C121.57 18.7298 122.91 17.1198 124.92 17.1198C126.07 17.1198 126.98 17.6998 127.43 18.5798H127.46V14.2798H129.11V25.2498H127.51V23.8898H127.48C127.01 24.7998 126.1 25.3898 124.93 25.3898C122.91 25.3898 121.57 23.7798 121.57 21.2498ZM123.25 21.2498C123.25 22.9398 124.06 23.9998 125.36 23.9998C126.66 23.9998 127.47 22.9298 127.47 21.2498C127.47 19.5698 126.63 18.4998 125.36 18.4998C124.09 18.4998 123.25 19.5598 123.25 21.2498Z" fill="white"/>
<path d="M133.59 21.2499C133.59 18.6799 135.1 17.1099 137.38 17.1099C139.66 17.1099 141.17 18.6799 141.17 21.2499C141.17 23.8199 139.66 25.3999 137.38 25.3999C135.1 25.3999 133.59 23.8299 133.59 21.2499ZM139.51 21.2499C139.51 19.4799 138.67 18.4599 137.39 18.4599C136.11 18.4599 135.27 19.4799 135.27 21.2499C135.27 23.0199 136.11 24.0499 137.39 24.0499C138.67 24.0499 139.51 23.0299 139.51 21.2499Z" fill="white"/>
<path d="M142.45 17.2499H144.02V18.5899H144.06C144.49 17.6799 145.35 17.1099 146.58 17.1099C148.34 17.1099 149.36 18.2399 149.36 20.0699V25.2499H147.71V20.3899C147.71 19.1899 147.15 18.5299 146.01 18.5299C144.87 18.5299 144.11 19.3499 144.11 20.5899V25.2499H142.47V17.2499H142.45Z" fill="white"/>
<path d="M156.209 15.3599V17.2499H157.729V18.5499H156.209V22.9599C156.209 23.6499 156.509 23.9599 157.179 23.9599C157.349 23.9599 157.609 23.9399 157.719 23.9199V25.2199C157.539 25.2699 157.169 25.2999 156.809 25.2999C155.189 25.2999 154.559 24.6799 154.559 23.1399V18.5499H153.399V17.2499H154.559V15.3599H156.209Z" fill="white"/>
<path d="M159.14 14.28H160.77V18.59H160.81C161.25 17.65 162.13 17.11 163.34 17.11C165.1 17.11 166.15 18.28 166.15 20.09V25.25H164.5V20.41C164.5 19.23 163.91 18.52 162.75 18.52C161.53 18.52 160.79 19.36 160.79 20.62V25.24H159.15V14.27L159.14 14.28Z" fill="white"/>
<path d="M174.58 22.8999C174.35 24.3599 172.97 25.3999 171.14 25.3999C168.79 25.3999 167.37 23.8099 167.37 21.2899C167.37 18.7699 168.81 17.1099 171.07 17.1099C173.33 17.1099 174.67 18.6799 174.67 21.0999V21.6599H169.02V21.7599C169.02 23.1499 169.86 24.0699 171.17 24.0699C172.11 24.0699 172.8 23.5999 173.02 22.8999H174.58ZM169.03 20.5099H173.03C172.99 19.2899 172.22 18.4299 171.07 18.4299C169.92 18.4299 169.12 19.2999 169.03 20.5099Z" fill="white"/>
</svg>
