<svg width="198" height="69" viewBox="0 0 198 69" fill="none" xmlns="http://www.w3.org/2000/svg">
<path d="M8.67041 1H189.18C193.58 1 197.16 4.58 197.16 8.98V59.53C197.16 63.93 193.58 67.51 189.18 67.51H8.67041C4.27041 67.51 0.69043 63.93 0.69043 59.53V8.98C0.69043 4.58 4.27041 1 8.67041 1Z" stroke="white" stroke-miterlimit="10"/>
<path d="M70.3307 41.5601L67.2606 33.2501L64.2007 41.5601H70.3307ZM59.6106 47.7201L65.9806 31.0201H68.5306L74.9006 47.7201H72.5406L71.0206 43.4301H63.5006L61.9806 47.7201H59.6006H59.6106ZM79.2406 45.8401V52.4801H77.1807V35.1901H79.2406V37.0801C79.6706 36.3401 80.2206 35.7901 80.8806 35.4301C81.5506 35.0601 82.3406 34.8801 83.2506 34.8801C84.7706 34.8801 86.0107 35.4901 86.9607 36.7001C87.9207 37.9001 88.4006 39.4901 88.4006 41.4701C88.4006 43.4301 87.9207 45.0201 86.9607 46.2401C86.0107 47.4401 84.7706 48.0501 83.2506 48.0501C82.3406 48.0501 81.5506 47.8701 80.8806 47.5101C80.2206 47.1401 79.6806 46.5901 79.2406 45.8501V45.8401ZM86.2506 41.4701C86.2506 39.9601 85.9407 38.7701 85.3107 37.9001C84.7007 37.0401 83.8506 36.6001 82.7606 36.6001C81.6706 36.6001 80.8107 37.0301 80.1807 37.9001C79.5607 38.7601 79.2506 39.9501 79.2506 41.4701C79.2506 42.9901 79.5607 44.1701 80.1807 45.0401C80.8107 45.9001 81.6706 46.3201 82.7606 46.3201C83.8506 46.3201 84.7007 45.8901 85.3107 45.0401C85.9407 44.1801 86.2506 42.9901 86.2506 41.4701ZM93.7906 45.8401V52.4801H91.7206V35.1901H93.7906V37.0801C94.2206 36.3401 94.7606 35.7901 95.4106 35.4301C96.0806 35.0601 96.8707 34.8801 97.7906 34.8801C99.3006 34.8801 100.541 35.4901 101.481 36.7001C102.441 37.9001 102.921 39.4901 102.921 41.4701C102.921 43.4501 102.441 45.0201 101.481 46.2401C100.531 47.4401 99.3006 48.0501 97.7906 48.0501C96.8707 48.0501 96.0706 47.8701 95.4106 47.5101C94.7606 47.1401 94.2206 46.5901 93.7906 45.8501V45.8401ZM100.781 41.4701C100.781 39.9601 100.471 38.7701 99.8407 37.9001C99.2307 37.0401 98.3806 36.6001 97.2906 36.6001C96.2006 36.6001 95.3407 37.0301 94.7107 37.9001C94.1007 38.7601 93.7906 39.9501 93.7906 41.4701C93.7906 42.9901 94.1007 44.1701 94.7107 45.0401C95.3407 45.9001 96.2006 46.3201 97.2906 46.3201C98.3806 46.3201 99.2307 45.8901 99.8407 45.0401C100.471 44.1801 100.781 42.9901 100.781 41.4701ZM117.731 45.3301V40.8501H114.051V38.9901H119.971V46.1701C119.101 46.7901 118.131 47.2601 117.081 47.5801C116.041 47.8901 114.921 48.0501 113.721 48.0501C111.111 48.0501 109.061 47.2901 107.591 45.7701C106.121 44.2501 105.391 42.1201 105.391 39.4001C105.391 36.6801 106.121 34.5501 107.591 33.0301C109.071 31.5001 111.111 30.7301 113.721 30.7301C114.811 30.7301 115.841 30.8701 116.811 31.1401C117.801 31.4001 118.701 31.8001 119.531 32.3201V34.7301C118.691 34.0201 117.801 33.4801 116.861 33.1201C115.921 32.7601 114.931 32.5801 113.901 32.5801C111.861 32.5801 110.321 33.1501 109.291 34.2901C108.271 35.4401 107.771 37.1401 107.771 39.4001C107.771 41.6601 108.281 43.3501 109.291 44.4901C110.321 45.6301 111.861 46.2001 113.901 46.2001C114.701 46.2001 115.411 46.1301 116.041 46.0001C116.661 45.8601 117.221 45.6401 117.721 45.3501L117.731 45.3301ZM131.681 41.4101H129.641C127.981 41.4101 126.821 41.6001 126.181 41.9901C125.541 42.3701 125.221 43.0101 125.221 43.9401C125.221 44.6701 125.461 45.2601 125.941 45.6901C126.421 46.1101 127.071 46.3201 127.901 46.3201C129.051 46.3201 129.961 45.9201 130.651 45.1101C131.341 44.3001 131.681 43.2201 131.681 41.8801V41.4101ZM133.741 40.5601V47.7101H131.681V45.8101C131.211 46.5701 130.631 47.1401 129.931 47.5001C129.221 47.8601 128.361 48.0401 127.351 48.0401C126.071 48.0401 125.051 47.6801 124.291 46.9701C123.541 46.2501 123.161 45.2801 123.161 44.0601C123.161 42.6601 123.631 41.6001 124.571 40.8701C125.521 40.1601 126.931 39.8001 128.801 39.8001H131.681V39.6001C131.681 38.6501 131.371 37.9201 130.751 37.4001C130.131 36.8801 129.261 36.6201 128.131 36.6201C127.421 36.6201 126.721 36.7001 126.041 36.8701C125.361 37.0401 124.711 37.3001 124.081 37.6501V35.7501C124.831 35.4601 125.571 35.2401 126.281 35.1001C126.991 34.9501 127.671 34.8701 128.341 34.8701C130.151 34.8701 131.511 35.3401 132.401 36.2801C133.291 37.2201 133.741 38.6401 133.741 40.5501V40.5601ZM137.981 47.7101V30.3101H140.041V47.7101H137.981ZM144.341 47.7101V30.3101H146.401V47.7101H144.341ZM161.361 40.9301V41.9501H151.901C151.981 43.3601 152.411 44.4401 153.171 45.1901C153.941 45.9201 155.011 46.2901 156.371 46.2901C157.161 46.2901 157.921 46.2001 158.651 46.0101C159.401 45.8101 160.141 45.5201 160.861 45.1401V47.0901C160.131 47.4001 159.371 47.6401 158.591 47.8101C157.821 47.9701 157.031 48.0501 156.231 48.0501C154.241 48.0501 152.651 47.4701 151.481 46.3001C150.311 45.1401 149.731 43.5701 149.731 41.5901C149.731 39.6101 150.281 37.9001 151.391 36.7101C152.501 35.5001 153.991 34.8901 155.871 34.8901C157.551 34.8901 158.881 35.4401 159.861 36.5301C160.851 37.6101 161.341 39.0801 161.341 40.9401L161.361 40.9301ZM151.951 40.3401H159.301C159.281 39.2101 158.961 38.3101 158.341 37.6301C157.731 36.9601 156.921 36.6301 155.901 36.6301C154.751 36.6301 153.831 36.9501 153.141 37.6001C152.451 38.2501 152.061 39.1601 151.961 40.3401H151.951ZM171.901 35.0001V37.1201C171.681 36.9901 171.431 36.8901 171.151 36.8201C170.881 36.7501 170.581 36.7201 170.261 36.7201C169.091 36.7201 168.201 37.1001 167.571 37.8601C166.951 38.6101 166.641 39.7001 166.641 41.1201V47.7201H164.581V35.2001H166.641V37.1501C167.071 36.3901 167.641 35.8201 168.331 35.4601C169.031 35.0801 169.871 34.9001 170.851 34.9001C170.991 34.9001 171.151 34.9101 171.331 34.9401C171.501 34.9401 171.691 34.9701 171.891 35.0101L171.901 35.0001ZM184.791 35.2001L179.291 48.8801C178.711 50.3701 178.141 51.3501 177.581 51.8101C177.031 52.2601 176.291 52.4901 175.371 52.4901H173.721V50.7701H174.931C175.491 50.7701 175.941 50.6301 176.261 50.3601C176.571 50.1001 176.911 49.4601 177.291 48.4601L177.671 47.5301L172.591 35.2001H174.781L178.701 44.9901L182.611 35.2001H184.801H184.791Z" fill="white"/>
<path d="M59.4905 25.1499V16.5299H64.9305V17.4999H60.6405V20.0499H64.7405V21.0399H60.6405V24.1599H65.0405V25.1499H59.4805H59.4905ZM69.2205 20.5499L66.5405 16.5299H67.8005L69.9406 19.7299L72.0806 16.5299H73.3406L70.5806 20.6599L73.5305 25.1399H72.2705L69.8605 21.4699L67.4105 25.1399H66.1505L69.2205 20.5399V20.5499ZM77.6805 17.4899H76.2106V20.7199H77.6805C78.2305 20.7199 78.6506 20.5799 78.9506 20.3099C79.2406 20.0299 79.3905 19.6199 79.3905 19.0999C79.3905 18.5899 79.2406 18.1999 78.9506 17.9199C78.6506 17.6399 78.2305 17.4999 77.6805 17.4999V17.4899ZM75.0605 25.1499V16.5299H77.6805C78.6505 16.5299 79.3805 16.7499 79.8805 17.1799C80.3705 17.6199 80.6105 18.2599 80.6105 19.0999C80.6105 19.9399 80.3705 20.5999 79.8805 21.0299C79.3805 21.4599 78.6505 21.6799 77.6805 21.6799H76.2106V25.1499H75.0505H75.0605ZM82.1805 25.1499V16.5299H83.3505V24.1599H87.5505V25.1499H82.1805ZM91.8505 17.3199C91.0005 17.3199 90.3306 17.6299 89.8206 18.2599C89.3306 18.8899 89.0906 19.7499 89.0906 20.8399C89.0906 21.9299 89.3306 22.7799 89.8206 23.4199C90.3306 24.0499 91.0005 24.3599 91.8505 24.3599C92.7005 24.3599 93.3605 24.0499 93.8505 23.4199C94.3505 22.7799 94.6005 21.9199 94.6005 20.8399C94.6005 19.7599 94.3505 18.8899 93.8505 18.2599C93.3605 17.6299 92.6905 17.3199 91.8505 17.3199ZM91.8505 16.3799C93.0505 16.3799 94.0205 16.7799 94.7405 17.5899C95.4605 18.3999 95.8306 19.4799 95.8306 20.8499C95.8306 22.2199 95.4705 23.2999 94.7405 24.1099C94.0205 24.9199 93.0505 25.3199 91.8505 25.3199C90.6505 25.3199 89.6605 24.9199 88.9305 24.1099C88.2105 23.2999 87.8406 22.2199 87.8406 20.8499C87.8406 19.4899 88.2005 18.3999 88.9305 17.5899C89.6605 16.7799 90.6405 16.3799 91.8505 16.3799ZM101.74 21.0999C101.99 21.1799 102.24 21.3699 102.47 21.6499C102.71 21.9199 102.941 22.2999 103.191 22.7899L104.37 25.1499H103.11L102.01 22.9399C101.72 22.3699 101.441 21.9899 101.181 21.7999C100.911 21.6099 100.541 21.5199 100.081 21.5199H98.8105V25.1599H97.6405V16.5399H100.281C101.271 16.5399 102.01 16.7499 102.49 17.1599C102.97 17.5599 103.211 18.1799 103.211 19.0199C103.211 19.5699 103.081 20.0199 102.831 20.3699C102.581 20.7299 102.21 20.9699 101.73 21.0999H101.74ZM100.291 17.4899H98.8206V20.5499H100.291C100.851 20.5499 101.281 20.4199 101.561 20.1599C101.851 19.8999 102 19.5199 102 19.0199C102 18.5199 101.851 18.1299 101.561 17.8799C101.281 17.6299 100.851 17.4999 100.291 17.4999V17.4899ZM105.87 25.1499V16.5299H111.311V17.4999H107.041V20.0499H111.141V21.0399H107.041V24.1599H111.431V25.1499H105.87ZM117.1 25.1499V16.5299H118.271V25.1499H117.1ZM119.401 17.5099V16.5399H126.691V17.5099H123.63V25.1499H122.461V17.5099H119.401ZM135.071 17.3299C134.221 17.3299 133.551 17.6399 133.051 18.2699C132.551 18.8999 132.301 19.7599 132.301 20.8499C132.301 21.9399 132.551 22.7899 133.051 23.4299C133.551 24.0599 134.221 24.3699 135.071 24.3699C135.921 24.3699 136.591 24.0599 137.091 23.4299C137.581 22.7899 137.821 21.9299 137.821 20.8499C137.821 19.7699 137.581 18.8999 137.091 18.2699C136.591 17.6399 135.921 17.3299 135.071 17.3299ZM135.071 16.3899C136.281 16.3899 137.25 16.7899 137.98 17.5999C138.7 18.4099 139.071 19.4899 139.071 20.8599C139.071 22.2299 138.71 23.3099 137.98 24.1199C137.26 24.9299 136.291 25.3299 135.071 25.3299C133.851 25.3299 132.891 24.9299 132.161 24.1199C131.441 23.3099 131.071 22.2299 131.071 20.8599C131.071 19.4899 131.431 18.4099 132.161 17.5999C132.881 16.7899 133.851 16.3899 135.071 16.3899ZM140.88 25.1599V16.5399H142.451L146.271 23.7499V16.5399H147.411V25.1599H145.831L142.01 17.9499V25.1599H140.88Z" fill="white"/>
<path d="M38.8501 16.5698H23.5101C16.2801 16.5698 13.6201 19.2098 13.6201 26.4398V41.7798C13.6201 49.0098 16.2701 51.6698 23.5101 51.6698H38.8501C46.0701 51.6698 48.7201 49.0198 48.7201 41.7798V26.4398C48.7201 19.2098 46.0801 16.5698 38.8501 16.5698Z" fill="#C80F2E"/>
<path fill-rule="evenodd" clip-rule="evenodd" d="M28.6 37.7497L28.1801 38.6897H27.24L29.26 34.1097H30.0801L32.1 38.6897H31.13L30.72 37.7497H28.62H28.6ZM28.9401 36.9197H30.35L29.64 35.2797L28.9301 36.9197H28.9401ZM43.89 34.1097H44.8201V38.6897H43.89V34.1097ZM40.24 37.8597H42.79V38.6897H39.3201V34.1097H42.6901V34.9597H40.24V35.8897H41.9301V36.7397H40.24V37.8697V37.8597ZM37.6 34.1097H38.5701L36.98 38.7097H36.1901L35.15 35.6897L34.11 38.7097H33.35L31.74 34.1097H32.74L33.76 37.2697L34.79 34.1097H35.55L36.5901 37.2697L37.61 34.1097H37.6ZM25.8201 34.1097H26.75V36.6997C26.75 38.0097 26.03 38.7697 24.76 38.7697C23.49 38.7697 22.8 38.0197 22.8 36.7297V34.1097H23.73V36.6997C23.73 37.4797 24.1 37.8797 24.77 37.8797C25.44 37.8797 25.8101 37.4697 25.8101 36.7197V34.0997L25.8201 34.1097ZM20.5701 34.1097H21.5V38.7097H20.5701V36.8297H18.47V38.7097H17.54V34.1097H18.47V35.9597H20.5701V34.1097ZM31.1801 28.2697C27.9501 28.2697 25.3401 25.6497 25.3401 22.4297H26.16C26.16 25.1897 28.4201 27.4397 31.1801 27.4397C33.9401 27.4397 36.2001 25.1997 36.2001 22.4297H37.02C37.02 25.6497 34.4001 28.2697 31.1801 28.2697Z" fill="white"/>
</svg>
