<svg width="112" height="112" viewBox="0 0 112 112" fill="none" xmlns="http://www.w3.org/2000/svg">
<g clip-path="url(#clip0_205_2274)">
<path d="M21 0C15.4305 0 10.089 2.21249 6.15076 6.15076C2.21249 10.089 0 15.4305 0 21L0 91C0 96.5695 2.21249 101.911 6.15076 105.849C10.089 109.788 15.4305 112 21 112H91C96.5695 112 101.911 109.788 105.849 105.849C109.788 101.911 112 96.5695 112 91V21C112 15.4305 109.788 10.089 105.849 6.15076C101.911 2.21249 96.5695 0 91 0L21 0ZM56 66.5C53.2152 66.5 50.5445 65.3938 48.5754 63.4246C46.6062 61.4555 45.5 58.7848 45.5 56C45.5 53.2152 46.6062 50.5445 48.5754 48.5754C50.5445 46.6062 53.2152 45.5 56 45.5C58.7848 45.5 61.4555 46.6062 63.4246 48.5754C65.3938 50.5445 66.5 53.2152 66.5 56C66.5 58.7848 65.3938 61.4555 63.4246 63.4246C61.4555 65.3938 58.7848 66.5 56 66.5Z" fill="#ED1C24"/>
</g>
<defs>
<clipPath id="clip0_205_2274">
<rect width="112" height="112" fill="white"/>
</clipPath>
</defs>
</svg>
