<svg width="55" height="55" viewBox="0 0 55 55" fill="none" xmlns="http://www.w3.org/2000/svg">
<path d="M25.1153 0.359432C26.6962 0.121156 28.3038 0.121156 29.8847 0.359432L33.2211 0.862317C34.8019 1.10059 36.3382 1.57445 37.7786 2.26811L40.8185 3.73207C42.2589 4.42573 43.5872 5.33135 44.7591 6.41875L47.2325 8.71372C48.4045 9.80112 49.4068 11.058 50.2062 12.4425L51.8932 15.3646C52.6926 16.7491 53.2799 18.2456 53.6357 19.8043L54.3865 23.0938C54.7422 24.6524 54.8624 26.2555 54.7429 27.8498L54.4907 31.2145C54.3713 32.8087 54.0135 34.376 53.4295 35.8642L52.1968 39.0051C51.6127 40.4933 50.8089 41.8856 49.8121 43.1355L47.7084 45.7734C46.7116 47.0234 45.5331 48.1169 44.2122 49.0174L41.4244 50.9181C40.1034 51.8187 38.655 52.5162 37.1273 52.9875L33.9031 53.982C32.3754 54.4532 30.7858 54.6928 29.187 54.6928H25.813C24.2142 54.6928 22.6246 54.4532 21.0969 53.982L17.8727 52.9875C16.345 52.5162 14.8965 51.8187 13.5756 50.9181L10.7878 49.0174C9.4669 48.1169 8.28841 47.0234 7.29163 45.7735L5.18792 43.1355C4.19114 41.8856 3.38732 40.4933 2.80324 39.0051L1.57054 35.8642C0.986467 34.376 0.628734 32.8087 0.509262 31.2145L0.257115 27.8498C0.137643 26.2555 0.257782 24.6524 0.613529 23.0938L1.36434 19.8043C1.72009 18.2456 2.30742 16.7491 3.10678 15.3646L4.79383 12.4425C5.59318 11.058 6.59553 9.80112 7.76747 8.71372L10.2409 6.41875C11.4128 5.33135 12.7411 4.42573 14.1815 3.73207L17.2214 2.26811C18.6618 1.57445 20.1981 1.10059 21.7789 0.862316L25.1153 0.359432Z" fill="#ED1C24" fill-opacity="0.24"/>
<path d="M21.186 35.233L34.1465 20.35" stroke="#ED1C24" stroke-width="5" stroke-linecap="round"/>
<path d="M34.3896 35.014L20.9429 20.5688" stroke="#ED1C24" stroke-width="5" stroke-linecap="round"/>
</svg>
