<svg width="58" height="58" viewBox="0 0 58 58" fill="none" xmlns="http://www.w3.org/2000/svg">
<path d="M15.8533 38.1267L18.27 35.7816C18.4894 35.5759 18.7789 35.4615 19.0796 35.4615C19.3803 35.4615 19.6697 35.5759 19.8892 35.7816C22.0883 37.8608 25.0367 39.0213 28.0817 38.9729C31.2233 38.9729 33.3258 37.6432 33.3258 35.5398C33.3258 33.6403 31.5914 33.0027 28.3005 31.7929C27.9474 31.6631 27.5763 31.5267 27.1875 31.3814L15.8533 38.1267ZM15.8533 38.1267C15.7452 38.2345 15.6594 38.3626 15.6008 38.5037C15.5423 38.6448 15.5122 38.796 15.5122 38.9487C15.5122 39.1015 15.5423 39.2527 15.6008 39.3938C15.6594 39.5348 15.7452 39.6629 15.8533 39.7707M15.8533 38.1267L27.0157 31.851M27.0157 31.851C24.8785 31.0855 22.7319 30.1414 21.1174 28.7194C19.4806 27.2778 18.3983 25.3505 18.3983 22.6778C18.3983 19.5943 19.6872 17.2724 21.7424 15.7014C23.6899 14.2128 26.2978 13.4171 29.0943 13.2307L29.6217 10.6349L29.6226 10.6305C29.703 10.2524 29.9128 9.91413 30.2158 9.67413C30.5173 9.43536 30.8923 9.30872 31.2766 9.31576H35.5733H35.5983L35.6231 9.31824L35.8648 9.34241L35.8965 9.34558L35.9275 9.35275C36.8002 9.55424 37.4046 10.4061 37.1983 11.3219L36.6313 14.2002C38.7104 14.9477 40.6723 16.064 42.3737 17.5098L42.3892 17.5229L42.4036 17.5373L42.452 17.5856L42.461 17.5947L42.4609 17.5948C43.0914 18.2588 43.1197 19.2985 42.4476 19.941L40.2045 22.1851L40.1981 22.1915L40.1914 22.1976C39.8818 22.4858 39.4763 22.6488 39.0534 22.6551C38.6321 22.6614 38.2234 22.5118 37.9059 22.2351C35.8198 20.4739 33.179 19.5062 30.4494 19.5029C29.3198 19.503 28.2388 19.6914 27.4595 20.1012C26.7042 20.4985 26.2617 21.0799 26.2617 21.9283C26.2617 22.7664 26.7209 23.3566 27.6364 23.9011C28.416 24.3648 29.435 24.7408 30.6055 25.1728C30.8449 25.2611 31.0907 25.3518 31.342 25.4461C33.8829 26.2938 36.2743 27.271 38.0329 28.6962C39.8194 30.1438 40.955 32.0569 40.955 34.7178C40.955 37.5661 39.8441 39.99 37.8226 41.7468C35.8828 43.4326 33.1357 44.4787 29.7958 44.7405L29.2478 47.2708C29.2477 47.2715 29.2475 47.2722 29.2474 47.2729C29.1681 47.6512 28.9611 47.9907 28.6612 48.2345C28.3607 48.4787 27.9852 48.612 27.598 48.6117M27.0157 31.851L27.5983 48.1117M27.0157 31.851C27.4154 32.0003 27.7931 32.1392 28.1497 32.2704C29.6135 32.8088 30.7201 33.2158 31.5133 33.6683C31.996 33.9436 32.3186 34.2131 32.5223 34.5018C32.7189 34.7803 32.8258 35.1063 32.8258 35.5398C32.8258 36.3985 32.407 37.1088 31.6099 37.6256C30.7972 38.1524 29.5903 38.4729 28.0817 38.4729V38.4728L28.0737 38.473C25.1604 38.5192 22.3379 37.4086 20.2327 35.4182L20.2311 35.4168C19.919 35.1243 19.5073 34.9615 19.0796 34.9615C18.6519 34.9615 18.2402 35.1243 17.9281 35.4168L17.928 35.4167L17.9218 35.4228L15.5051 37.7679L15.5051 37.7679L15.5003 37.7726C15.3456 37.9269 15.2228 38.1102 15.139 38.312C15.0553 38.5138 15.0122 38.7302 15.0122 38.9487C15.0122 39.1672 15.0553 39.3836 15.139 39.5854C15.1942 39.7184 15.2663 39.8433 15.3533 39.9571M27.598 48.6117L27.5983 48.1117M27.598 48.6117H27.5983V48.1117M27.598 48.6117H23.2725H23.2448L23.2173 48.6087L22.9998 48.5845L22.9724 48.5814L22.9455 48.5754C22.5077 48.4771 22.1261 48.2105 21.8833 47.8332C21.6404 47.456 21.5556 46.9983 21.6472 46.559L21.6484 46.5535L21.6484 46.5535L22.2221 43.9504M27.5983 48.1117H23.2725L23.055 48.0875C22.7454 48.018 22.4755 47.8295 22.3037 47.5626C22.1318 47.2957 22.0718 46.9719 22.1367 46.6611L22.8133 43.5907M22.2221 43.9504C22.3778 43.9944 22.5344 44.0362 22.6917 44.0756L22.8133 43.5907M22.2221 43.9504C19.7168 43.2421 17.4151 41.9432 15.5115 40.1598L15.3533 40.0116V39.9571M22.2221 43.9504L22.3251 43.4831L22.8133 43.5907M22.8133 43.5907C20.2087 42.9374 17.8134 41.6311 15.8533 39.7949V39.7707M15.8533 39.7707H15.3533V39.7949V39.9571M15.8533 39.7707L15.8292 39.7949L15.5003 40.1248C15.4475 40.0722 15.3984 40.0161 15.3533 39.9571M53.7877 4.23792C55.007 5.45769 55.9448 6.92945 56.5356 8.55001C57.4953 11.6006 57.5 14.4173 57.5 20.2601V37.7882C57.5 43.607 57.4953 46.4237 56.5355 49.4745C55.9451 51.1018 55.005 52.5798 53.7813 53.804C52.5579 55.0279 51.081 55.9683 49.4548 56.5588C46.4289 57.4954 43.6124 57.5 37.7725 57.5H20.1792C14.363 57.5 11.5476 57.4953 8.49827 56.5352C6.87846 55.9442 5.40737 55.006 4.18812 53.7862C2.96927 52.5669 2.03164 51.0957 1.44087 49.4758C0.504488 46.424 0.5 43.6293 0.5 37.7882V20.2118C0.5 14.3928 0.504703 11.5761 1.46462 8.52526C2.05249 6.90018 2.98914 5.42367 4.2087 4.1996C5.42778 2.97601 6.8999 2.03443 8.52155 1.44098C11.5473 0.504621 14.3878 0.5 20.2033 0.5H37.7483C43.6134 0.5 46.4038 0.504812 49.4764 1.48859C51.0967 2.07952 52.5682 3.01788 53.7877 4.23792Z" fill="black" stroke="#E8E8E8"/>
</svg>
