<svg width="20" height="20" viewBox="0 0 20 20" fill="none" xmlns="http://www.w3.org/2000/svg">
<path d="M2.49968 14.9998C2.04134 14.9998 1.64884 14.8365 1.32218 14.5098C0.995509 14.1832 0.832454 13.7909 0.833009 13.3332V3.33317C0.833009 2.87484 0.996343 2.48234 1.32301 2.15567C1.64968 1.82901 2.0419 1.66595 2.49968 1.66651H15.833C16.2913 1.66651 16.6838 1.82984 17.0105 2.15651C17.3372 2.48317 17.5002 2.87539 17.4997 3.33317V8.33317H14.583C13.7775 8.33317 13.09 8.61789 12.5205 9.18734C11.9511 9.75678 11.6663 10.4443 11.6663 11.2498V14.9998H2.49968ZM9.16634 7.49984L3.58301 3.99984C3.3469 3.84706 3.10718 3.84012 2.86384 3.97901C2.62051 4.11789 2.49912 4.32623 2.49968 4.604C2.49968 4.729 2.52745 4.84373 2.58301 4.94817C2.63856 5.05262 2.7219 5.13928 2.83301 5.20817L8.72884 8.89567C8.86773 8.979 9.01357 9.02067 9.16634 9.02067C9.31912 9.02067 9.46495 8.979 9.60384 8.89567L15.4997 5.20817C15.6108 5.13873 15.6941 5.05206 15.7497 4.94817C15.8052 4.84428 15.833 4.72956 15.833 4.604C15.833 4.32623 15.7116 4.11789 15.4688 3.97901C15.2261 3.84012 14.9863 3.84706 14.7497 3.99984L9.16634 7.49984ZM15.833 18.3332C14.9163 18.3332 14.1316 18.0068 13.4788 17.354C12.8261 16.7012 12.4997 15.9165 12.4997 14.9998V11.2498C12.4997 10.6665 12.7011 10.1734 13.1038 9.77067C13.5066 9.36789 13.9997 9.1665 14.583 9.1665C15.1663 9.1665 15.6594 9.36789 16.0622 9.77067C16.465 10.1734 16.6663 10.6665 16.6663 11.2498V14.1665C16.6663 14.4026 16.5863 14.6007 16.4263 14.7607C16.2663 14.9207 16.0686 15.0004 15.833 14.9998C15.5969 14.9998 15.3988 14.9198 15.2388 14.7598C15.0788 14.5998 14.9991 14.4021 14.9997 14.1665V11.2498C14.9997 11.1387 14.958 11.0415 14.8747 10.9582C14.7913 10.8748 14.6941 10.8332 14.583 10.8332C14.4719 10.8332 14.3747 10.8748 14.2913 10.9582C14.208 11.0415 14.1663 11.1387 14.1663 11.2498V14.9998C14.1663 15.4582 14.3297 15.8507 14.6563 16.1773C14.983 16.504 15.3752 16.6671 15.833 16.6665C16.2913 16.6665 16.6838 16.5032 17.0105 16.1765C17.3372 15.8498 17.5002 15.4576 17.4997 14.9998V12.4998C17.4997 12.2637 17.5797 12.0657 17.7397 11.9057C17.8997 11.7457 18.0975 11.6659 18.333 11.6665C18.5691 11.6665 18.7672 11.7465 18.9272 11.9065C19.0872 12.0665 19.1669 12.2643 19.1663 12.4998V14.9998C19.1663 15.9165 18.84 16.7012 18.1872 17.354C17.5344 18.0068 16.7497 18.3332 15.833 18.3332Z" fill="white"/>
</svg>
