<svg width="38" height="34" viewBox="0 0 38 34" fill="none" xmlns="http://www.w3.org/2000/svg">
<path d="M3.99935 26.9999C3.08268 26.9999 2.29768 26.6733 1.64435 26.0199C0.991018 25.3666 0.664907 24.5821 0.666018 23.6666V3.66659C0.666018 2.74992 0.992685 1.96492 1.64602 1.31159C2.29935 0.658255 3.0838 0.332144 3.99935 0.333255H30.666C31.5827 0.333255 32.3677 0.659922 33.021 1.31326C33.6743 1.96659 34.0005 2.75103 33.9993 3.66659V13.6666H28.166C26.5549 13.6666 25.1799 14.236 24.041 15.3749C22.9021 16.5138 22.3327 17.8888 22.3327 19.4999V26.9999H3.99935ZM17.3327 11.9999L6.16602 4.99992C5.6938 4.69437 5.21435 4.68048 4.72768 4.95826C4.24102 5.23603 3.99824 5.6527 3.99935 6.20826C3.99935 6.45826 4.05491 6.6877 4.16602 6.89659C4.27713 7.10548 4.4438 7.27881 4.66602 7.41659L16.4577 14.7916C16.7355 14.9583 17.0271 15.0416 17.3327 15.0416C17.6382 15.0416 17.9299 14.9583 18.2077 14.7916L29.9993 7.41659C30.2216 7.2777 30.3882 7.10437 30.4993 6.89659C30.6105 6.68881 30.666 6.45937 30.666 6.20826C30.666 5.6527 30.4232 5.23603 29.9377 4.95826C29.4521 4.68048 28.9727 4.69437 28.4993 4.99992L17.3327 11.9999ZM30.666 33.6666C28.8327 33.6666 27.2632 33.0138 25.9577 31.7083C24.6521 30.4027 23.9993 28.8333 23.9993 26.9999V19.4999C23.9993 18.3333 24.4021 17.3471 25.2077 16.5416C26.0132 15.736 26.9993 15.3333 28.166 15.3333C29.3327 15.3333 30.3188 15.736 31.1243 16.5416C31.9299 17.3471 32.3327 18.3333 32.3327 19.4999V25.3333C32.3327 25.8055 32.1727 26.2016 31.8527 26.5216C31.5327 26.8416 31.1371 27.001 30.666 26.9999C30.1938 26.9999 29.7977 26.8399 29.4777 26.5199C29.1577 26.1999 28.9982 25.8044 28.9993 25.3333V19.4999C28.9993 19.2777 28.916 19.0833 28.7493 18.9166C28.5827 18.7499 28.3882 18.6666 28.166 18.6666C27.9438 18.6666 27.7493 18.7499 27.5827 18.9166C27.416 19.0833 27.3327 19.2777 27.3327 19.4999V26.9999C27.3327 27.9166 27.6593 28.7016 28.3127 29.3549C28.966 30.0083 29.7505 30.3344 30.666 30.3333C31.5827 30.3333 32.3677 30.0066 33.021 29.3533C33.6743 28.6999 34.0005 27.9155 33.9993 26.9999V21.9999C33.9993 21.5277 34.1593 21.1316 34.4793 20.8116C34.7993 20.4916 35.1949 20.3321 35.666 20.3333C36.1382 20.3333 36.5343 20.4933 36.8543 20.8133C37.1743 21.1333 37.3338 21.5288 37.3327 21.9999V26.9999C37.3327 28.8333 36.6799 30.4027 35.3743 31.7083C34.0688 33.0138 32.4993 33.6666 30.666 33.6666Z" fill="#ED1C24"/>
</svg>
