<svg width="62" height="52" viewBox="0 0 62 52" fill="none" xmlns="http://www.w3.org/2000/svg">
<path d="M11.9152 17.7318C9.16553 17.7318 7.74902 16.3186 7.74902 13.5751C7.74902 10.8317 9.16553 9.41846 11.9152 9.41846H55.2436C55.2436 9.41846 56.9101 9.41846 56.9101 11.0811V17.7318H11.9152Z" fill="#C89005"/>
<path d="M56.9103 18.5635H11.9154C8.66582 18.5635 6.91602 16.8177 6.91602 13.5754C6.91602 10.3332 8.66582 8.5874 11.9154 8.5874H55.2438C56.2437 8.5874 57.7435 9.25247 57.7435 11.0814V17.7321C57.7435 18.2309 57.3269 18.5635 56.9103 18.5635ZM55.2438 10.2501H11.9154C9.58238 10.2501 8.58249 11.2477 8.58249 13.5754C8.58249 15.9032 9.58238 16.9008 11.9154 16.9008H56.0771V11.0814C56.0771 10.4163 55.5771 10.2501 55.2438 10.2501Z" fill="#231C1C"/>
<path d="M56.41 30.6179C56.5767 31.5324 55.9934 32.3637 55.0768 32.6131L15.9146 40.5939C14.9981 40.7602 14.1648 40.1783 13.9149 39.2638L9.08209 15.6538C8.91544 14.7393 9.4987 13.908 10.4153 13.6586L49.5775 5.67772C50.494 5.51146 51.3273 6.09339 51.5772 7.00787L56.41 30.6179Z" fill="#C11F29"/>
<path d="M15.5821 41.4252C14.4156 41.4252 13.4157 40.5939 13.1657 39.43L8.33295 15.82C8.16631 15.1549 8.33295 14.4899 8.66625 13.9079C8.99955 13.326 9.58281 12.9935 10.2494 12.8272L49.4116 4.84635C50.7448 4.59695 52.078 5.42829 52.3279 6.75843L57.1607 30.3684C57.4107 31.6986 56.5774 33.0287 55.2443 33.2781L16.0821 41.259C15.9154 41.4252 15.7488 41.4252 15.5821 41.4252ZM49.9115 6.50903H49.7449L10.5827 14.4899C10.1661 14.573 9.83278 14.9887 9.91611 15.4875L14.7489 39.0975C14.8322 39.5132 15.2488 39.8457 15.7488 39.7626L54.911 31.7817C55.1609 31.6986 55.3276 31.6155 55.4109 31.4492C55.4942 31.2829 55.5776 31.0335 55.4942 30.7841L50.6615 7.1741C50.6615 6.75843 50.3282 6.50903 49.9115 6.50903Z" fill="#231C1C"/>
<path d="M53.3272 15.6536C53.4105 16.2355 52.8273 16.9006 51.9107 17.0668L12.7485 25.0477C11.8319 25.214 10.9987 24.8814 10.9154 24.2995L10.3321 21.5561C10.2488 20.9741 10.8321 20.3091 11.7486 20.1428L50.9108 12.1619C51.8274 11.9957 52.6606 12.3282 52.7439 12.9101L53.3272 15.6536Z" fill="#513328"/>
<path d="M12.2487 25.9622C11.1655 25.9622 10.249 25.3802 10.0823 24.4658L9.49904 21.8055C9.24907 20.7247 10.1656 19.644 11.5821 19.3946L50.7443 11.4137C52.0775 11.1643 53.3274 11.7463 53.5773 12.827L54.1606 15.5704C54.4106 16.6512 53.494 17.7319 52.0775 17.9813L12.9153 25.9622H12.2487ZM51.4109 12.9933H51.0776L11.9154 20.9741C11.4155 21.0573 11.1655 21.3067 11.1655 21.4729L11.7488 24.1332C11.8321 24.2164 12.1654 24.2995 12.582 24.2164L51.7442 16.2355C52.2442 16.1524 52.4941 15.903 52.4941 15.8198L51.9109 13.1595C51.9109 13.0764 51.7442 12.9933 51.4109 12.9933ZM30.7358 29.8911L38.0816 28.3855L38.4174 30.0149L31.0707 31.5197L30.7358 29.8911ZM26.5021 34.1375L43.6435 30.6251L43.9784 32.2546L26.8371 35.767L26.5021 34.1375Z" fill="#231C1C"/>
<path d="M51.9945 43.0877C51.7445 44.0022 50.8279 44.501 49.9114 44.1685L9.24934 31.7815C8.4161 31.5321 7.91616 30.6177 8.16613 29.7032L15.4986 5.84377C15.7486 4.9293 16.6652 4.4305 17.5817 4.76303L58.3271 17.15C59.1603 17.3994 59.6602 18.3139 59.4103 19.2283L51.9945 43.0877Z" fill="#B8CA43"/>
<path d="M50.4115 45.1662C50.1615 45.1662 49.9116 45.1662 49.6616 45.0831L8.99957 32.613C8.33298 32.4467 7.83304 31.9479 7.49974 31.366C7.16645 30.784 7.16645 30.119 7.3331 29.4539L14.6656 5.59447C15.0822 4.26433 16.4154 3.51612 17.7486 3.93179L58.4939 16.3187C59.8271 16.7344 60.4937 18.1477 60.1604 19.3947L52.8279 43.2541C52.6612 43.9192 52.2446 44.418 51.6614 44.7505C51.2447 44.9999 50.8281 45.1662 50.4115 45.1662ZM17.082 5.51134C16.7487 5.51134 16.4154 5.76074 16.3321 6.09327L8.99957 29.9527C8.91625 30.2021 8.91625 30.3684 9.0829 30.6178C9.16622 30.784 9.33287 30.9503 9.58284 31.0334L50.2449 43.4204C50.4115 43.5035 50.6615 43.4204 50.8281 43.3372C50.9948 43.2541 51.1614 43.0878 51.2447 42.8384L58.5772 18.979C58.7439 18.5634 58.4939 18.0645 58.0773 17.9814L17.2486 5.59447C17.1653 5.51134 17.1653 5.51134 17.082 5.51134Z" fill="#231C1C"/>
<path d="M49.8273 36.3538L53.7435 23.6343C51.9937 23.1355 51.0771 21.2234 51.5771 19.4776L21.7471 10.416C21.2472 12.1618 19.3307 13.1594 17.6643 12.6606L13.748 25.3801C15.4978 25.8789 16.4144 27.791 15.9145 29.5368L45.6611 38.5984C46.2443 36.8526 48.0775 35.855 49.8273 36.3538Z" fill="#B8CA43"/>
<path d="M46.2452 39.5962L14.9154 30.0358L15.1654 29.2044C15.3321 28.5394 15.3321 27.8743 14.9988 27.2924C14.6655 26.7104 14.1655 26.2948 13.5823 26.1285L12.749 25.8791L17.1652 11.5801L17.9984 11.8295C19.2483 12.2451 20.6648 11.4969 21.0814 10.1668L21.3314 9.33545L52.6611 18.8958L52.4112 19.7272C52.2445 20.3923 52.2445 21.0573 52.5778 21.6393C52.9111 22.2212 53.4111 22.6369 53.9943 22.8031L54.8276 23.0525L50.4114 37.3516L49.5782 37.1022C48.3283 36.6865 46.9118 37.4347 46.4952 38.7648L46.2452 39.5962ZM16.9152 28.955L45.2453 37.601C45.9952 36.1046 47.5784 35.2732 49.2449 35.4395L52.7445 24.1333C52.0779 23.7176 51.4946 23.1357 51.078 22.4706C50.6614 21.7224 50.578 20.9742 50.6614 20.1429L22.3313 11.4969C21.5813 12.9933 19.9149 13.8247 18.3317 13.6584L14.8321 24.8815C15.4987 25.2972 16.082 25.8791 16.4986 26.5442C16.8319 27.2924 16.9985 28.1237 16.9152 28.955Z" fill="#231C1C"/>
<path d="M30.3016 35.6234C33.0066 36.4487 35.9602 36.0675 38.5126 34.5637C41.0651 33.0599 43.0072 30.5568 43.9119 27.6049C44.8166 24.653 44.6096 21.4942 43.3365 18.8234C42.0635 16.1526 39.8286 14.1885 37.1236 13.3633C34.4186 12.5381 31.465 12.9193 28.9125 14.423C26.3601 15.9268 24.4179 18.43 23.5133 21.3818C22.6086 24.3337 22.8156 27.4925 24.0886 30.1633C25.3617 32.8341 27.5966 34.7982 30.3016 35.6234Z" fill="#E1E0A6"/>
<path d="M33.1632 36.8527C32.1634 36.8527 31.0801 36.6864 30.0803 36.3539C27.1639 35.4394 24.7475 33.3611 23.331 30.4514C21.9979 27.5417 21.7479 24.2164 22.7478 21.0573C23.7477 17.8982 25.7474 15.2379 28.4971 13.6584C31.2468 11.9957 34.4131 11.58 37.3294 12.4945C43.4121 14.3234 46.6617 21.2235 44.6619 27.7911C43.0788 33.278 38.246 36.8527 33.1632 36.8527ZM34.2465 13.7415C32.58 13.7415 30.9135 14.2403 29.3303 15.1548C26.914 16.568 25.1642 18.8958 24.3309 21.6392C23.4977 24.3826 23.6643 27.2923 24.8309 29.7863C25.9974 32.2804 27.9972 34.0262 30.4969 34.7744C35.663 36.3539 41.329 33.0286 43.0788 27.2923C44.8286 21.5561 41.9956 15.6536 36.8295 14.074C36.0796 13.9078 35.163 13.7415 34.2465 13.7415Z" fill="#231C1C"/>
<path d="M29.5078 35.3804L36.3204 13.1172L37.9144 13.6027L31.1018 35.8659L29.5078 35.3804Z" fill="#231C1C"/>
<path d="M32.496 33.4444C31.996 33.4444 31.5794 33.3612 31.0795 33.195C29.7463 32.7793 28.6631 31.8648 28.0798 30.6178C27.5799 29.4539 27.4966 28.2069 27.8299 27.0431L29.413 27.5419C29.163 28.3732 29.2464 29.2045 29.5797 29.9528C29.9963 30.7841 30.6629 31.4492 31.5794 31.6986C33.3292 32.1974 35.1624 31.1998 35.6623 29.4539C36.1622 27.7081 35.2457 25.8792 33.4959 25.2973C30.9128 24.4659 29.413 21.7225 30.2463 19.0622C30.6629 17.8152 31.4961 16.7345 32.6626 16.1525C33.8292 15.4875 35.1624 15.4043 36.4122 15.7369C37.6621 16.1525 38.7453 16.9839 39.3285 18.1477C39.9118 19.3116 40.0785 20.6418 39.6618 21.9719L38.0787 21.4731C38.3287 20.6418 38.2453 19.7273 37.8287 18.9791C37.4121 18.2309 36.7455 17.6489 35.9123 17.3995C35.079 17.1501 34.1625 17.2333 33.4126 17.6489C32.6626 18.0646 32.0794 18.7297 31.8294 19.6442C31.3295 21.39 32.246 23.2189 33.9958 23.8008C36.5789 24.6322 38.0787 27.3756 37.2455 30.0359C36.5789 32.0311 34.5791 33.4444 32.496 33.4444Z" fill="#231C1C"/>
<path d="M59.4098 49.3228C59.4098 50.2372 58.6599 50.9854 57.7433 50.9854H9.4155C8.49894 50.9854 7.74902 50.2372 7.74902 49.3228V13.5752C7.74902 16.0692 9.4155 17.7319 11.9152 17.7319H57.7433C58.6599 17.7319 59.4098 18.4801 59.4098 19.3946V49.3228Z" fill="#EEBE00"/>
<path d="M57.7435 51.8171H9.41573C7.99923 51.8171 6.91602 50.7363 6.91602 49.323V13.5755C6.91602 13.0767 7.24931 12.7441 7.74925 12.7441C8.2492 12.7441 8.58249 13.0767 8.58249 13.5755C8.58249 15.5707 9.91567 16.9008 11.9154 16.9008H57.7435C59.16 16.9008 60.2433 17.9816 60.2433 19.3948V49.323C60.2433 50.7363 59.0767 51.8171 57.7435 51.8171ZM8.58249 17.3996V49.323C8.58249 49.8218 8.91579 50.1544 9.41573 50.1544H57.7435C58.2435 50.1544 58.5768 49.8218 58.5768 49.323V19.3948C58.5768 18.896 58.2435 18.5635 57.7435 18.5635H11.9154C10.5823 18.5635 9.41573 18.1478 8.58249 17.3996Z" fill="#231C1C"/>
<path d="M59.4099 38.5155H49.6611C47.6613 38.5155 46.0781 37.0191 46.0781 35.1902V33.5275C46.0781 31.6986 47.6613 30.2021 49.6611 30.2021H59.4933V38.5155H59.4099Z" fill="#C89005"/>
<path d="M59.4102 39.3467H49.6613C47.2449 39.3467 45.2451 37.5177 45.2451 35.19V33.5273C45.2451 31.1996 47.2449 29.3706 49.6613 29.3706H59.4935C59.9934 29.3706 60.3267 29.7031 60.3267 30.2019V38.5153C60.2434 39.0141 59.9101 39.3467 59.4102 39.3467ZM49.6613 31.0333C48.1615 31.0333 46.9116 32.114 46.9116 33.5273V35.19C46.9116 36.6033 48.1615 37.684 49.6613 37.684H58.6603V31.0333H49.6613Z" fill="#231C1C"/>
<path d="M12.082 21.0571H16.0816V22.7198H12.082V21.0571Z" fill="#231C1C"/>
<path d="M18.748 21.0571H22.7476V22.7198H18.748V21.0571Z" fill="#231C1C"/>
<path d="M25.4141 21.0571H29.4136V22.7198H25.4141V21.0571Z" fill="#231C1C"/>
<path d="M32.0801 21.0571H36.0796V22.7198H32.0801V21.0571Z" fill="#231C1C"/>
<path d="M38.7451 21.0571H42.7447V22.7198H38.7451V21.0571Z" fill="#231C1C"/>
<path d="M45.4111 21.0571H49.4107V22.7198H45.4111V21.0571Z" fill="#231C1C"/>
<path d="M52.0771 21.0571H56.0767V22.7198H52.0771V21.0571Z" fill="#231C1C"/>
<path d="M12.082 45.9976H16.0816V47.6602H12.082V45.9976Z" fill="#231C1C"/>
<path d="M18.748 45.9976H22.7476V47.6602H18.748V45.9976Z" fill="#231C1C"/>
<path d="M25.4141 45.9976H29.4136V47.6602H25.4141V45.9976Z" fill="#231C1C"/>
<path d="M32.0801 45.9976H36.0796V47.6602H32.0801V45.9976Z" fill="#231C1C"/>
<path d="M38.7451 45.9976H42.7447V47.6602H38.7451V45.9976Z" fill="#231C1C"/>
<path d="M45.4111 45.9976H49.4107V47.6602H45.4111V45.9976Z" fill="#231C1C"/>
<path d="M52.0771 45.9976H56.0767V47.6602H52.0771V45.9976Z" fill="#231C1C"/>
<path d="M48.5781 34.359C48.5781 34.7999 48.7537 35.2228 49.0662 35.5347C49.3787 35.8465 49.8026 36.0216 50.2446 36.0216C50.6866 36.0216 51.1105 35.8465 51.423 35.5347C51.7355 35.2228 51.9111 34.7999 51.9111 34.359C51.9111 33.918 51.7355 33.4951 51.423 33.1833C51.1105 32.8715 50.6866 32.6963 50.2446 32.6963C49.8026 32.6963 49.3787 32.8715 49.0662 33.1833C48.7537 33.4951 48.5781 33.918 48.5781 34.359Z" fill="#231C1C"/>
</svg>
