<svg width="20" height="26" viewBox="0 0 20 26" fill="none" xmlns="http://www.w3.org/2000/svg">
<g clip-path="url(#clip0_205_1747)">
<path d="M9.99893 0C4.48548 0 0 4.48764 0 10.0011C0 13.9423 1.64993 17.9268 4.77055 21.529C7.10075 24.2177 9.41152 25.7424 9.5087 25.805C9.65772 25.9022 9.82832 25.9518 9.99893 25.9518C10.1695 25.9518 10.3401 25.9043 10.4892 25.805C10.5863 25.7424 12.8971 24.2177 15.2273 21.529C18.3479 17.9289 19.9979 13.9423 19.9979 10.0011C20 4.48764 15.5145 0 9.99893 0ZM9.99893 13.9683C7.8091 13.9683 6.02959 12.1887 6.02959 9.99892C6.02959 7.80909 7.8091 6.02959 9.99893 6.02959C12.1888 6.02959 13.9683 7.81125 13.9683 9.99892C13.9683 12.1866 12.1888 13.9683 9.99893 13.9683Z" fill="white"/>
</g>
<defs>
<clipPath id="clip0_205_1747">
<rect width="20" height="25.9497" fill="white"/>
</clipPath>
</defs>
</svg>
