<svg width="75" height="55" viewBox="0 0 75 55" fill="none" xmlns="http://www.w3.org/2000/svg">
<path d="M13.6478 54.8782V51.2279C13.6478 49.8283 12.7463 48.9159 11.2012 48.9159C10.4287 48.9159 9.59176 49.1592 9.01228 49.9502C8.56184 49.2809 7.91814 48.9159 6.95244 48.9159C6.30844 48.9159 5.66503 49.0982 5.14977 49.7676V49.0376H3.79785V54.8782H5.14977V51.6536C5.14977 50.6195 5.72925 50.1326 6.63073 50.1326C7.53162 50.1326 7.98265 50.6802 7.98265 51.6536V54.8782H9.33458V51.6536C9.33458 50.6195 9.97798 50.1326 10.8149 50.1326C11.7164 50.1326 12.1669 50.6802 12.1669 51.6536V54.8782H13.6478ZM33.6689 49.0376H31.4803V47.2732H30.1284V49.0376H28.9052V50.1933H30.1281V52.8705C30.1281 54.2091 30.7076 54.9998 32.2527 54.9998C32.8322 54.9998 33.4756 54.8175 33.9267 54.5741L33.5401 53.4789C33.1539 53.7222 32.7035 53.7832 32.3815 53.7832C31.7378 53.7832 31.4803 53.4182 31.4803 52.8095V50.1933H33.6689V49.0376ZM45.1283 48.9156C44.3558 48.9156 43.8409 49.2809 43.5189 49.7676V49.0376H42.1669V54.8782H43.5189V51.5929C43.5189 50.6195 43.9693 50.0719 44.8063 50.0719C45.0637 50.0719 45.3857 50.1328 45.6432 50.1935L46.0294 48.9769C45.772 48.9159 45.3857 48.9159 45.1283 48.9159V48.9156ZM27.8107 49.5242C27.1668 49.0982 26.2656 48.9159 25.2999 48.9159C23.755 48.9159 22.7251 49.6459 22.7251 50.8019C22.7251 51.7755 23.4975 52.3229 24.8494 52.5055L25.4931 52.5665C26.2013 52.6879 26.5876 52.8705 26.5876 53.1748C26.5876 53.6005 26.0726 53.9048 25.1711 53.9048C24.2699 53.9048 23.5617 53.6005 23.111 53.2965L22.4673 54.2698C23.1755 54.7565 24.1412 54.9998 25.1066 54.9998C26.9093 54.9998 27.9395 54.2091 27.9395 53.1138C27.9395 52.0795 27.1025 51.5319 25.8148 51.3495L25.1711 51.2886C24.5917 51.2276 24.1412 51.1062 24.1412 50.7412C24.1412 50.3152 24.5917 50.0719 25.2999 50.0719C26.0726 50.0719 26.845 50.3759 27.2313 50.5585L27.8107 49.5242ZM63.7335 48.9159C62.9607 48.9159 62.4458 49.2809 62.1238 49.7676V49.0376H60.7719V54.8782H62.1238V51.5929C62.1238 50.6195 62.5745 50.0719 63.4112 50.0719C63.669 50.0719 63.991 50.1328 64.2484 50.1935L64.6347 48.9769C64.3772 48.9159 63.991 48.9159 63.7335 48.9159ZM46.4802 51.9579C46.4802 53.7222 47.7676 54.9998 49.7635 54.9998C50.6647 54.9998 51.3084 54.8175 51.9521 54.3308L51.3084 53.2965C50.7934 53.6615 50.2785 53.8439 49.699 53.8439C48.6046 53.8439 47.8321 53.1138 47.8321 51.9579C47.8321 50.8628 48.6046 50.1326 49.699 50.0719C50.2785 50.0719 50.7934 50.2542 51.3084 50.6195L51.9521 49.5852C51.3084 49.0982 50.6647 48.9159 49.7635 48.9159C47.7676 48.9159 46.4802 50.1935 46.4802 51.9579ZM58.9695 51.9579V49.0376H57.6176V49.7676C57.1668 49.2202 56.5231 48.9159 55.6862 48.9159C53.948 48.9159 52.5961 50.1935 52.5961 51.9579C52.5961 53.7222 53.948 54.9998 55.6862 54.9998C56.5873 54.9998 57.2313 54.6958 57.6176 54.1482V54.8782H58.9695V51.9579ZM54.0122 51.9579C54.0122 50.9235 54.7205 50.0719 55.8791 50.0719C56.9736 50.0719 57.7463 50.8628 57.7463 51.9579C57.7463 52.9922 56.9736 53.8439 55.8791 53.8439C54.7205 53.7829 54.0122 52.9922 54.0122 51.9579ZM37.8537 48.9159C36.051 48.9159 34.7633 50.1326 34.7633 51.9579C34.7633 53.7832 36.0507 54.9998 37.9179 54.9998C38.8191 54.9998 39.7206 54.7565 40.4288 54.2091L39.7848 53.2965C39.2698 53.6615 38.6261 53.9048 37.9824 53.9048C37.1455 53.9048 36.3085 53.5398 36.1152 52.5052H40.6863V52.0188C40.7508 50.1326 39.5918 48.9159 37.8534 48.9159H37.8537ZM37.8537 50.0109C38.6904 50.0109 39.2701 50.4978 39.3986 51.4105H36.1798C36.3085 50.6195 36.888 50.0109 37.8537 50.0109ZM71.3943 51.9579V46.7256H70.0424V49.7676C69.5916 49.2202 68.9479 48.9159 68.1109 48.9159C66.3728 48.9159 65.0209 50.1935 65.0209 51.9579C65.0209 53.7222 66.3728 54.9998 68.1109 54.9998C69.0124 54.9998 69.6561 54.6958 70.0424 54.1482V54.8782H71.3943V51.9579ZM66.4373 51.9579C66.4373 50.9235 67.1452 50.0719 68.3042 50.0719C69.3986 50.0719 70.1711 50.8628 70.1711 51.9579C70.1711 52.9922 69.3986 53.8439 68.3042 53.8439C67.1452 53.7829 66.4373 52.9922 66.4373 51.9579ZM21.2441 51.9579V49.0376H19.8922V49.7676C19.4414 49.2202 18.7977 48.9159 17.9608 48.9159C16.2226 48.9159 14.8707 50.1935 14.8707 51.9579C14.8707 53.7222 16.2226 54.9998 17.9608 54.9998C18.8623 54.9998 19.506 54.6958 19.8922 54.1482V54.8782H21.2441V51.9579ZM16.2226 51.9579C16.2226 50.9235 16.9309 50.0719 18.0895 50.0719C19.184 50.0719 19.9567 50.8628 19.9567 51.9579C19.9567 52.9922 19.184 53.8439 18.0895 53.8439C16.9309 53.7829 16.2226 52.9922 16.2226 51.9579Z" fill="black"/>
<path d="M27.3604 4.68457H47.6392V39.1205H27.3604V4.68457Z" fill="#FF5F00"/>
<path d="M28.6481 21.9027C28.6481 14.9061 32.1244 8.70023 37.4676 4.68463C33.5409 1.76432 28.5839 0 23.1762 0C10.3646 0 0 9.79524 0 21.9027C0 34.0099 10.3646 43.8054 23.1759 43.8054C28.5836 43.8054 33.5406 42.0411 37.4676 39.1205C32.1244 35.1659 28.6481 28.8993 28.6481 21.9027Z" fill="#EB001B"/>
<path d="M74.9998 21.9027C74.9998 34.0099 64.6352 43.8054 51.8239 43.8054C46.4162 43.8054 41.4593 42.0411 37.5322 39.1205C42.9399 35.1052 46.352 28.8993 46.352 21.9027C46.352 14.9061 42.8754 8.70023 37.5322 4.68463C41.459 1.76432 46.4162 0 51.8239 0C64.6352 0 75.0001 9.85621 75.0001 21.9027H74.9998Z" fill="#F79E1B"/>
</svg>
