<svg width="32" height="31" viewBox="0 0 32 31" fill="none" xmlns="http://www.w3.org/2000/svg">
<path d="M23.2541 0H7.75137C3.47262 0 0 0 0 7.72037V16.991V18.5413C-1.46989e-09 27.1298 3.47262 26.2617 7.75137 26.2617H10.0768C10.4954 26.2617 11.0535 26.5407 11.317 26.8818L13.6424 29.9668C14.6656 31.3311 16.3399 31.3311 17.3631 29.9668L19.6885 26.8818C19.983 26.4942 20.4481 26.2617 20.9287 26.2617H23.2541C27.5329 26.2617 31.0055 26.8818 31.0055 18.5413V7.72037C31.0055 0 27.5329 0 23.2541 0ZM9.30165 15.5028C8.4335 15.5028 7.75137 14.8051 7.75137 13.9525C7.75137 13.0998 8.449 12.4022 9.30165 12.4022C10.1543 12.4022 10.8519 13.0998 10.8519 13.9525C10.8519 14.8051 10.1698 15.5028 9.30165 15.5028ZM15.5027 15.5028C14.6346 15.5028 13.9525 14.8051 13.9525 13.9525C13.9525 13.0998 14.6501 12.4022 15.5027 12.4022C16.3554 12.4022 17.053 13.0998 17.053 13.9525C17.053 14.8051 16.3709 15.5028 15.5027 15.5028ZM21.7038 15.5028C20.8357 15.5028 20.1536 14.8051 20.1536 13.9525C20.1536 13.0998 20.8512 12.4022 21.7038 12.4022C22.5565 12.4022 23.2541 13.0998 23.2541 13.9525C23.2541 14.8051 22.572 15.5028 21.7038 15.5028Z" fill="#ED1C24"/>
</svg>
