<svg width="46" height="56" viewBox="0 0 46 56" fill="none" xmlns="http://www.w3.org/2000/svg">
<mask id="path-1-inside-1_205_1778" fill="white">
<path d="M39.1658 4.22258C36.6524 1.26709 32.1091 0 26.2968 0H9.42796C8.85289 2.19679e-05 8.29668 0.211685 7.85935 0.596935C7.42202 0.982186 7.13224 1.51575 7.04211 2.10171L0.0182271 48.0599C-0.121385 48.9662 0.558817 49.7868 1.44916 49.7868H11.8634L14.4789 32.6719L14.3977 33.2078C14.584 31.9981 15.5869 31.1058 16.7745 31.1058H21.7234C31.4453 31.1058 39.0578 27.0319 41.2815 15.2469C41.3475 14.8984 41.4047 14.5592 41.4541 14.2277C41.1734 14.0744 41.1734 14.0744 41.4541 14.2277C42.1162 9.87191 41.4496 6.90693 39.1658 4.22258Z"/>
</mask>
<path d="M39.1658 4.22258C36.6524 1.26709 32.1091 0 26.2968 0H9.42796C8.85289 2.19679e-05 8.29668 0.211685 7.85935 0.596935C7.42202 0.982186 7.13224 1.51575 7.04211 2.10171L0.0182271 48.0599C-0.121385 48.9662 0.558817 49.7868 1.44916 49.7868H11.8634L14.4789 32.6719L14.3977 33.2078C14.584 31.9981 15.5869 31.1058 16.7745 31.1058H21.7234C31.4453 31.1058 39.0578 27.0319 41.2815 15.2469C41.3475 14.8984 41.4047 14.5592 41.4541 14.2277C41.1734 14.0744 41.1734 14.0744 41.4541 14.2277C42.1162 9.87191 41.4496 6.90693 39.1658 4.22258Z" fill="#27346A"/>
<path d="M9.42796 0V-1H9.42792L9.42796 0ZM7.04211 2.10171L6.05373 1.94968L6.05359 1.95063L7.04211 2.10171ZM0.0182271 48.0599L1.00657 48.2122L1.00675 48.211L0.0182271 48.0599ZM11.8634 49.7868V50.7868H12.7222L12.8519 49.9379L11.8634 49.7868ZM14.4789 32.6719L15.4676 32.8216L13.4903 32.5208L14.4789 32.6719ZM14.3977 33.2078L13.409 33.0581L15.3861 33.3601L14.3977 33.2078ZM41.2815 15.2469L40.2989 15.0608L40.2988 15.0615L41.2815 15.2469ZM39.9276 3.57475C37.1199 0.273103 32.1896 -1 26.2968 -1V1C32.0286 1 36.185 2.26108 38.404 4.87041L39.9276 3.57475ZM26.2968 -1H9.42796V1H26.2968V-1ZM9.42792 -1C8.6059 -0.999969 7.81557 -0.697165 7.19834 -0.153441L8.52036 1.34731C8.7778 1.12054 9.09987 1.00001 9.42799 1L9.42792 -1ZM7.19834 -0.153441C6.58186 0.389621 6.17882 1.13643 6.05373 1.94968L8.03049 2.25373C8.08565 1.89507 8.26217 1.57475 8.52036 1.34731L7.19834 -0.153441ZM6.05359 1.95063L-0.970295 47.9088L1.00675 48.211L8.03063 2.25278L6.05359 1.95063ZM-0.970114 47.9076C-1.19772 49.3851 -0.08868 50.7868 1.44916 50.7868V48.7868C1.20631 48.7868 0.95495 48.5472 1.00657 48.2122L-0.970114 47.9076ZM1.44916 50.7868H11.8634V48.7868H1.44916V50.7868ZM12.8519 49.9379L15.4674 32.823L13.4903 32.5208L10.8749 49.6357L12.8519 49.9379ZM13.4901 32.5222L13.409 33.0581L15.3864 33.3576L15.4676 32.8216L13.4901 32.5222ZM15.3861 33.3601C15.5016 32.61 16.1083 32.1058 16.7745 32.1058V30.1058C15.0655 30.1058 13.6665 31.3862 13.4094 33.0556L15.3861 33.3601ZM16.7745 32.1058H21.7234V30.1058H16.7745V32.1058ZM21.7234 32.1058C26.7135 32.1058 31.2809 31.0612 34.9058 28.402C38.5485 25.7297 41.1159 21.5174 42.2641 15.4324L40.2988 15.0615C39.2233 20.7614 36.8727 24.4786 33.7228 26.7894C30.555 29.1133 26.4552 30.1058 21.7234 30.1058V32.1058ZM42.264 15.433C42.3324 15.0716 42.3918 14.7195 42.4431 14.3752L40.465 14.0802C40.4175 14.3988 40.3625 14.7252 40.2989 15.0608L42.264 15.433ZM41.9335 13.3502C41.8777 13.3196 41.9379 13.3525 41.8842 13.3232C41.8347 13.2962 41.8887 13.3257 41.8414 13.2998C41.8257 13.2912 41.8188 13.2875 41.8053 13.2801C41.7444 13.2468 41.8343 13.296 41.7757 13.2639C41.7553 13.2528 41.7831 13.268 41.7633 13.2572C41.7472 13.2484 41.7737 13.2628 41.7578 13.2541C41.7561 13.2532 41.7568 13.2536 41.7551 13.2527C41.7549 13.2526 41.7547 13.2525 41.7545 13.2524C41.7543 13.2522 41.7541 13.2521 41.7539 13.252C41.7527 13.2514 41.7538 13.252 41.7526 13.2513C41.7438 13.2465 41.7428 13.2459 41.7362 13.2423C41.7319 13.24 41.7341 13.2412 41.7304 13.2392C41.7214 13.2343 41.7348 13.2416 41.7263 13.237C41.7218 13.2345 41.7278 13.2378 41.7239 13.2356C41.7228 13.235 41.7241 13.2357 41.7232 13.2353C41.7228 13.235 41.7234 13.2354 41.7231 13.2352C41.723 13.2351 41.7231 13.2352 41.723 13.2352C41.723 13.2352 41.723 13.2352 41.723 13.2352C41.723 13.2352 41.723 13.2352 41.2436 14.1127C40.7641 14.9903 40.7641 14.9903 40.7641 14.9903C40.7641 14.9903 40.7641 14.9903 40.7641 14.9903C40.7642 14.9904 40.7641 14.9903 40.7642 14.9903C40.7642 14.9903 40.7642 14.9903 40.7642 14.9903C40.7642 14.9903 40.7642 14.9904 40.7642 14.9904C40.7643 14.9904 40.7643 14.9904 40.7643 14.9904C40.7643 14.9904 40.7643 14.9904 40.7643 14.9904C40.7648 14.9907 40.7641 14.9903 40.7646 14.9905C40.7648 14.9906 40.7647 14.9906 40.765 14.9907C40.7668 14.9918 40.7635 14.99 40.7654 14.991C40.7655 14.991 40.7655 14.991 40.7655 14.9911C40.7656 14.9911 40.7656 14.9911 40.7657 14.9911C40.7658 14.9912 40.7658 14.9912 40.766 14.9913C40.7699 14.9934 40.7634 14.9899 40.7674 14.9921C40.7809 14.9994 40.7616 14.9889 40.7773 14.9975C40.8027 15.0113 40.7826 15.0004 40.8168 15.019C40.8349 15.029 40.812 15.0165 40.8307 15.0267C40.8423 15.033 40.8343 15.0286 40.8464 15.0352C40.8497 15.0371 40.8513 15.0379 40.8548 15.0398C40.868 15.0471 40.8503 15.0373 40.8636 15.0447C40.8671 15.0465 40.8647 15.0452 40.8682 15.0472C40.8738 15.0502 40.865 15.0454 40.8705 15.0484C40.8755 15.0511 40.8679 15.047 40.8729 15.0497C40.8742 15.0504 40.8739 15.0503 40.8753 15.051C40.8757 15.0512 40.8761 15.0514 40.8765 15.0517C40.8769 15.0519 40.8773 15.0521 40.8777 15.0523C40.8812 15.0543 40.8789 15.053 40.8825 15.055C40.8884 15.0582 40.8967 15.0627 40.9031 15.0662C40.9117 15.0709 40.9052 15.0674 40.914 15.0722C40.9142 15.0723 40.9194 15.0751 40.9196 15.0752C40.9217 15.0764 40.9203 15.0756 40.9224 15.0768C40.9229 15.077 40.9234 15.0773 40.9239 15.0776C40.9243 15.0778 40.9248 15.0781 40.9253 15.0783C40.9712 15.1034 40.891 15.0596 40.937 15.0847C40.9496 15.0916 40.9364 15.0844 40.9491 15.0914C40.9662 15.1007 40.957 15.0957 40.9746 15.1053L41.9335 13.3502C41.8777 13.3196 41.9379 13.3525 41.8842 13.3232C41.8347 13.2962 41.8887 13.3257 41.8414 13.2998C41.8257 13.2912 41.8188 13.2875 41.8053 13.2801C41.7444 13.2468 41.8343 13.296 41.7757 13.2639C41.7553 13.2528 41.7831 13.268 41.7633 13.2572C41.7472 13.2484 41.7737 13.2628 41.7578 13.2541C41.7561 13.2532 41.7568 13.2536 41.7551 13.2527C41.7549 13.2526 41.7547 13.2525 41.7545 13.2524C41.7543 13.2522 41.7541 13.2521 41.7539 13.252C41.7527 13.2514 41.7538 13.252 41.7526 13.2513C41.7438 13.2465 41.7428 13.2459 41.7362 13.2423C41.7319 13.24 41.7341 13.2412 41.7304 13.2392C41.7214 13.2343 41.7348 13.2416 41.7263 13.237C41.7218 13.2345 41.7278 13.2378 41.7239 13.2356C41.7228 13.235 41.7241 13.2357 41.7232 13.2353C41.7228 13.235 41.7234 13.2354 41.7231 13.2352C41.723 13.2351 41.7231 13.2352 41.723 13.2352C41.723 13.2352 41.723 13.2352 41.723 13.2352C41.723 13.2352 41.723 13.2352 41.2436 14.1127C40.7641 14.9903 40.7641 14.9903 40.7641 14.9903C40.7641 14.9903 40.7641 14.9903 40.7641 14.9903C40.7642 14.9904 40.7641 14.9903 40.7642 14.9903C40.7642 14.9903 40.7642 14.9903 40.7642 14.9903C40.7642 14.9903 40.7642 14.9904 40.7642 14.9904C40.7643 14.9904 40.7643 14.9904 40.7643 14.9904C40.7643 14.9904 40.7643 14.9904 40.7643 14.9904C40.7648 14.9907 40.7641 14.9903 40.7646 14.9905C40.7648 14.9906 40.7647 14.9906 40.765 14.9907C40.7668 14.9918 40.7635 14.99 40.7654 14.991C40.7655 14.991 40.7655 14.991 40.7655 14.9911C40.7656 14.9911 40.7656 14.9911 40.7657 14.9911C40.7658 14.9912 40.7658 14.9912 40.766 14.9913C40.7699 14.9934 40.7634 14.9899 40.7674 14.9921C40.7809 14.9994 40.7616 14.9889 40.7773 14.9975C40.8027 15.0113 40.7826 15.0004 40.8168 15.019C40.8349 15.029 40.812 15.0165 40.8307 15.0267C40.8423 15.033 40.8343 15.0286 40.8464 15.0352C40.8497 15.0371 40.8513 15.0379 40.8548 15.0398C40.868 15.0471 40.8503 15.0373 40.8636 15.0447C40.8671 15.0465 40.8647 15.0452 40.8682 15.0472C40.8738 15.0502 40.865 15.0454 40.8705 15.0484C40.8755 15.0511 40.8679 15.047 40.8729 15.0497C40.8742 15.0504 40.8739 15.0503 40.8753 15.051C40.8757 15.0512 40.8761 15.0514 40.8765 15.0517C40.8769 15.0519 40.8773 15.0521 40.8777 15.0523C40.8812 15.0543 40.8789 15.053 40.8825 15.055C40.8884 15.0582 40.8967 15.0627 40.9031 15.0662C40.9117 15.0709 40.9052 15.0674 40.914 15.0722C40.9142 15.0723 40.9194 15.0751 40.9196 15.0752C40.9217 15.0764 40.9203 15.0756 40.9224 15.0768C40.9229 15.077 40.9234 15.0773 40.9239 15.0776C40.9243 15.0778 40.9248 15.0781 40.9253 15.0783C40.9712 15.1034 40.891 15.0596 40.937 15.0847C40.9496 15.0916 40.9364 15.0844 40.9491 15.0914C40.9662 15.1007 40.957 15.0957 40.9746 15.1053L41.9335 13.3502ZM42.4427 14.378C43.1361 9.81706 42.4464 6.53532 39.9275 3.57459L38.4042 4.87056C40.4528 7.27854 41.0964 9.92676 40.4654 14.0774L42.4427 14.378Z" fill="#E8E8E8" mask="url(#path-1-inside-1_205_1778)"/>
<path d="M18.2421 12.2104L18.2433 12.2098C18.5963 12.0364 18.9832 11.9462 19.3755 11.9465M18.2421 12.2104L36.9616 12.7732L37.0435 12.28C35.6765 12.053 34.1878 11.9465 32.6001 11.9465H19.3755M18.2421 12.2104C17.8593 12.3998 17.5284 12.6814 17.2769 13.0298C17.0255 13.3781 16.8606 13.783 16.7954 14.2095L16.7954 14.2095L11.434 49.2855H1.44772C0.882834 49.2855 0.416675 48.7567 0.512418 48.1342L0.512489 48.1338M18.2421 12.2104L0.512489 48.1338M19.3755 11.9465L19.3752 12.4465V11.9465H19.3755ZM0.512489 48.1338L7.53629 2.17776C7.5363 2.1777 7.53631 2.17764 7.53632 2.17759C7.68684 1.20005 8.49746 0.5 9.42651 0.5H26.2968C32.0688 0.5 36.4173 1.76404 38.785 4.5466L0.512489 48.1338ZM40.9847 13.9858C41.1448 14.0632 41.3014 14.1438 41.4543 14.2277C41.4813 14.0496 41.5062 13.8738 41.5288 13.7002C41.3738 13.6187 41.2156 13.5406 41.0545 13.4655C41.0335 13.6365 41.0103 13.8099 40.9847 13.9858ZM38.1882 12.506C38.1881 12.506 38.1879 12.5059 38.1878 12.5059C38.1874 12.5058 38.1871 12.5058 38.1868 12.5057L38.0758 12.9932L38.1882 12.506Z" fill="#27346A" stroke="#E8E8E8"/>
<path d="M41.7724 15.3398C40.6424 21.3275 38.1292 25.4159 34.6098 27.998C31.0992 30.5736 26.6487 31.6056 21.723 31.6056H16.7728C15.8457 31.6056 15.0412 32.3039 14.8919 33.283L14.8918 33.2832L11.638 54.5636L11.638 54.5638C11.56 55.0726 11.9415 55.4998 12.3945 55.4998H21.1733C21.1733 55.4998 21.1734 55.4998 21.1734 55.4998C21.5528 55.4997 21.922 55.3601 22.2144 55.1023C22.5071 54.8443 22.7038 54.4842 22.7649 54.0854L22.7661 54.0778L22.7675 54.0702L22.8516 53.6164L24.505 42.8056L24.5068 42.7934L24.507 42.7934L24.6126 42.2012C24.7097 41.5776 25.019 41.0067 25.4893 40.5921C25.9615 40.1758 26.5648 39.9449 27.1912 39.9447H27.1914H28.5052C32.6928 39.9447 36.3666 39.0666 39.2234 36.9708C42.0712 34.8815 44.1682 31.537 45.123 26.479C45.9232 22.2349 45.4829 18.8234 43.477 16.4647C43.0142 15.9213 42.4626 15.446 41.8285 15.0331L41.7724 15.3398ZM41.7724 15.3398C41.7724 15.3399 41.7724 15.34 41.7724 15.3401L41.2812 15.2468L41.7725 15.3395C41.7725 15.3396 41.7724 15.3397 41.7724 15.3398Z" fill="#2790C3" stroke="#E8E8E8"/>
<mask id="path-5-inside-2_205_1778" fill="white">
<path d="M39.1271 13.2705C38.7804 13.166 38.4304 13.0736 38.0777 12.9932C37.7084 12.9094 37.3368 12.8366 36.9635 12.7747C35.6273 12.5516 34.1677 12.4463 32.6002 12.4463H19.3769C19.0613 12.4456 18.7497 12.5187 18.4655 12.6601C18.1564 12.8123 17.8879 13.04 17.6833 13.3234C17.4787 13.6068 17.3441 13.9374 17.2912 14.2865L14.4806 32.6719L14.3994 33.2078C14.5843 31.9981 15.5872 31.1058 16.775 31.1058H21.7252C31.4472 31.1058 39.0595 27.0319 41.2832 15.247C41.3494 14.8984 41.4049 14.5607 41.456 14.2277C40.8928 13.9211 40.2833 13.6561 39.6269 13.4315C39.4613 13.3748 39.2947 13.3211 39.1273 13.2705"/>
</mask>
<path d="M39.1271 13.2705C38.7804 13.166 38.4304 13.0736 38.0777 12.9932C37.7084 12.9094 37.3368 12.8366 36.9635 12.7747C35.6273 12.5516 34.1677 12.4463 32.6002 12.4463H19.3769C19.0613 12.4456 18.7497 12.5187 18.4655 12.6601C18.1564 12.8123 17.8879 13.04 17.6833 13.3234C17.4787 13.6068 17.3441 13.9374 17.2912 14.2865L14.4806 32.6719L14.3994 33.2078C14.5843 31.9981 15.5872 31.1058 16.775 31.1058H21.7252C31.4472 31.1058 39.0595 27.0319 41.2832 15.247C41.3494 14.8984 41.4049 14.5607 41.456 14.2277C40.8928 13.9211 40.2833 13.6561 39.6269 13.4315C39.4613 13.3748 39.2947 13.3211 39.1273 13.2705" fill="#1F264F"/>
<path d="M38.0777 12.9932L38.2998 12.0182L38.2989 12.018L38.0777 12.9932ZM36.9635 12.7747L36.7988 13.7611L36.8001 13.7613L36.9635 12.7747ZM19.3769 12.4463L19.3746 13.4463H19.3769V12.4463ZM18.4655 12.6601L18.9073 13.5572L18.911 13.5554L18.4655 12.6601ZM17.2912 14.2865L18.2797 14.4377L18.2799 14.4363L17.2912 14.2865ZM14.4806 32.6719L13.4921 32.5208L13.4919 32.5222L14.4806 32.6719ZM14.3994 33.2078L13.4107 33.0581L15.3879 33.3589L14.3994 33.2078ZM41.2832 15.247L40.3007 15.0604L40.3005 15.0615L41.2832 15.247ZM41.456 14.2277L42.4444 14.3793L42.5508 13.6853L41.9342 13.3495L41.456 14.2277ZM39.6269 13.4315L39.9507 12.4853L39.9506 12.4853L39.6269 13.4315ZM39.4156 12.313C39.047 12.2019 38.6748 12.1036 38.2998 12.0182L37.8556 13.9682C38.186 14.0435 38.5138 14.1301 38.8387 14.228L39.4156 12.313ZM38.2989 12.018C37.9105 11.9299 37.5197 11.8532 37.1269 11.7882L36.8001 13.7613C37.154 13.8199 37.5063 13.889 37.8565 13.9684L38.2989 12.018ZM37.1282 11.7884C35.727 11.5544 34.2111 11.4463 32.6002 11.4463V13.4463C34.1242 13.4463 35.5275 13.5488 36.7988 13.7611L37.1282 11.7884ZM32.6002 11.4463H19.3769V13.4463H32.6002V11.4463ZM19.3793 11.4463C18.9073 11.4452 18.4424 11.5546 18.0199 11.7648L18.911 13.5554C19.057 13.4827 19.2154 13.4459 19.3746 13.4463L19.3793 11.4463ZM18.0237 11.763C17.5657 11.9885 17.1713 12.3241 16.8725 12.7381L18.494 13.9088C18.6044 13.7559 18.747 13.6362 18.9073 13.5572L18.0237 11.763ZM16.8725 12.7381C16.5738 13.1518 16.3789 13.6321 16.3025 14.1368L18.2799 14.4363C18.3093 14.2428 18.3835 14.0618 18.494 13.9088L16.8725 12.7381ZM16.3027 14.1354L13.4921 32.5208L15.4691 32.823L18.2797 14.4377L16.3027 14.1354ZM13.4919 32.5222L13.4107 33.0581L15.3881 33.3576L15.4693 32.8216L13.4919 32.5222ZM15.3879 33.3589C15.5024 32.61 16.1084 32.1058 16.775 32.1058V30.1058C15.066 30.1058 13.6662 31.3861 13.4109 33.0568L15.3879 33.3589ZM16.775 32.1058H21.7252V30.1058H16.775V32.1058ZM21.7252 32.1058C26.7153 32.1058 31.2828 31.0612 34.9076 28.402C38.5502 25.7297 41.1176 21.5174 42.2658 15.4324L40.3005 15.0615C39.225 20.7614 36.8744 24.4786 33.7245 26.7894C30.5568 29.1133 26.4571 30.1058 21.7252 30.1058V32.1058ZM42.2656 15.4335C42.3347 15.0695 42.3923 14.7193 42.4444 14.3793L40.4675 14.0762C40.4176 14.402 40.364 14.7273 40.3007 15.0604L42.2656 15.4335ZM41.9342 13.3495C41.3174 13.0136 40.6556 12.7265 39.9507 12.4853L39.3032 14.3776C39.911 14.5856 40.4683 14.8285 40.9777 15.106L41.9342 13.3495ZM39.9506 12.4853C39.7737 12.4248 39.5957 12.3674 39.4169 12.3133L38.8377 14.2276C38.9938 14.2748 39.149 14.3249 39.3033 14.3776L39.9506 12.4853Z" fill="#E8E8E8" mask="url(#path-5-inside-2_205_1778)"/>
</svg>
