<svg width="18" height="18" viewBox="0 0 18 18" fill="none" xmlns="http://www.w3.org/2000/svg">
<path d="M14.0279 7.85973C13.6417 7.85973 13.3364 7.54542 13.3364 7.16821C13.3364 6.83594 13.0041 6.14446 12.4474 5.54279C11.8996 4.95907 11.2979 4.61782 10.795 4.61782C10.4088 4.61782 10.1035 4.30351 10.1035 3.92634C10.1035 3.54917 10.4178 3.23486 10.795 3.23486C11.693 3.23486 12.6359 3.7198 13.4621 4.59088C14.2344 5.40808 14.7283 6.42285 14.7283 7.15923C14.7283 7.54542 14.414 7.85973 14.0279 7.85973Z" fill="white"/>
<path d="M17.2696 7.85772C16.8834 7.85772 16.5781 7.54341 16.5781 7.16624C16.5781 3.97825 13.9828 1.39194 10.8038 1.39194C10.4176 1.39194 10.1123 1.07763 10.1123 0.70046C10.1123 0.323289 10.4176 0 10.7948 0C14.7461 0 17.9611 3.21493 17.9611 7.16624C17.9611 7.54341 17.6467 7.85772 17.2696 7.85772Z" fill="white"/>
<path d="M8.12714 11.6294L6.46579 13.2908C6.11556 13.641 5.55878 13.641 5.19957 13.2998C5.10079 13.201 5.00201 13.1112 4.90322 13.0124C3.97826 12.0784 3.14309 11.0996 2.39773 10.0758C1.66135 9.05209 1.06865 8.02834 0.637599 7.01358C0.215526 5.98983 0 5.01098 0 4.07703C0 3.46638 0.107763 2.88266 0.323289 2.34385C0.538816 1.79605 0.880066 1.29316 1.35602 0.844144C1.93076 0.278388 2.55937 0 3.22391 0C3.47536 0 3.72681 0.0538816 3.95132 0.161645C4.1848 0.269408 4.39135 0.431052 4.55299 0.664539L6.63641 3.60108C6.79806 3.82559 6.9148 4.03213 6.99562 4.2297C7.07645 4.41828 7.12135 4.60687 7.12135 4.77749C7.12135 4.99302 7.05849 5.20854 6.93276 5.41509C6.81602 5.62164 6.64539 5.83716 6.42987 6.05269L5.74737 6.76213C5.64858 6.86091 5.60368 6.97765 5.60368 7.12134C5.60368 7.19318 5.61266 7.25604 5.63062 7.32788C5.65757 7.39973 5.68451 7.45361 5.70247 7.50749C5.86411 7.80384 6.1425 8.18999 6.53763 8.65696C6.94174 9.12393 7.3728 9.59989 7.83977 10.0758C7.92957 10.1656 8.02835 10.2554 8.11816 10.3452C8.47737 10.6955 8.48635 11.2702 8.12714 11.6294Z" fill="white"/>
<path d="M17.9328 14.6641C17.9328 14.9155 17.8879 15.1759 17.7981 15.4274C17.7711 15.4992 17.7442 15.5711 17.7083 15.6429C17.5556 15.9662 17.3581 16.2715 17.0976 16.5589C16.6576 17.0438 16.1727 17.394 15.6249 17.6186C15.6159 17.6186 15.6069 17.6275 15.5979 17.6275C15.0681 17.8431 14.4934 17.9598 13.8737 17.9598C12.9577 17.9598 11.9789 17.7443 10.9461 17.3042C9.91342 16.8642 8.88069 16.2715 7.85694 15.5262C7.50671 15.2657 7.15649 15.0053 6.82422 14.7269L9.76076 11.7904C10.0122 11.979 10.2367 12.1226 10.4253 12.2214C10.4702 12.2394 10.5241 12.2663 10.5869 12.2933C10.6588 12.3202 10.7306 12.3292 10.8114 12.3292C10.9641 12.3292 11.0809 12.2753 11.1796 12.1765L11.8621 11.503C12.0866 11.2785 12.3022 11.1079 12.5087 11.0001C12.7153 10.8744 12.9218 10.8115 13.1463 10.8115C13.3169 10.8115 13.4965 10.8474 13.6941 10.9283C13.8917 11.0091 14.0982 11.1258 14.3227 11.2785L17.2952 13.3889C17.5287 13.5505 17.6903 13.7391 17.7891 13.9636C17.8789 14.1881 17.9328 14.4126 17.9328 14.6641Z" fill="white"/>
</svg>
