<svg width="206" height="77" viewBox="0 0 206 77" fill="none" xmlns="http://www.w3.org/2000/svg">
<g filter="url(#filter0_d_205_1701)">
<path d="M12.98 1H193.49C197.89 1 201.47 4.58 201.47 8.98V59.53C201.47 63.93 197.89 67.51 193.49 67.51H12.98C8.57998 67.51 5 63.93 5 59.53V8.98C5 4.58 8.57998 1 12.98 1Z" stroke="white" stroke-miterlimit="10" shape-rendering="crispEdges"/>
</g>
<path d="M183.19 38.6201L180.26 46.0801H180.17L177.11 38.6201H174.35L178.93 49.0501L176.31 54.8501H179L186.06 38.6201H183.19ZM162.49 32.4301H159.93V49.6401H162.49V32.4301ZM152.86 32.4301H146.71V49.6401H149.29V43.1301H152.87C155.88 43.2301 158.41 40.8701 158.51 37.8601C158.51 37.8401 158.51 37.8101 158.51 37.7901C158.45 34.7701 155.95 32.3701 152.93 32.4401C152.91 32.4401 152.88 32.4401 152.86 32.4401V32.4301ZM152.93 40.7201H149.29V34.8601H152.94C154.56 34.8601 155.87 36.1701 155.87 37.7901C155.87 39.4101 154.56 40.7201 152.94 40.7201H152.93ZM168.8 38.2501C166.88 38.1401 165.09 39.1801 164.22 40.8901L166.51 41.8701C166.97 41.0201 167.89 40.5301 168.85 40.6201C170.2 40.4801 171.41 41.4701 171.54 42.8201C171.54 42.8201 171.54 42.8201 171.54 42.8301V43.0101C170.72 42.5701 169.8 42.3401 168.87 42.3401C166.42 42.3401 163.92 43.6901 163.92 46.2501C163.92 48.5501 165.92 50.0401 168.19 50.0401C169.5 50.1201 170.76 49.4801 171.45 48.3601H171.55V49.6901H174.05V43.0701C174.05 40.0101 171.76 38.3101 168.82 38.3101L168.8 38.2601V38.2501ZM168.5 47.6801C167.66 47.6801 166.49 47.2501 166.49 46.2201C166.49 44.8901 167.95 44.3801 169.21 44.3801C170.03 44.3601 170.84 44.5601 171.55 44.9601C171.35 46.5001 170.05 47.6701 168.49 47.6801H168.5ZM75.8999 50.0001C70.8399 50.0201 66.7099 45.9601 66.6299 40.9101C66.7099 35.8501 70.8399 31.8001 75.8999 31.8201C78.2399 31.7801 80.4999 32.6901 82.1599 34.3301L80.3899 36.0801C79.1899 34.9101 77.5799 34.2501 75.8999 34.2601C72.2499 34.2601 69.2899 37.2201 69.2899 40.8701C69.2899 44.5201 72.2499 47.4801 75.8999 47.4801C77.6299 47.5501 79.2999 46.8901 80.5099 45.6501C81.2999 44.7901 81.7799 43.6901 81.8699 42.5201H75.8999V40.1101H84.2999C84.3899 40.6201 84.4299 41.1401 84.4299 41.6601C84.5099 43.8201 83.7399 45.9301 82.2699 47.5201C80.5999 49.2101 78.2799 50.1101 75.8999 49.9901V50.0001ZM97.4099 44.1401C97.5399 47.3401 95.0499 50.0401 91.8499 50.1701C88.6499 50.3001 85.9499 47.8101 85.8199 44.6101C85.8199 44.4501 85.8199 44.2901 85.8199 44.1301C85.6899 40.9301 88.1799 38.2301 91.3799 38.1001C94.5799 37.9701 97.2799 40.4601 97.4099 43.6601C97.4099 43.8201 97.4099 43.9801 97.4099 44.1401ZM94.8699 44.1401C95.0399 42.3401 93.7199 40.7401 91.9199 40.5701C90.1199 40.4001 88.5199 41.7201 88.3499 43.5201C88.3299 43.7301 88.3299 43.9301 88.3499 44.1401C88.1799 45.9401 89.4999 47.5401 91.2999 47.7101C93.0999 47.8801 94.6999 46.5601 94.8699 44.7601C94.8899 44.5501 94.8899 44.3501 94.8699 44.1401ZM110.4 44.1401C110.4 47.3401 107.81 49.9301 104.61 49.9301C101.41 49.9301 98.8199 47.3401 98.8199 44.1401C98.8199 40.9401 101.41 38.3501 104.61 38.3501C107.81 38.3501 110.4 40.9401 110.4 44.1401ZM107.87 44.1401C108.04 42.3401 106.72 40.7401 104.92 40.5701C103.12 40.4001 101.52 41.7201 101.35 43.5201C101.33 43.7301 101.33 43.9301 101.35 44.1401C101.18 45.9401 102.5 47.5401 104.3 47.7101C106.1 47.8801 107.7 46.5601 107.87 44.7601C107.89 44.5501 107.89 44.3501 107.87 44.1401ZM123.08 38.6401V49.1601C123.08 53.4801 120.51 55.2501 117.48 55.2501C115.21 55.2701 113.15 53.9201 112.27 51.8301L114.49 50.8501C114.96 52.0701 116.11 52.8901 117.42 52.9301C119.37 52.9301 120.56 51.7301 120.56 49.4901V48.6501H120.46C119.69 49.5101 118.57 50.0001 117.41 49.9901C114.17 49.9901 111.55 47.3701 111.55 44.1301C111.55 40.8901 114.17 38.2701 117.41 38.2701C118.58 38.2401 119.7 38.7201 120.5 39.5801H120.6V38.6001H123.08V38.6301V38.6401ZM120.8 44.1701C120.95 42.3501 119.59 40.7501 117.77 40.6001C117.74 40.6001 117.7 40.6001 117.67 40.6001C115.79 40.6601 114.32 42.2301 114.39 44.1101C114.39 44.1301 114.39 44.1501 114.39 44.1801C114.3 46.0401 115.74 47.6201 117.6 47.7001C117.62 47.7001 117.65 47.7001 117.67 47.7001C119.48 47.6301 120.88 46.1101 120.81 44.3001C120.81 44.2601 120.81 44.2101 120.81 44.1701H120.8ZM127.6 32.4401V49.6401H125.02V32.4401H127.6ZM137.76 46.0701L139.77 47.4001C138.68 49.0301 136.85 50.0001 134.89 50.0001C131.76 50.0401 129.18 47.5401 129.14 44.4101C129.14 44.3201 129.14 44.2301 129.14 44.1401C128.88 41.1701 131.08 38.5601 134.05 38.3001C136.55 38.0801 138.87 39.6201 139.64 42.0101L139.9 42.6801L132.09 45.9101C132.59 47.0301 133.72 47.7301 134.94 47.6901C136.1 47.6701 137.16 47.0601 137.76 46.0701ZM131.6 43.9601L136.85 41.7901C136.43 40.9801 135.57 40.4901 134.66 40.5501C132.89 40.6301 131.51 42.1301 131.59 43.9001C131.59 43.9201 131.59 43.9401 131.59 43.9601H131.6Z" fill="white"/>
<path d="M37.2003 33.3701L20.5703 50.8001C21.2503 53.2001 23.7403 54.5901 26.1403 53.9201C26.5003 53.8201 26.8503 53.6701 27.1803 53.4801L45.9003 42.8201L37.2103 33.3801L37.2003 33.3701Z" fill="#EA4335"/>
<path d="M54.0203 30.41L45.9303 25.77L36.8203 33.76L45.9702 42.78L54.0002 38.19C56.1502 37.06 56.9802 34.4 55.8602 32.25C55.4402 31.46 54.8002 30.81 54.0002 30.39H54.0203V30.41Z" fill="#FBBC04"/>
<path d="M20.5602 17.73C20.4602 18.1 20.4102 18.49 20.4102 18.87V49.66C20.4102 50.04 20.4602 50.43 20.5602 50.8L37.7601 33.82L20.5602 17.73Z" fill="#4285F4"/>
<path d="M37.3206 34.2602L45.9205 25.7702L27.2305 15.0602C26.5305 14.6502 25.7305 14.4302 24.9105 14.4302C22.8905 14.4302 21.1105 15.7702 20.5605 17.7102L37.3206 34.2602Z" fill="#34A853"/>
<path d="M70.9701 25.9299C68.3201 25.9299 66.6201 23.9999 66.6201 20.9799C66.6201 17.9599 68.3101 16.1299 70.9701 16.1299C73.0201 16.1299 74.5802 17.3499 74.9402 19.2299H73.7002C73.3102 17.9499 72.3101 17.2199 70.9801 17.2199C69.0301 17.2199 67.8501 18.6299 67.8501 20.9699C67.8501 23.3099 69.0501 24.8399 70.9801 24.8399C72.6601 24.8399 73.8202 23.7499 73.8202 22.1599V21.9899H71.1401V20.9499H75.0001V21.8499C75.0001 24.4099 73.5101 25.9299 70.9801 25.9299H70.9701Z" fill="white"/>
<path d="M82.3898 25.7703H76.5098V16.2803H82.3898V17.3503H77.6898V20.3903H82.1398V21.4403H77.6898V24.7003H82.3898V25.7703Z" fill="white"/>
<path d="M86.3503 25.7703V17.3503H83.3604V16.2803H90.5304V17.3503H87.5404V25.7703H86.3604H86.3503Z" fill="white"/>
<path d="M94.5303 25.7703V16.2803H95.7103V25.7703H94.5303Z" fill="white"/>
<path d="M97.5605 25.7703V16.2803H98.7106L103.901 23.7303H103.961V16.2803H105.13V25.7703H103.98L98.7905 18.3503H98.7305V25.7703H97.5605Z" fill="white"/>
<path d="M118.11 21.0301C118.11 24.0401 116.43 25.9301 113.74 25.9301C111.05 25.9301 109.37 24.0401 109.37 21.0301C109.37 18.0201 111.05 16.1201 113.74 16.1201C116.43 16.1201 118.11 18.0101 118.11 21.0301ZM110.58 21.0301C110.58 23.3601 111.8 24.8401 113.74 24.8401C115.68 24.8401 116.9 23.3701 116.9 21.0301C116.9 18.6901 115.68 17.2201 113.74 17.2201C111.8 17.2201 110.58 18.6901 110.58 21.0301Z" fill="white"/>
<path d="M119.59 25.7703V16.2803H120.74L125.93 23.7303H125.99V16.2803H127.16V25.7703H126.01L120.82 18.3503H120.76V25.7703H119.59Z" fill="white"/>
<defs>
<filter id="filter0_d_205_1701" x="0.5" y="0.5" width="205.47" height="75.5098" filterUnits="userSpaceOnUse" color-interpolation-filters="sRGB">
<feFlood flood-opacity="0" result="BackgroundImageFix"/>
<feColorMatrix in="SourceAlpha" type="matrix" values="0 0 0 0 0 0 0 0 0 0 0 0 0 0 0 0 0 0 127 0" result="hardAlpha"/>
<feOffset dy="4"/>
<feGaussianBlur stdDeviation="2"/>
<feComposite in2="hardAlpha" operator="out"/>
<feColorMatrix type="matrix" values="0 0 0 0 0 0 0 0 0 0 0 0 0 0 0 0 0 0 0.25 0"/>
<feBlend mode="normal" in2="BackgroundImageFix" result="effect1_dropShadow_205_1701"/>
<feBlend mode="normal" in="SourceGraphic" in2="effect1_dropShadow_205_1701" result="shape"/>
</filter>
</defs>
</svg>
