<svg width="32" height="31" viewBox="0 0 32 31" fill="none" xmlns="http://www.w3.org/2000/svg">
<path d="M24.2133 13.5669C23.5468 13.5669 23.0197 13.0244 23.0197 12.3733C23.0197 11.7998 22.4462 10.6062 21.4852 9.56769C20.5396 8.56013 19.5011 7.9711 18.633 7.9711C17.9665 7.9711 17.4395 7.42858 17.4395 6.77754C17.4395 6.12651 17.982 5.58398 18.633 5.58398C20.1831 5.58398 21.8107 6.42103 23.2368 7.9246C24.5698 9.33517 25.4224 11.0868 25.4224 12.3578C25.4224 13.0244 24.8798 13.5669 24.2133 13.5669Z" fill="#ED1C24"/>
<path d="M29.8112 13.5632C29.1446 13.5632 28.6176 13.0207 28.6176 12.3696C28.6176 6.86685 24.1379 2.40262 18.6506 2.40262C17.9841 2.40262 17.457 1.86009 17.457 1.20906C17.457 0.558028 17.9841 0 18.6351 0C25.4554 0 31.0047 5.54928 31.0047 12.3696C31.0047 13.0207 30.4622 13.5632 29.8112 13.5632Z" fill="#ED1C24"/>
<path d="M14.0282 20.0735L11.1606 22.9412C10.556 23.5457 9.595 23.5457 8.97496 22.9567C8.80446 22.7861 8.63395 22.6311 8.46344 22.4606C6.86686 20.8486 5.42528 19.159 4.13871 17.3919C2.86765 15.6248 1.8446 13.8577 1.10056 12.1061C0.372019 10.339 0 8.64944 0 7.03735C0 5.9833 0.186009 4.97575 0.558029 4.0457C0.930048 3.10016 1.51908 2.23211 2.34062 1.45707C3.33267 0.480524 4.41773 0 5.56479 0C5.99881 0 6.43283 0.0930048 6.82035 0.279014C7.22337 0.465024 7.57989 0.744038 7.85891 1.14706L11.4551 6.21581C11.7341 6.60333 11.9356 6.95985 12.0751 7.30087C12.2146 7.62638 12.2921 7.9519 12.2921 8.24642C12.2921 8.61843 12.1836 8.99045 11.9666 9.34697C11.7651 9.70349 11.4706 10.0755 11.0986 10.4475L9.92051 11.6721C9.75 11.8426 9.6725 12.0441 9.6725 12.2921C9.6725 12.4161 9.688 12.5246 9.719 12.6486C9.76551 12.7726 9.81201 12.8656 9.84301 12.9587C10.122 13.4702 10.6025 14.1367 11.2846 14.9428C11.9821 15.7488 12.7262 16.5703 13.5322 17.3919C13.6872 17.5469 13.8577 17.7019 14.0127 17.8569C14.6328 18.4614 14.6483 19.4535 14.0282 20.0735Z" fill="#ED1C24"/>
<path d="M30.9538 25.3112C30.9538 25.7452 30.8763 26.1948 30.7213 26.6288C30.6748 26.7528 30.6283 26.8768 30.5662 27.0008C30.3027 27.5588 29.9617 28.0859 29.5122 28.5819C28.7527 29.4189 27.9156 30.0235 26.9701 30.411C26.9546 30.411 26.9391 30.4265 26.9236 30.4265C26.009 30.7985 25.017 31 23.9474 31C22.3663 31 20.6767 30.628 18.8941 29.8684C17.1116 29.1089 15.329 28.0859 13.5619 26.7993C12.9573 26.3498 12.3528 25.9002 11.7793 25.4197L16.848 20.351C17.2821 20.6765 17.6696 20.9245 17.9951 21.095C18.0726 21.126 18.1656 21.1725 18.2741 21.219C18.3981 21.2655 18.5221 21.281 18.6616 21.281C18.9251 21.281 19.1267 21.188 19.2972 21.0175L20.4752 19.8549C20.8627 19.4674 21.2348 19.1729 21.5913 18.9869C21.9478 18.7699 22.3043 18.6614 22.6918 18.6614C22.9864 18.6614 23.2964 18.7234 23.6374 18.8629C23.9784 19.0024 24.3349 19.2039 24.7224 19.4674L29.8532 23.1101C30.2562 23.3891 30.5352 23.7146 30.7058 24.1022C30.8608 24.4897 30.9538 24.8772 30.9538 25.3112Z" fill="#ED1C24"/>
</svg>
