<svg width="51" height="54" viewBox="0 0 51 54" fill="none" xmlns="http://www.w3.org/2000/svg">
<path d="M49.3518 52.1031C47.9476 53.6068 46.1069 54.0742 45.2435 53.1496L43.6211 51.4122L48.6497 45.9053L50.329 47.7037C51.1924 48.6283 50.756 50.5994 49.3518 52.1031Z" fill="#ED1C24"/>
<path d="M47.2376 44.1771L36.7914 32.9906C38.8882 29.6275 40.1121 25.5837 40.1121 21.2351C40.1121 9.51007 31.2315 0 20.273 0C9.31444 0 0.272471 9.51007 0.433766 21.2452C0.604548 33.1938 9.44727 42.6531 20.273 42.4905C24.5615 42.4194 28.5274 41.0172 31.7818 38.528L42.209 49.6942L47.2376 44.1771ZM34.2202 21.5297C34.2202 29.7799 27.9771 36.4654 20.273 36.4654C12.5688 36.4654 6.32575 29.7799 6.32575 21.5297C6.32575 13.2796 12.5688 6.59405 20.273 6.59405C27.9771 6.59405 34.2202 13.2796 34.2202 21.5297Z" fill="#ED1C24"/>
</svg>
