<svg width="70" height="54" viewBox="0 0 70 54" fill="none" xmlns="http://www.w3.org/2000/svg">
<path d="M57.1302 24.0228C57.1302 24.0228 58.0538 28.5067 58.2604 29.4469H54.2014C54.6024 28.3741 56.1458 24.2036 56.1458 24.2036C56.1215 24.2397 56.5469 23.1067 56.7899 22.4076L57.1302 24.0228ZM70 5.78571V48.2143C70 51.4085 67.3872 54 64.1667 54H5.83333C2.61285 54 0 51.4085 0 48.2143V5.78571C0 2.59152 2.61285 0 5.83333 0H64.1667C67.3872 0 70 2.59152 70 5.78571ZM18.533 36.0643L26.2135 17.3571H21.0486L16.2726 30.1339L15.75 27.5424L14.0486 18.9362C13.7691 17.7429 12.9062 17.4054 11.8368 17.3571H3.97396L3.88889 17.7308C5.80903 18.2129 7.52257 18.9121 9.01736 19.792L13.3681 36.0643H18.533ZM30.0052 36.0884L33.0677 17.3571H28.1823L25.1319 36.0884H30.0052ZM47.0069 29.9652C47.0312 27.8317 45.7188 26.2045 42.9115 24.8665C41.1979 24.0107 40.1528 23.4321 40.1528 22.5522C40.1771 21.7567 41.0399 20.9371 42.9601 20.9371C44.5521 20.9009 45.7188 21.2746 46.5938 21.6482L47.0312 21.8531L47.6997 17.8031C46.7396 17.4295 45.2083 17.0076 43.3247 17.0076C38.5 17.0076 35.1094 19.5629 35.0851 23.2031C35.0486 25.8911 37.5156 27.3857 39.3628 28.2897C41.2465 29.2058 41.8906 29.8085 41.8906 30.6161C41.8663 31.8696 40.3594 32.4482 38.9618 32.4482C37.0174 32.4482 35.9722 32.1469 34.3802 31.4478L33.7361 31.1464L33.0556 35.3531C34.1979 35.8714 36.3125 36.3295 38.5 36.3536C43.6285 36.3656 46.9705 33.8464 47.0069 29.9652ZM64.1667 36.0884L60.2292 17.3571H56.4497C55.283 17.3571 54.3958 17.6946 53.8976 18.9121L46.6424 36.0884H51.7708C51.7708 36.0884 52.6094 33.7741 52.7917 33.2799H59.0625C59.2083 33.9429 59.6458 36.0884 59.6458 36.0884H64.1667Z" fill="black"/>
</svg>
