<svg width="135" height="136" viewBox="0 0 135 136" fill="none" xmlns="http://www.w3.org/2000/svg">
<path d="M109.653 117.846L104.61 102.693C102.855 97.3963 98.3353 93.485 92.8457 92.4918L78.2632 89.8047V88.7191C80.7963 87.2486 83.006 85.2852 84.7691 82.9446H89.1808C92.7918 82.9369 95.7176 80.0035 95.7253 76.3925V50.1763C96.0024 34.5082 83.5295 21.581 67.8614 21.3038C52.1933 21.0267 39.2661 33.4996 38.9889 49.1677C38.9889 49.5065 38.9889 49.8375 38.9889 50.1763V65.4672C38.9889 69.6017 41.8993 73.1665 45.9414 74.0134C47.1656 80.2037 51.0076 85.5624 56.4741 88.7114V89.8509L41.8839 92.538C36.3942 93.5312 31.8824 97.4425 30.127 102.74L29.2339 105.357L21.7963 97.9275C20.9417 97.0729 20.9417 95.687 21.7963 94.8324L30.4196 86.2092L14.2433 69.979L4.50364 79.7494C-1.45564 85.7164 -1.45564 95.3868 4.50364 101.354L33.9998 130.827C39.9282 136.771 49.5447 136.794 55.504 130.888L66.1598 121.141L62.8414 117.838H109.669L109.653 117.846ZM91.352 76.3771C91.352 77.5782 90.3896 78.556 89.1808 78.5637C89.1808 78.5637 89.1808 78.5637 89.1731 78.5637H87.3792C87.9874 77.1009 88.434 75.5764 88.7266 74.0211C89.6428 73.8132 90.5128 73.4668 91.3135 72.9817L91.352 76.3771ZM89.1731 69.2091V61.7099C91.2519 62.9033 91.9603 65.5596 90.7669 67.6307C90.3819 68.2928 89.8353 68.8472 89.1731 69.2244V69.2091ZM45.5179 69.2091C43.4391 68.0157 42.7308 65.3594 43.9242 63.2883C44.3092 62.6261 44.8558 62.0718 45.5179 61.6945V69.2168V69.2091ZM45.5179 54.5418V57.0364C44.7557 57.2366 44.0243 57.5369 43.339 57.9295V50.184C43.085 36.9258 53.6253 25.9696 66.8759 25.7156C80.1341 25.4615 91.0903 36.0019 91.3443 49.2524C91.3443 49.5604 91.3443 49.8683 91.3443 50.1763V57.9372C90.6591 57.5446 89.9277 57.2443 89.1654 57.0441V54.5495H86.9788C80.573 54.5649 74.4212 52.0242 69.9017 47.4893L67.3455 44.9331L64.7817 47.4893C60.2622 52.0319 54.1104 54.5803 47.7046 54.5726L45.5179 54.5341V54.5418ZM49.8835 69.825V58.8458C56.4279 58.3607 62.5951 55.6197 67.3378 51.0848C72.0806 55.6197 78.2555 58.3607 84.8076 58.8458V69.8404C84.8076 72.9047 83.9992 75.9229 82.4516 78.5714H67.3455V82.9369H78.8714C71.6649 89.3197 60.6471 88.6422 54.2644 81.4356C51.431 78.2404 49.8758 74.1135 49.8835 69.8404V69.825ZM73.89 90.644V90.7441L67.3378 97.2962L60.7934 90.7441V90.644C65.0588 91.9837 69.6245 91.9837 73.89 90.644ZM34.223 104.087C35.478 100.307 38.6964 97.5041 42.623 96.7957L57.86 94.024L67.3224 103.486L76.8003 94.0163L92.0373 96.7957C95.9562 97.5118 99.1823 100.299 100.445 104.079L103.579 113.488H58.4605L49.9528 104.996L40.5057 113.534C39.6434 114.358 38.2883 114.358 37.426 113.534L32.6601 108.768L34.2307 104.087H34.223ZM14.2125 76.1769L24.1985 86.1707L21.8579 88.542L11.8488 78.5329L14.2125 76.1769ZM52.4781 127.762C48.2204 132.012 41.3141 132.012 37.0564 127.762L7.55257 98.2586C3.29484 93.9932 3.29484 87.0946 7.55257 82.8292L8.75366 81.6281L18.7628 91.6295L18.6858 91.7065C16.1373 94.2704 16.1373 98.4049 18.6858 100.976L34.3385 116.621C35.5627 117.853 37.2258 118.546 38.9658 118.539C40.6674 118.554 42.3073 117.892 43.5161 116.691L43.6778 116.545L53.7716 126.6L52.4781 127.755V127.762ZM56.9591 123.659L46.9192 113.634L49.8065 111.024L59.8156 120.987L56.9591 123.659Z" fill="black"/>
<path d="M128.456 0H97.9047C94.286 0 91.3602 2.93344 91.3525 6.55212V24.0065C91.3525 27.6175 94.286 30.5509 97.9047 30.5509H103.733L101.477 43.7168L122.535 30.5509H128.456C132.067 30.5509 135 27.6252 135 24.0065V6.55212C135 2.94114 132.074 0.00769933 128.456 0ZM130.635 24.0065C130.635 25.2076 129.657 26.1854 128.456 26.1854H121.288L107.436 34.8549L108.922 26.1854H97.9124C96.7113 26.1854 95.7335 25.223 95.7258 24.0142C95.7258 24.0142 95.7258 24.0142 95.7258 24.0065V6.55212C95.7258 5.34333 96.7036 4.36552 97.9124 4.36552H128.463C129.664 4.36552 130.642 5.34333 130.642 6.54443C130.642 6.54443 130.642 6.54442 130.642 6.55212V24.0065H130.635Z" fill="black"/>
<path d="M126.269 8.73096H100.084V13.0965H126.269V8.73096Z" fill="url(#paint0_linear_205_1822)"/>
<path d="M117.538 17.4619H100.084V21.8274H117.538V17.4619Z" fill="url(#paint1_linear_205_1822)"/>
<path d="M126.269 17.4619H121.903V21.8274H126.269V17.4619Z" fill="url(#paint2_linear_205_1822)"/>
<path d="M67.346 6.55225C38.9586 6.55225 14.3207 26.1239 7.88411 53.7722L3.74957 46.8736L0 49.1372L7.66853 61.9181L20.4494 54.2496L18.2089 50.5154L12.2958 54.1033C19.8027 23.6679 50.5615 5.07398 80.9969 12.5808C82.0594 12.8426 83.1065 13.1352 84.1536 13.4585L85.4548 9.2932C79.5879 7.48386 73.4824 6.55995 67.346 6.56765V6.55225Z" fill="url(#paint3_linear_205_1822)"/>
<path d="M133.938 48.3209L121.157 40.6523L113.488 53.4409L117.238 55.6814L121.057 49.3218C127.355 67.8002 123.721 88.2188 111.44 103.386L114.828 106.127C127.986 89.8818 131.936 68.0388 125.284 48.2208L131.744 52.0704L133.938 48.3209Z" fill="url(#paint4_linear_205_1822)"/>
<defs>
<linearGradient id="paint0_linear_205_1822" x1="100.084" y1="10.9099" x2="126.269" y2="10.9099" gradientUnits="userSpaceOnUse">
<stop offset="0.02" stop-color="#009245"/>
<stop offset="0.31" stop-color="#039445"/>
<stop offset="0.55" stop-color="#0D9A47"/>
<stop offset="0.78" stop-color="#1FA54A"/>
<stop offset="1" stop-color="#38B44E"/>
</linearGradient>
<linearGradient id="paint1_linear_205_1822" x1="-87.8104" y1="19.6408" x2="117.538" y2="19.6408" gradientUnits="userSpaceOnUse">
<stop offset="0.02" stop-color="#009245"/>
<stop offset="0.31" stop-color="#039445"/>
<stop offset="0.55" stop-color="#0D9A47"/>
<stop offset="0.78" stop-color="#1FA54A"/>
<stop offset="1" stop-color="#38B44E"/>
</linearGradient>
<linearGradient id="paint2_linear_205_1822" x1="121.903" y1="19.6408" x2="-87.0404" y2="19.6408" gradientUnits="userSpaceOnUse">
<stop offset="0.02" stop-color="#009245"/>
<stop offset="0.31" stop-color="#039445"/>
<stop offset="0.55" stop-color="#0D9A47"/>
<stop offset="0.78" stop-color="#1FA54A"/>
<stop offset="1" stop-color="#38B44E"/>
</linearGradient>
<linearGradient id="paint3_linear_205_1822" x1="0.00769933" y1="34.2313" x2="85.4548" y2="34.2313" gradientUnits="userSpaceOnUse">
<stop offset="0.02" stop-color="#009245"/>
<stop offset="0.31" stop-color="#039445"/>
<stop offset="0.55" stop-color="#0D9A47"/>
<stop offset="0.78" stop-color="#1FA54A"/>
<stop offset="1" stop-color="#38B44E"/>
</linearGradient>
<linearGradient id="paint4_linear_205_1822" x1="111.433" y1="73.3899" x2="133.938" y2="73.3899" gradientUnits="userSpaceOnUse">
<stop offset="0.02" stop-color="#009245"/>
<stop offset="0.31" stop-color="#039445"/>
<stop offset="0.55" stop-color="#0D9A47"/>
<stop offset="0.78" stop-color="#1FA54A"/>
<stop offset="1" stop-color="#38B44E"/>
</linearGradient>
</defs>
</svg>
