<svg width="171" height="133" viewBox="0 0 171 133" fill="none" xmlns="http://www.w3.org/2000/svg">
<path d="M81.6055 71.1089C81.6055 77.8134 76.1722 83.2466 69.4678 83.2466C62.7633 83.2466 57.3301 77.8134 57.3301 71.1089C57.3301 64.4044 62.7633 58.9712 69.4678 58.9712C76.1722 58.9712 81.6055 64.4119 81.6055 71.1089Z" fill="url(#paint0_linear_205_1830)"/>
<path d="M135.385 21.0137V81.233H167.772L163.603 57.5327C163.133 54.8918 162.604 52.266 161.923 49.678C157.632 32.9546 152.918 24.941 135.392 21.0137H135.385Z" fill="url(#paint1_linear_205_1830)"/>
<path d="M70.0728 54.7256C60.909 54.7407 53.478 62.1717 53.4629 71.3355V71.9408C53.5234 73.7342 53.8791 75.505 54.5223 77.1773C57.8064 85.7736 67.4318 90.0793 76.0281 86.8027C80.4625 85.1077 83.9585 81.6117 85.6535 77.1773C86.274 75.4974 86.607 73.7267 86.6524 71.9408C86.6675 71.7365 86.6675 71.5322 86.6524 71.3355C86.6372 62.1868 79.2365 54.7634 70.0803 54.7256H70.0728ZM58.6993 71.3355C58.6993 65.0472 63.8072 59.9545 70.0955 59.9621C76.3838 59.9621 81.4765 65.0699 81.4689 71.3582C81.4689 77.6465 76.3611 82.7392 70.0728 82.7316C63.7845 82.7316 58.6918 77.6238 58.6993 71.3355Z" fill="black"/>
<path d="M101.591 72.3116C101.606 73.598 101.099 74.839 100.183 75.7471C99.2901 76.6702 98.0642 77.1848 96.7778 77.1848H83.6791V71.9484H96.3465L96.2481 62.6105C96.2481 61.9219 96.006 61.763 95.9 61.7176L90.9209 58.4107V51.5625C90.9587 51.3506 90.8452 51.1463 90.6485 51.063C87.2887 49.5269 77.5043 45.872 58.8286 44.7899C51.723 44.4267 44.7764 42.5954 38.4124 39.4248L23.2782 31.8879C18.7379 29.6026 13.7965 28.2254 8.72656 27.8168V22.5576C14.5987 23.0116 20.3345 24.6083 25.5937 27.2568L40.6977 34.7483C46.4261 37.6011 52.6841 39.2507 59.0783 39.5912C77.9432 40.6734 88.2648 44.2526 92.737 46.2806C94.9466 47.2719 96.286 49.5572 96.0741 51.9635V55.5882L98.7528 57.3286C100.508 58.494 101.53 60.4917 101.454 62.5954L101.575 72.3267L101.591 72.3116Z" fill="black"/>
<path d="M55.2486 71.9487H8.7334V77.1852H55.2486V71.9487Z" fill="black"/>
<path d="M13.9698 58.7588H8.7334V77.1696H13.9698V58.7588Z" fill="black"/>
<path d="M5.51775 92.2891H0.28125V106.697H5.51775V92.2891Z" fill="black"/>
<path d="M13.9698 25.3501H8.7334V34.5593H13.9698V25.3501Z" fill="black"/>
<path d="M118.237 21.8237H113.001V6.32618C113.001 5.38785 112.237 4.62357 111.298 4.62357C110.36 4.62357 109.596 5.38785 109.596 6.32618V21.8237H104.359V6.32618C104.715 2.48964 108.113 -0.325344 111.942 0.0303113C115.279 0.340564 117.927 2.98907 118.237 6.32618V21.8237Z" fill="black"/>
<path d="M167.084 78.1079H134.908V83.3444H167.084V78.1079Z" fill="black"/>
<path d="M33.3799 108.521C31.1022 108.521 29.2559 110.367 29.2559 112.645C29.2559 114.922 31.1022 116.769 33.3799 116.769C35.6576 116.769 37.504 114.922 37.504 112.645C37.504 110.367 35.6576 108.528 33.3799 108.521ZM33.3799 113.749C32.767 113.689 32.313 113.144 32.3735 112.531C32.4265 112.001 32.8426 111.578 33.3799 111.525C33.9929 111.464 34.5377 111.918 34.5983 112.531C34.6588 113.144 34.2048 113.689 33.5918 113.749C33.5237 113.749 33.448 113.749 33.3799 113.749Z" fill="black"/>
<path d="M134.181 116.769C131.896 116.769 130.05 114.915 130.05 112.637C130.05 110.359 131.904 108.505 134.181 108.505C136.467 108.505 138.313 110.359 138.313 112.637C138.313 112.637 138.313 112.637 138.313 112.645C138.313 114.922 136.459 116.769 134.181 116.769ZM134.181 111.532C133.569 111.532 133.062 112.024 133.054 112.637C133.054 113.25 133.546 113.757 134.159 113.765C134.772 113.765 135.279 113.273 135.286 112.66C135.286 112.66 135.286 112.66 135.286 112.652C135.286 112.039 134.794 111.54 134.181 111.54V111.532Z" fill="black"/>
<path d="M52.7743 106.53C51.7755 103.375 50.0199 100.507 47.6665 98.1761C47.2503 97.7599 46.7736 97.3286 46.2893 96.9275C46.0472 96.7459 45.7899 96.5416 45.5251 96.3524C43.883 95.1114 42.0593 94.1276 40.1145 93.4466L39.4108 93.2044C38.7752 93.0001 38.132 92.8337 37.4812 92.705L36.6866 92.5461C36.2099 92.4629 35.6878 92.4099 35.264 92.3569H31.5107C31.0491 92.3569 30.5875 92.4629 30.1259 92.5461C29.8383 92.5461 29.5508 92.6445 29.286 92.705C28.6125 92.8337 27.9466 93.0001 27.2958 93.2044L26.5769 93.4466C26.0169 93.6585 25.4418 93.8628 24.8819 94.1352C24.4808 94.3168 24.1478 94.506 23.7771 94.6952C23.4063 94.8844 23.2474 94.9827 22.9825 95.1416C22.0215 95.7092 21.1135 96.3524 20.2659 97.0712C20.0541 97.2302 19.8573 97.4042 19.6757 97.601C19.547 97.6993 19.4335 97.8128 19.3351 97.9415C19.1762 98.0777 19.0173 98.2366 18.8584 98.3879C18.2682 98.9782 17.7234 99.6062 17.2164 100.272C16.9591 100.62 16.7169 100.931 16.4824 101.271C14.2425 104.631 13.0317 108.573 13.0166 112.614C13.2663 123.851 22.5815 132.765 33.8187 132.516C44.7078 132.274 53.4781 123.503 53.7202 112.614C53.7202 110.556 53.41 108.505 52.7819 106.538L52.7743 106.53ZM33.3873 127.741C25.0483 127.741 18.2833 120.983 18.2606 112.644C18.2606 110.215 18.8433 107.817 19.986 105.675L20.2432 105.229C20.9016 104.048 21.7264 102.974 22.6799 102.02C22.8917 101.778 23.149 101.574 23.3836 101.332C24.1176 100.666 24.9273 100.091 25.7899 99.6214C26.0321 99.4852 26.2666 99.349 26.5239 99.2203C26.6374 99.1447 26.7661 99.0841 26.8948 99.0312C27.2428 98.8495 27.6061 98.6982 27.9769 98.5847C28.2493 98.456 28.5368 98.3501 28.8244 98.2669H28.9303C29.3767 98.1382 29.8535 98.0247 30.3378 97.9188C30.8221 97.8128 31.2837 97.7372 31.7907 97.6766H31.8891C32.8804 97.5858 33.8868 97.5858 34.8781 97.6766H34.9765C35.4835 97.7372 35.9753 97.8128 36.4369 97.9188C36.8985 98.0247 37.4358 98.1382 37.8595 98.2971C38.2833 98.4561 38.5482 98.509 38.8584 98.6377C39.1989 98.7663 39.5318 98.9101 39.8572 99.0841C39.9859 99.1446 40.1145 99.2203 40.2583 99.2733L40.9621 99.6743C41.5447 99.9922 42.0895 100.363 42.6041 100.779C42.816 100.938 43.0203 101.097 43.2398 101.286C43.4592 101.475 43.4819 101.528 43.6106 101.627C43.7392 101.725 43.9284 101.914 44.0873 102.073C45.0332 103.034 45.8504 104.109 46.5164 105.282L46.645 105.524C50.6253 112.834 47.9238 121.99 40.6139 125.978C38.3892 127.188 35.8997 127.817 33.3722 127.817V127.756L33.3873 127.741Z" fill="black"/>
<path d="M170.694 100.401V106.538H148.091L147.326 105.221C143.225 97.9644 134.016 95.3991 126.759 99.5005C124.368 100.855 122.393 102.83 121.038 105.221L120.304 106.538H47.2735L46.6681 105.463L46.5395 105.221C45.8736 104.048 45.0563 102.974 44.1105 102.013C43.9515 101.854 43.7926 101.695 43.6337 101.566C43.4748 101.438 43.3915 101.324 43.2629 101.226C43.1342 101.127 42.8316 100.878 42.6273 100.719C42.1127 100.303 41.5603 99.9318 40.9852 99.614L40.2814 99.213C40.1452 99.213 40.009 99.0843 39.8804 99.0238C39.5626 98.8497 39.2296 98.6984 38.8815 98.5773C38.5637 98.4487 38.2156 98.3352 37.8827 98.2368C37.5497 98.1384 36.8838 97.9644 36.46 97.8584C36.0363 97.7525 35.4612 97.6768 34.9996 97.6163H34.9012C33.9099 97.5255 32.9035 97.5255 31.9122 97.6163H31.8138C31.3068 97.6768 30.8149 97.7525 30.3609 97.8584C29.9069 97.9644 29.3621 98.0779 28.9534 98.2065H28.8475C28.5599 98.2898 28.2724 98.3957 28 98.5243C27.6292 98.6454 27.266 98.7968 26.9179 98.9708C26.7892 99.0238 26.6682 99.0843 26.5471 99.16C26.2898 99.2886 26.0476 99.4173 25.8131 99.561C24.9655 100.068 24.1559 100.636 23.4067 101.271C23.1646 101.513 22.9073 101.718 22.703 101.96C21.7268 102.921 20.8945 104.018 20.221 105.214L19.9637 105.66L19.4567 106.523H4.51915C3.95919 104.669 3.11921 102.906 2.03711 101.294H16.5358C16.7779 100.946 17.0125 100.636 17.2698 100.295C17.7768 99.6367 18.3292 99.0011 18.9118 98.4108C19.0707 98.2595 19.2297 98.1006 19.3886 97.9644C19.4869 97.8357 19.6005 97.7222 19.7291 97.6239C19.9107 97.4347 20.1075 97.2531 20.3194 97.0942C21.1669 96.3753 22.0825 95.7321 23.0359 95.1645C23.3083 95.0056 23.5656 94.8467 23.8305 94.7181C24.0953 94.5894 24.5342 94.3397 24.9353 94.1581C25.4953 93.8857 26.0704 93.6814 26.6303 93.4695L27.3492 93.2273C28 93.023 28.6659 92.8566 29.3394 92.7279C29.5967 92.6674 29.8842 92.622 30.1793 92.569C30.6409 92.4858 31.1025 92.4328 31.5641 92.3798H35.3174C35.7941 92.3798 36.2633 92.4858 36.74 92.569L37.5346 92.7279C38.1854 92.8566 38.8361 93.023 39.4642 93.2273L40.168 93.4695C42.1051 94.1581 43.9288 95.1343 45.5633 96.3753C45.8357 96.5645 46.093 96.7763 46.3276 96.9504C46.8043 97.3514 47.3265 97.7752 47.7048 98.199C48.6734 99.1449 49.5436 100.197 50.2928 101.324H117.345C123.565 92.009 136.165 89.4967 145.48 95.7169C147.697 97.2001 149.604 99.0995 151.087 101.324H165.51V100.416C165.51 79.1676 161.976 58.0628 155.037 37.9721C151.624 28.7175 142.241 24.4572 134.962 24.4572H118.268V73.2652C118.261 81.3772 111.685 87.9531 103.573 87.9606H70.0884V82.7015H103.573C108.787 82.7015 113.024 78.479 113.032 73.2577V19.1753H134.939C144.277 19.1753 155.62 24.442 159.963 36.1862C167.092 56.8294 170.724 78.5244 170.709 100.371L170.694 100.401Z" fill="black"/>
<path d="M134.182 132.992C122.937 132.992 113.818 123.889 113.818 112.644C113.818 101.4 122.922 92.2812 134.166 92.2812C145.411 92.2812 154.53 101.385 154.53 112.629V112.652C154.514 123.882 145.411 132.977 134.182 133V132.992ZM134.182 97.5328C125.835 97.5328 119.062 104.29 119.055 112.637C119.055 120.983 125.812 127.756 134.159 127.764C142.505 127.764 149.278 121.006 149.286 112.66C149.278 104.305 142.521 97.548 134.182 97.5328Z" fill="black"/>
<path d="M8.73358 101.301V106.53H4.50353C3.94356 104.676 3.10359 102.913 2.02148 101.301H8.73358Z" fill="black"/>
<defs>
<linearGradient id="paint0_linear_205_1830" x1="57.3225" y1="71.1089" x2="81.6055" y2="71.1089" gradientUnits="userSpaceOnUse">
<stop offset="0.02" stop-color="#009245"/>
<stop offset="0.31" stop-color="#039445"/>
<stop offset="0.55" stop-color="#0D9A47"/>
<stop offset="0.78" stop-color="#1FA54A"/>
<stop offset="1" stop-color="#38B44E"/>
</linearGradient>
<linearGradient id="paint1_linear_205_1830" x1="135.385" y1="51.1233" x2="167.772" y2="51.1233" gradientUnits="userSpaceOnUse">
<stop offset="0.02" stop-color="#009245"/>
<stop offset="0.31" stop-color="#039445"/>
<stop offset="0.55" stop-color="#0D9A47"/>
<stop offset="0.78" stop-color="#1FA54A"/>
<stop offset="1" stop-color="#38B44E"/>
</linearGradient>
</defs>
</svg>
