<svg width="135" height="131" viewBox="0 0 135 131" fill="none" xmlns="http://www.w3.org/2000/svg">
<path d="M56.7232 28.6416H105.547L96.7231 12.4687C96.2163 11.5446 95.2474 10.9707 94.189 10.9707H41.1392C40.0808 10.9707 39.1119 11.5446 38.6051 12.4687L29.7734 28.6416H56.7157H56.7232Z" fill="url(#paint0_linear_205_1847)"/>
<path d="M81.914 60.1452L83.2182 48.854H67.664H52.1172L53.414 60.1452H81.914Z" fill="url(#paint1_linear_205_1847)"/>
<path d="M42.6893 61.6733H21.3515C20.3379 61.7403 19.4585 60.9727 19.384 59.9591C19.3169 58.9455 20.0846 58.0661 21.0982 57.9915C21.1802 57.9915 21.2621 57.9915 21.3441 57.9915H38.9927V56.4041C38.9852 53.8701 37.1294 51.7311 34.6253 51.3584L21.8211 49.4877C20.8149 49.3461 20.1144 48.422 20.256 47.4158C20.3976 46.4097 21.3218 45.7091 22.3279 45.8507L35.1395 47.7139C39.4547 48.3549 42.6669 52.0441 42.6893 56.4115V61.6807V61.6733Z" fill="black"/>
<path d="M114.826 94.8311H110.258C104.735 94.8236 100.263 90.3518 100.256 84.8292V77.1974H35.0799V84.8292C35.0799 90.3518 30.6007 94.8311 25.078 94.8311H20.5168C14.9942 94.8311 10.515 90.3518 10.5075 84.8292V43.3611L3.30806 40.7452C1.81002 40.1787 0.826172 38.7478 0.826172 37.1454V30.4676C0.826172 28.3509 2.54036 26.6368 4.65699 26.6368H14.1223C16.142 26.6368 18.0053 25.5337 18.9816 23.7599L28.4169 6.45424C30.5932 2.48183 34.7594 0.00745293 39.2908 0H96.0672C100.599 0 104.765 2.47437 106.934 6.45424L116.376 23.7599C117.345 25.5337 119.201 26.6368 121.228 26.6368H130.701C132.818 26.6368 134.532 28.3509 134.532 30.4676V37.1454C134.532 38.7403 133.541 40.1787 132.05 40.7452L124.873 43.3611V84.8292C124.873 90.3593 120.379 94.8385 114.849 94.8311C114.849 94.8311 114.841 94.8311 114.834 94.8311H114.826ZM31.4429 73.5157H103.982V84.8292C103.982 88.3172 106.814 91.1493 110.302 91.1493H114.871C118.359 91.1493 121.191 88.3172 121.191 84.8292V40.7899L130.738 37.2795C130.798 37.2646 130.835 37.205 130.828 37.1454V30.4676C130.828 30.3856 130.768 30.326 130.686 30.3185H121.213C117.845 30.3185 114.744 28.4776 113.127 25.5188L103.692 8.21313C102.164 5.41828 99.2346 3.68175 96.0523 3.68175H39.2759C36.0935 3.68175 33.157 5.41828 31.6366 8.21313L22.1938 25.5188C20.5839 28.4776 17.4835 30.3185 14.1073 30.3185H4.64207C4.56009 30.3185 4.49305 30.3856 4.49305 30.4676V37.1454C4.49305 37.205 4.53777 37.2572 4.58994 37.2795L14.1819 40.7899V84.8292C14.1819 88.3172 17.014 91.1493 20.5019 91.1493H25.0631C28.5585 91.1642 31.4056 88.347 31.4279 84.8516C31.4279 84.8441 31.4279 84.8367 31.4279 84.8292V73.5157H31.4429Z" fill="black"/>
<path d="M108.64 30.4751H26.7178L36.9879 11.5819C37.8078 10.0615 39.3953 9.10755 41.1243 9.1001H94.1742C95.9033 9.1001 97.4908 10.0615 98.3106 11.5819L108.64 30.4751ZM32.8888 26.7934H102.395L95.0612 13.3557C94.8823 13.0203 94.532 12.8117 94.1519 12.8117H41.1318C40.7517 12.8117 40.394 13.0203 40.2151 13.3557L32.8814 26.7934H32.8888Z" fill="black"/>
<path d="M113.976 61.6729H92.668V56.4037C92.6903 52.0438 95.8802 48.3546 100.188 47.7062L112.992 45.8429C113.998 45.6939 114.93 46.387 115.079 47.3931C115.228 48.3993 114.535 49.3309 113.529 49.48L100.695 51.3506C98.1905 51.7233 96.3347 53.8697 96.3273 56.3963V57.9837H113.976C114.989 57.9167 115.869 58.6843 115.943 59.6979C116.011 60.7115 115.243 61.591 114.229 61.6655C114.147 61.6655 114.065 61.6655 113.983 61.6655L113.976 61.6729Z" fill="black"/>
<path d="M81.9141 61.9861H53.4141C52.3931 61.9861 51.5658 61.1588 51.5733 60.1377C51.5733 59.1167 52.4005 58.2969 53.4141 58.2969H81.9141C82.9352 58.2969 83.7624 59.1242 83.755 60.1452C83.755 61.1663 82.9277 61.9861 81.9141 61.9861Z" fill="black"/>
<path d="M81.9139 61.986H81.6978C80.6842 61.8891 79.9463 60.9947 80.0358 59.9886C80.0358 59.9737 80.0358 59.9662 80.0358 59.9513L81.1016 50.7172H54.1741L55.2324 59.9513C55.3516 60.9649 54.6213 61.8742 53.6152 61.9934C52.6016 62.1127 51.6923 61.3823 51.5731 60.3761L50.0303 47.0205H85.2677L83.725 60.3612C83.6207 61.2929 82.8306 61.9934 81.899 61.9934L81.9139 61.986Z" fill="black"/>
<path d="M33.2383 77.1974H24.6973C23.6837 77.2644 22.8042 76.4968 22.7297 75.4832C22.6626 74.4696 23.4303 73.5902 24.4439 73.5156C24.5259 73.5156 24.6078 73.5156 24.6898 73.5156H33.2309C34.2445 73.5827 35.0196 74.4621 34.945 75.4832C34.8854 76.4073 34.1476 77.1377 33.2309 77.1974H33.2383Z" fill="black"/>
<path d="M113.089 77.1974H102.089C101.075 77.2644 100.196 76.4968 100.121 75.4832C100.054 74.4696 100.822 73.5902 101.835 73.5156C101.917 73.5156 101.999 73.5156 102.081 73.5156H113.082C114.095 73.5827 114.871 74.4621 114.796 75.4832C114.736 76.4073 113.999 77.1377 113.082 77.1974H113.089Z" fill="black"/>
<path d="M33.2387 77.1974H22.2383C21.2247 77.2644 20.3452 76.4968 20.2707 75.4832C20.2036 74.4696 20.9712 73.5902 21.9848 73.5156C22.0668 73.5156 22.1488 73.5156 22.2308 73.5156H33.2313C34.2449 73.5827 35.02 74.4621 34.9455 75.4832C34.8858 76.4073 34.148 77.1377 33.2313 77.1974H33.2387Z" fill="black"/>
<path d="M132.668 130.985C131.654 130.985 130.827 130.165 130.82 129.152V94.8384H98.4963C97.125 94.8384 96.0145 95.9488 96.0145 97.3202C96.0145 98.6915 97.125 99.802 98.4963 99.802H122.398C123.411 99.7349 124.291 100.503 124.365 101.516C124.432 102.53 123.665 103.409 122.651 103.484C122.569 103.484 122.487 103.484 122.405 103.484H98.5038C95.1052 103.484 92.3477 100.726 92.3477 97.3202C92.3477 93.9217 95.1052 91.1715 98.5038 91.1641H134.516V129.159C134.501 130.165 133.682 130.978 132.668 130.978V130.985Z" fill="black"/>
<path d="M2.66676 130.985C1.65316 130.985 0.825812 130.165 0.818359 129.152V91.1567H36.8235C40.222 91.1567 42.9796 93.9069 42.9871 97.3128C42.9871 100.711 40.2369 103.469 36.831 103.476H12.922C11.9084 103.409 11.1333 102.53 11.2078 101.509C11.2674 100.585 12.0053 99.8543 12.922 99.7947H36.8235C38.1948 99.7947 39.3053 98.6842 39.3053 97.3128C39.3053 95.9415 38.1948 94.831 36.8235 94.831H4.50015V129.144C4.50761 130.158 3.69519 130.985 2.68159 131C2.68159 131 2.67421 131 2.66676 131V130.985Z" fill="black"/>
<defs>
<linearGradient id="paint0_linear_205_1847" x1="29.7809" y1="19.8099" x2="105.547" y2="19.8099" gradientUnits="userSpaceOnUse">
<stop offset="0.02" stop-color="#009245"/>
<stop offset="0.31" stop-color="#039445"/>
<stop offset="0.55" stop-color="#0D9A47"/>
<stop offset="0.78" stop-color="#1FA54A"/>
<stop offset="1" stop-color="#38B44E"/>
</linearGradient>
<linearGradient id="paint1_linear_205_1847" x1="52.1172" y1="54.5033" x2="83.2182" y2="54.5033" gradientUnits="userSpaceOnUse">
<stop offset="0.02" stop-color="#009245"/>
<stop offset="0.31" stop-color="#039445"/>
<stop offset="0.55" stop-color="#0D9A47"/>
<stop offset="0.78" stop-color="#1FA54A"/>
<stop offset="1" stop-color="#38B44E"/>
</linearGradient>
</defs>
</svg>
